<?xml version="1.0" standalone="no"?>
<!DOCTYPE svg PUBLIC "-//W3C//DTD SVG 1.1//EN" "http://www.w3.org/Graphics/SVG/1.1/DTD/svg11.dtd" >
<svg xmlns="http://www.w3.org/2000/svg" xmlns:xlink="http://www.w3.org/1999/xlink" version="1.1">
<metadata>
Created by FontForge 20201107 at Mon Mar 20 09:06:44 2023
 By 
Copyright (C) 2023 by UICreative. All Right Reserved
</metadata>
<defs>
<font id="Candlefish" horiz-adv-x="621" >
  <font-face 
    font-family="Candlefish"
    font-weight="400"
    font-stretch="normal"
    units-per-em="1000"
    panose-1="0 0 0 0 0 0 0 0 0 0"
    ascent="800"
    descent="-200"
    x-height="483"
    cap-height="662"
    bbox="-334 -201 1311 841"
    underline-thickness="0"
    underline-position="0"
    unicode-range="U+000A-FB01"
  />
<missing-glyph horiz-adv-x="527" 
d="M50 700h427v-700h-427v700zM78 680l185 -309l186 309h-371zM251 350l-180 300v-601zM264 329l-185 -308h370zM276 350l181 -303v605z" />
    <glyph glyph-name="fj.liga" unicode="fj" horiz-adv-x="440" 
d="M351 554q-21 0 -35.5 14.5t-14.5 35.5q0 9 4 18t8 14.5t4 12t-8 11.5q-18 14 -55.5 16.5t-61.5 -6.5q-26 -8 -44 -21t-24 -32t10 -42q2 -2 7.5 -9t8 -11t6 -10.5t5 -13t1.5 -13.5v-35h231v-547q0 -50 -33.5 -90t-99.5 -40q-22 0 -41 6t-30.5 14.5t-20 17t-11.5 14.5l-3 6
l33 23q1 -3 3.5 -7.5t10 -17t15.5 -21.5t20 -17t23 -8q51 0 51 101v527q0 14 -10 23.5t-23 9.5h-115v-405q0 -14 1.5 -23t6.5 -19.5t17.5 -15.5t32.5 -5v-6h-200v6q58 0 58 61v407h-68v6h68v35v9q0 20 0.5 31.5t5.5 32.5t15 34.5t30.5 28t49.5 23.5q64 17 113.5 7.5
t78.5 -32.5t29 -48q0 -18 -13.5 -34t-35.5 -16z" />
    <glyph glyph-name="fi.liga" unicode="fi" horiz-adv-x="462" 
d="M351 554q-21 0 -35.5 14.5t-14.5 35.5q0 9 4 18t8 14.5t4 12t-8 11.5q-18 14 -55.5 16.5t-61.5 -5.5q-26 -9 -44 -22t-24 -32t10 -42q2 -2 7.5 -9t8 -11t6 -10.5t5 -13t1.5 -13.5v-35h230v-411q0 -14 1.5 -23t7 -19.5t18 -15.5t32.5 -5v-6h-200v6q58 0 58 61v374
q0 14 -10 23.5t-23 9.5h-114v-405q0 -14 1.5 -23t6.5 -19.5t17.5 -15.5t32.5 -5v-6h-200v6q58 0 58 61v407h-68v6h68v35v9q0 20 0.5 31.5t5.5 32.5t15 34.5t30.5 28.5t49.5 23q64 17 113.5 7.5t78.5 -32.5t29 -48q0 -18 -13.5 -34t-35.5 -16z" />
    <glyph glyph-name=".notdef" horiz-adv-x="527" 
d="M50 700h427v-700h-427v700zM78 680l185 -309l186 309h-371zM251 350l-180 300v-601zM264 329l-185 -308h370zM276 350l181 -303v605z" />
    <glyph glyph-name=".null" horiz-adv-x="0" 
 />
    <glyph glyph-name=".null" horiz-adv-x="0" 
 />
    <glyph glyph-name="nonmarkingreturn" horiz-adv-x="333" 
 />
    <glyph glyph-name="controlLF" unicode="&#xa;" horiz-adv-x="0" 
 />
    <glyph glyph-name="controlCR" unicode="&#xd;" horiz-adv-x="0" 
 />
    <glyph glyph-name="space" unicode=" " horiz-adv-x="465" 
 />
    <glyph glyph-name="exclam" unicode="!" horiz-adv-x="190" 
d="M108 167h-27l-37 499h102zM95 93q19 0 32.5 -13.5t13.5 -32.5t-13.5 -33t-32.5 -14t-33 14t-14 33t14 32.5t33 13.5z" />
    <glyph glyph-name="quotedbl" unicode="&#x22;" horiz-adv-x="259" 
d="M72 632q22 0 30 -7t7 -19l-20 -156h-34l-21 153q-2 16 8 22.5t30 6.5zM187 632q22 0 30.5 -7t6.5 -19l-20 -156h-34l-20 153q-3 16 7 22.5t30 6.5z" />
    <glyph glyph-name="numbersign" unicode="#" horiz-adv-x="520" 
d="M485 304h-95l-27 -159h99v-12h-100l-22 -133h-54l22 133h-123l-24 -133h-53l24 133h-99v12h100l27 159h-102v12h104l27 164h53l-26 -164h122l26 164h53l-25 -164h93v-12zM310 145l26 159h-122l-27 -159h123z" />
    <glyph glyph-name="dollar" unicode="$" horiz-adv-x="473" 
d="M266 355q3 -2 29 -18t37.5 -24t34.5 -27.5t34 -36t21 -41t10 -50.5q0 -36 -12.5 -61.5t-41.5 -52.5q-41 -40 -112 -49v-80h-32v78q-57 0 -106.5 13t-70.5 26l-21 13l30 64q4 -4 9.5 -10.5t23.5 -23.5t37 -30t46 -23.5t52 -10.5v275l-79 51q-123 93 -88 204q9 29 29.5 52
t43.5 35t44.5 20t35.5 10l14 2v63h32v-61q33 0 62 -5t47 -12t31.5 -14.5t19.5 -12.5l6 -5l-28 -63q-2 4 -6 10t-17.5 22t-28.5 28.5t-38.5 22.5t-47.5 10v-288zM234 375v266q-16 0 -39.5 -12t-45.5 -41t-22 -65q0 -28 11 -54t27 -42t31.5 -28.5t26.5 -18.5zM266 13
q28 5 48 18t29 30.5t13 33t4 32.5q0 27 -9.5 52t-23.5 41t-28 28t-23 18l-10 5v-258z" />
    <glyph glyph-name="percent" unicode="%" horiz-adv-x="688" 
d="M331 516q0 -67 -41 -110.5t-110 -43.5q-70 0 -108.5 43.5t-38.5 104.5q0 67 41 109.5t109 42.5q66 0 107 -39.5t41 -106.5zM180 391q21 0 34.5 12.5t19 35.5t7 39t1.5 39q0 117 -59 117q-61 0 -61 -124q0 -119 58 -119zM507 300q23 0 46.5 -6.5t47.5 -22t38.5 -46
t14.5 -71.5q0 -68 -40.5 -111t-109.5 -43q-66 0 -106.5 41t-40.5 107q0 67 41 109.5t109 42.5zM504 29q20 0 33.5 11.5t19 32.5t7.5 39t2 43q0 116 -59 116q-61 0 -61 -123q0 -119 58 -119zM475 662h55l-318 -662h-55z" />
    <glyph glyph-name="ampersand" unicode="&#x26;" horiz-adv-x="636" 
d="M506 151l120 -156h-85l-75 96q-3 -4 -9.5 -10.5t-29 -24t-46.5 -31.5t-62 -26t-77 -14q-68 -4 -126.5 32.5t-74.5 100.5q-7 25 -7.5 48t5.5 42.5t14 37t22 32.5t26 27t29.5 23t29 18.5t28 14.5t23.5 10t17 8q3 1 4 1q-1 2 -19.5 28.5t-25.5 39t-15.5 36.5t-7.5 45
q0 34 14 61t36 41.5t48.5 22t53.5 3t49.5 -16.5t38 -35.5t17.5 -54.5q2 -28 -9 -53.5t-28.5 -42t-35 -29.5t-30.5 -19l-12 -5l190 -236q37 67 51 140h15q-8 -37 -21.5 -75.5t-24.5 -58.5zM230 512l68 -103q29 11 51 49q22 40 22.5 84t-21 74.5t-57.5 30.5q-30 0 -52.5 -19
t-27 -49t16.5 -67zM267 24q58 -4 109 23t78 56l-214 266q-9 -4 -23.5 -10t-44.5 -25.5t-43 -39.5q-29 -43 -26 -89.5t24.5 -85.5t59.5 -65.5t80 -29.5z" />
    <glyph glyph-name="quotesingle" unicode="'" horiz-adv-x="144" 
d="M72 632q22 0 30 -7t7 -19l-20 -156h-34l-21 153q-2 16 8 22.5t30 6.5z" />
    <glyph glyph-name="parenleft" unicode="(" horiz-adv-x="233" 
d="M188 -105q-59 73 -101 184.5t-42 240.5q0 32 4 70.5t17 100.5t44 130t78 126l45 -32q-121 -165 -121 -395q0 -229 121 -394z" />
    <glyph glyph-name="parenright" unicode=")" horiz-adv-x="233" 
d="M45 747q58 -74 100 -185.5t42 -240.5q0 -32 -4 -70.5t-17 -100t-44 -130t-77 -125.5l-46 31q122 165 122 395q0 229 -122 394z" />
    <glyph glyph-name="asterisk" unicode="*" horiz-adv-x="274" 
d="M241 618l-68 -58l61 -53l-30 -36l-44 38v-68h-47v68l-44 -38l-30 36l62 53l-68 58l30 36l50 -43v69h47v-69l51 43z" />
    <glyph glyph-name="plus" unicode="+" horiz-adv-x="534" 
d="M310 364h198v-41h-198v-223h-86v223h-198v41h198v218h86v-218z" />
    <glyph glyph-name="comma" unicode="," horiz-adv-x="163" 
d="M76 90q25 0 39 -14t16.5 -29t-0.5 -29q-7 -41 -36 -69t-47 -34l-8 15q8 7 19 17.5t24 28t15 30.5q-18 -9 -30 -9q-20 0 -29.5 15.5t-9.5 26.5q0 19 11 32t20.5 16t15.5 3z" />
    <glyph glyph-name="hyphen" unicode="-" horiz-adv-x="322" 
d="M293 300h-265v71h265v-71z" />
    <glyph glyph-name="period" unicode="." horiz-adv-x="151" 
d="M75.5 93q19.5 0 33 -13.5t13.5 -32.5t-13.5 -33t-33 -14t-33 14t-13.5 33t13.5 32.5t33 13.5z" />
    <glyph glyph-name="slash" unicode="/" horiz-adv-x="449" 
d="M137 1h-87l262 661h87z" />
    <glyph glyph-name="zero" unicode="0" horiz-adv-x="529" 
d="M265 659q57 0 100.5 -27t69 -73.5t38.5 -104t13 -124.5q0 -19 -1.5 -40t-6.5 -55t-14 -63.5t-25.5 -62t-39 -55.5t-57.5 -38t-77 -15q-57 0 -101 27t-69.5 73.5t-38 104t-12.5 124.5q0 20 1.5 42t6.5 55.5t14 63.5t25.5 62t39 54.5t57.5 37t77 14.5zM262 17
q87 0 120.5 77t33.5 238q0 78 -7 132.5t-23.5 98t-47 65t-76 21.5t-76.5 -21.5t-47.5 -65t-23 -98t-6.5 -132.5q0 -79 7 -134t24 -97.5t47 -63t75 -20.5z" />
    <glyph glyph-name="one" unicode="1" horiz-adv-x="198" 
d="M41 616l106 46v-662h-68v545q0 23 -9.5 41t-19.5 24z" />
    <glyph glyph-name="two" unicode="2" horiz-adv-x="487" 
d="M84 57h351v-55l-395 -1v41q11 10 44.5 36t67.5 52.5t75.5 67t72.5 81.5t52 94.5t21 107.5q0 71 -33.5 119.5t-90.5 48.5q-55 0 -97 -49t-51 -118l-67 4q1 15 10 36t28 46.5t43.5 47t61.5 36t78 14.5q80 0 134.5 -48t54.5 -130q0 -55 -24 -110.5t-58.5 -97t-81 -82.5
t-82.5 -65.5t-72.5 -48t-41.5 -27.5z" />
    <glyph glyph-name="three" unicode="3" horiz-adv-x="482" 
d="M271 362q67 -9 117.5 -52.5t50.5 -114.5q0 -42 -13 -77.5t-34 -57.5t-48 -37t-53 -21.5t-50 -6.5q-48 0 -89.5 11.5t-65.5 28t-37 30t-15 21.5l52 13q7 -27 26.5 -48.5t45 -32t55 -13.5t58 6.5t51 28t37 51.5t14.5 75q0 49 -14.5 86t-34 55.5t-46.5 29.5t-46 13.5
t-38 2.5h-17v19h22q58 0 107.5 48t49.5 101q0 60 -30.5 96t-83.5 36q-34 0 -60 -15.5t-41.5 -41t-24 -55t-10.5 -63.5l-56 12q0 80 53 129t137 49q78 0 128 -43t50 -101q0 -50 -45.5 -97t-101.5 -65z" />
    <glyph glyph-name="four" unicode="4" horiz-adv-x="476" 
d="M442 154v-19h-74v-134h-69v134h-278v16l333 513h14v-510h74zM299 154v389l-253 -389h253z" />
    <glyph glyph-name="five" unicode="5" horiz-adv-x="488" 
d="M257 426q82 0 136 -59t54 -155q0 -94 -60 -156.5t-150 -62.5q-44 0 -80.5 10.5t-57.5 25t-35.5 29t-20.5 24.5l-5 10l41 25q22 -44 53.5 -71.5t64 -35t65 1.5t58 32.5t41.5 63t16 89.5q0 38 -7 72t-22 64.5t-42.5 49t-64.5 18.5t-76.5 -14t-60.5 -28l-21 -14l-22 3
l46 308h308l-11 -68h-285l-34 -217q9 6 25 15t61 24.5t86 15.5z" />
    <glyph glyph-name="six" unicode="6" horiz-adv-x="517" 
d="M297 417q31 0 62.5 -14t58.5 -39.5t44 -66t17 -88.5q0 -31 -13 -65.5t-38.5 -67t-70 -54t-100.5 -21.5q-88 0 -152 69t-64 183q0 63 15.5 119t41.5 96.5t60.5 74.5t70.5 56t72.5 37t66.5 21.5t53 6.5v-21q-30 0 -69.5 -13t-84.5 -44t-82.5 -75.5t-62 -116t-24.5 -156.5
q0 4 1.5 10t8 25t15.5 35.5t25 37.5t35.5 35.5t49 25t64.5 10.5zM270 18q59 0 99 51.5t40 128.5q0 49 -14.5 91.5t-48 71.5t-80.5 29q-59 0 -100.5 -56.5t-41.5 -137.5q0 -72 43.5 -125t102.5 -53z" />
    <glyph glyph-name="seven" unicode="7" horiz-adv-x="470" 
d="M35 663h385v-40q-45 -63 -85 -130.5t-80 -150.5t-63.5 -172t-23.5 -169h-82q0 67 25.5 145.5t59.5 143t80 132.5t75.5 104.5t56.5 68.5h-358z" />
    <glyph glyph-name="eight" unicode="8" horiz-adv-x="522" 
d="M278 659q90 -1 135.5 -53.5t38.5 -121.5q-5 -46 -39 -89t-78 -60q17 -8 34.5 -18t42.5 -28t43 -44t23 -54q5 -31 -5 -64t-34.5 -62.5t-71 -48.5t-107.5 -19q-36 0 -72.5 9.5t-70.5 28t-55.5 53t-21.5 78.5q0 34 12 63.5t28 48.5t37.5 34.5t36 22t27.5 11.5
q-32 16 -56.5 45.5t-34.5 65t0 76.5t42 74q49 52 146 52zM142 506q0 -71 75 -112q8 -4 16.5 -8.5t16 -8.5t14.5 -7.5t13.5 -6.5t12 -5.5t9.5 -4.5l7 -3.5l5 -2.5l2 -1q45 19 72 58t27 87q0 61 -40.5 102.5t-89.5 41.5q-55 0 -97.5 -39t-42.5 -90zM269 14q70 0 115 38.5
t45 96.5q0 71 -79 112q-66 34 -144 73q-39 -17 -64 -48t-33.5 -66t-2 -72t26 -66.5t55.5 -48.5t81 -19z" />
    <glyph glyph-name="nine" unicode="9" horiz-adv-x="517" 
d="M260 664q88 0 152 -69t64 -183q0 -63 -16 -119t-41.5 -96.5t-60 -74.5t-70.5 -56t-72.5 -37t-66.5 -21.5t-53 -6.5v21q30 0 69.5 13t84.5 44t82.5 75.5t62 116t24.5 156.5q0 -4 -1.5 -10t-8 -25t-15.5 -35.5t-25 -37.5t-35.5 -35.5t-49 -25t-64.5 -10.5q-31 0 -62.5 14
t-58.5 39.5t-44 66t-17 88.5q0 31 13 65.5t38.5 67t70 54t100.5 21.5zM251 275q59 0 100 56.5t42 137.5q0 72 -43.5 125t-102.5 53t-99 -51.5t-40 -128.5q0 -49 14.5 -91.5t48 -71.5t80.5 -29z" />
    <glyph glyph-name="colon" unicode=":" horiz-adv-x="163" 
d="M81.5 0q-19.5 0 -33 14t-13.5 33t13.5 32.5t33 13.5t33 -13.5t13.5 -32.5t-13.5 -33t-33 -14zM81.5 391q-19.5 0 -33 13.5t-13.5 33t13.5 33t33 13.5t33 -13.5t13.5 -33t-13.5 -33t-33 -13.5z" />
    <glyph glyph-name="semicolon" unicode=";" horiz-adv-x="174" 
d="M82 91q25 0 39 -14t16.5 -29.5t-0.5 -29.5q-7 -40 -36 -68.5t-47 -34.5l-8 16q8 6 19 16.5t24 28.5t15 31q-18 -10 -30 -10q-20 0 -29.5 16t-9.5 26q0 20 11 32.5t20.5 16t15.5 3.5zM86.5 388q-19.5 0 -33 13.5t-13.5 33t13.5 33t33 13.5t33 -13.5t13.5 -33t-13.5 -33
t-33 -13.5z" />
    <glyph glyph-name="less" unicode="&#x3c;" horiz-adv-x="553" 
d="M517 110l-486 222v69l486 221v-43l-421 -190l421 -194v-85z" />
    <glyph glyph-name="equal" unicode="=" horiz-adv-x="552" 
d="M517 431h-482v86h482v-86zM517 250h-482v86h482v-86z" />
    <glyph glyph-name="greater" unicode="&#x3e;" horiz-adv-x="553" 
d="M35 110v43l421 190l-421 195v84l486 -221v-69z" />
    <glyph glyph-name="question" unicode="?" horiz-adv-x="478" 
d="M244 674q88 0 144 -47t56 -119q0 -37 -17 -69t-41.5 -54t-54 -45.5t-54.5 -43t-41.5 -46.5t-16.5 -57v-32h-28v29q0 41 18 76.5t44.5 62t52.5 52t44.5 58t18.5 68.5q0 35 -13 68t-44 57.5t-73 24.5q-38 0 -65.5 -17t-41.5 -45.5t-20.5 -58.5t-6.5 -62l-79 12
q-1 2 0.5 12.5t7 27.5t15 36.5t26.5 39.5t39 36t56 26t74 10zM204 93q19 0 32.5 -13.5t13.5 -33t-13.5 -33t-32.5 -13.5t-32.5 13.5t-13.5 33t13.5 33t32.5 13.5z" />
    <glyph glyph-name="at" unicode="@" horiz-adv-x="945" 
d="M258 283q0 89 55.5 148t143.5 59q92 0 148 -68v55h58v-291q0 -44 18 -63t46 -19q52 0 85 78q41 97 20 220q-27 159 -147 235q-87 56 -212 56q-71 0 -131.5 -23.5t-102 -63t-70 -93t-42 -112t-13.5 -119.5q0 -31 4.5 -64.5t16 -73.5t29 -77t46.5 -72.5t65 -61.5t87 -41.5
t111 -15.5t129.5 32.5t124.5 79.5l28 -36q-117 -102 -282 -102q-186 0 -308.5 122.5t-122.5 309t122.5 309t308.5 122.5t309 -115t123 -282q0 -54 -20 -107t-63 -92t-98 -39q-72 0 -100 74l-5 18q-29 -43 -70.5 -68.5t-91.5 -25.5q-88 0 -143.5 60t-55.5 147zM462 104
q57 0 99 53t42 126q0 16 -2 34.5t-11 45t-23.5 46.5t-42 34.5t-62.5 14.5t-62.5 -14.5t-42 -35t-24 -46.5t-12 -45t-2.5 -34q0 -70 40.5 -124.5t102.5 -54.5z" />
    <glyph glyph-name="A" unicode="A" 
d="M401 9q33 -2 51 11.5t3 51.5q-11 27 -35 92h-299q-35 -90 -39.5 -107.5t2.5 -30.5q11 -17 43 -17h7v-9h-141v9q1 0 5.5 -0.5t13.5 2.5t18.5 7.5t19.5 16t17 28.5q15 36 72.5 186t107.5 282l49 131h19l251 -624q9 -18 20.5 -23.5t34.5 -5.5h7v-9h-227v9zM127 179h287
q-25 66 -60.5 160t-58.5 155l-22 61q-91 -233 -146 -376z" />
    <glyph glyph-name="B" unicode="B" horiz-adv-x="581" 
d="M392 357q82 -12 126 -57.5t44 -119.5q0 -85 -71.5 -132.5t-177.5 -47.5h-302v9q68 1 72 57v528q-4 56 -72 58v10h275q102 0 156.5 -40t54.5 -121q0 -44 -29.5 -88.5t-75.5 -55.5zM271 650h-111v-293h127q54 0 90 39t36 105q0 65 -39.5 107t-102.5 42zM285 11
q83 0 132 45.5t49 123.5q0 82 -48.5 121.5t-130.5 39.5h-126v-330h124z" />
    <glyph glyph-name="C" unicode="C" horiz-adv-x="592" 
d="M325 -9q-54 0 -107 22t-97 63.5t-71 107.5t-27 146q0 69 20.5 127.5t53 97t73.5 65t80 38.5t75 12q37 0 74 -10t63 -25t46.5 -30t30.5 -25l10 -10l-62 -132l-14 7q13 33 7 70.5t-22.5 69.5t-49.5 53t-72 21q-48 0 -86.5 -20t-63 -52.5t-41 -76.5t-23.5 -88t-7 -91
q0 -144 66.5 -235.5t158.5 -91.5q41 0 81 34.5t64.5 77t34.5 80.5l61 -25q-10 -27 -29 -55t-49 -57.5t-76.5 -48.5t-101.5 -19z" />
    <glyph glyph-name="D" unicode="D" horiz-adv-x="592" 
d="M264 662q60 0 113.5 -20t96.5 -59t68.5 -103.5t25.5 -145.5q0 -49 -12 -96t-37 -90.5t-61.5 -76t-90 -52t-116.5 -19.5h-241v9q35 1 54 17.5t19 47.5q0 25 -0.5 260.5t-0.5 239.5q-2 40 -18.5 59t-52.5 20v9h253zM226 9q37 0 72.5 10t69.5 34.5t59 61t40.5 93t15.5 126.5
q0 150 -71.5 234t-180.5 84h-71v-637z" />
    <glyph glyph-name="E" unicode="E" horiz-adv-x="494" 
d="M322 9q30 0 56.5 15t43.5 37.5t27 42t15 36.5h17l-30 -140h-441v8q36 1 53 20.5t19 62.5l2 480q-1 42 -18 61t-54 20v10l416 1l30 -140h-17q-9 34 -54 81.5t-88 47.5h-136v-295h85q30 1 47 28.5t18 66.5h16v-203h-16q-1 38 -17.5 65.5t-46.5 28.5h-86v-334h159z" />
    <glyph glyph-name="F" unicode="F" horiz-adv-x="459" 
d="M427 663l30 -140h-17q-10 34 -54.5 81.5t-87.5 47.5h-136v-295h84q31 1 48 28.5t18 66.5h16v-203h-16q-1 38 -17.5 65.5t-46.5 28.5h-86v-270q0 -62 72 -64v-9h-223v9q33 1 52.5 17t19.5 45v500q-2 42 -18.5 61t-53.5 20v10z" />
    <glyph glyph-name="G" unicode="G" horiz-adv-x="626" 
d="M606 343v-74q0 -49 -19.5 -98t-53.5 -89t-85.5 -65.5t-109.5 -25.5q-66 0 -120.5 20t-89.5 53t-59 77.5t-34.5 91.5t-10.5 97q0 69 20 127.5t51.5 97t71.5 65.5t78.5 39t74.5 12q44 0 84 -10.5t65.5 -25.5t44.5 -29.5t28 -25.5l8 -10l-62 -132l-14 7q13 33 6.5 70.5
t-24 69t-51 52.5t-72.5 21q-66 0 -116 -45.5t-75.5 -118.5t-25.5 -160q0 -145 63.5 -237.5t154.5 -92.5q90 0 138.5 71.5t48.5 187.5v66h-200v14h285z" />
    <glyph glyph-name="H" unicode="H" horiz-adv-x="601" 
d="M584 652h-5q-50 0 -50 -60v-423q0 -54 1 -76t5.5 -46t14.5 -31t29 -7h5v-9h-190v9h5q50 0 50 63v271h-297v-266q0 -68 50 -68h4v-9h-189v9h5q12 0 20.5 3t14 11.5t8.5 16t4.5 23.5t2 27t0.5 33v466q0 63 -50 63h-5v10h189v-10h-4q-50 0 -50 -63v-232h297v232q0 63 -50 63
h-5v10h190v-10z" />
    <glyph glyph-name="I" unicode="I" horiz-adv-x="224" 
d="M202 652q-50 0 -50 -63v-517q0 -63 50 -63h4v-9h-189v9h5q50 0 50 63v517q0 63 -50 63h-5v10h189v-10h-4z" />
    <glyph glyph-name="J" unicode="J" horiz-adv-x="425" 
d="M196 662h222v-10q-72 -2 -72 -60v-432q0 -77 -45 -124t-136 -47q-38 0 -68 12t-45.5 27.5t-27.5 41.5t-15.5 40t-7.5 37l71 13q2 -1 0 -16.5t3 -39.5t12.5 -47.5t28 -40t49.5 -16.5q103 0 103 149v441q-2 60 -72 62v10z" />
    <glyph glyph-name="K" unicode="K" horiz-adv-x="644" 
d="M533 95q2 -2 11.5 -13.5t11.5 -14.5t11 -13t12.5 -12.5t11.5 -10t14 -10t14 -6t16 -5t17 -1.5v-9h-66q-91 0 -139 63q-149 202 -198 268q-41 53 -88 7v-268q2 -60 72 -61v-9h-222v9q71 2 72 63v517q-1 61 -72 63v10h222v-10q-70 -2 -72 -61v-232q187 188 248 247
q8 8 10.5 20t-2.5 17q-7 9 -49 9v10h160v-10q-31 -1 -58 -17.5t-61 -49.5q-15 -15 -96.5 -96t-106.5 -106q24 16 61 16q20 0 38 -10t25.5 -18.5t19.5 -25.5q18 -24 60.5 -82.5t76.5 -105.5t46 -62z" />
    <glyph glyph-name="L" unicode="L" horiz-adv-x="498" 
d="M480 140h17l-30 -140h-457v8q37 1 54 21t19 62v498q0 63 -50 63h-4v10h189v-10h-5q-50 0 -50 -63v-580h175q30 0 56.5 15t43.5 37.5t27 42t15 36.5z" />
    <glyph glyph-name="M" unicode="M" horiz-adv-x="732" 
d="M723 653q-37 -1 -54.5 -21t-18.5 -62v-498q0 -63 50 -63h4v-9h-189v9h5q50 0 50 63v546l-228 -558h-39l-214 517v-505q0 -63 50 -63h5v-9h-127v9h5q50 0 50 63v517q0 63 -50 63h-5v10h126l213 -522l215 522h152v-9z" />
    <glyph glyph-name="N" unicode="N" horiz-adv-x="582" 
d="M567 652h-5q-50 0 -50 -93v-559h-17l-406 609v-533q0 -13 1 -21t5 -20.5t15 -19t29 -6.5h5v-9h-127v9h5q50 0 50 63v517q0 63 -50 63h-5v10h146l332 -498v394q0 94 -50 94h-5v10h127v-10z" />
    <glyph glyph-name="O" unicode="O" horiz-adv-x="682" 
d="M355 -2h-25q-56 0 -110.5 22t-98.5 63t-71 105.5t-27 142.5q0 79 27.5 144t73 105.5t102 62.5t117.5 22q58 0 114 -22.5t101.5 -63t73 -105.5t27.5 -143q0 -65 -20 -121t-52 -94t-72.5 -65.5t-81 -40t-78.5 -12.5zM341 652q-92 0 -155.5 -93t-63.5 -227
q0 -73 28.5 -146.5t80.5 -123.5t110 -50q59 0 109.5 43.5t80.5 117.5t30 159q0 135 -64 227.5t-156 92.5z" />
    <glyph glyph-name="P" unicode="P" horiz-adv-x="523" 
d="M230 0h-220v9q72 2 72 64v515q0 62 -72 64v10h280q98 0 158 -59t60 -154q0 -101 -61.5 -160.5t-148.5 -59.5q-26 0 -50 7.5t-40 18t-27.5 21t-17.5 17.5l-5 7v-227q0 -62 72 -64v-9zM158 331q2 -3 6 -8.5t17 -19t28 -24t39 -19.5t50 -9q53 0 88.5 54.5t35.5 143.5
q0 87 -32.5 141t-99.5 54h-132v-313z" />
    <glyph glyph-name="Q" unicode="Q" horiz-adv-x="682" 
d="M659 331q0 -117 -58 -196.5t-143 -114.5l116 -78l-32 -57l-119 123q-36 -10 -68 -10h-25q-56 0 -110.5 22t-98.5 63t-71 105.5t-27 142.5q0 79 27.5 144t73 105.5t102 62.5t117.5 22q58 0 114 -22.5t101.5 -63t73 -105.5t27.5 -143zM428 40q59 38 95.5 117.5t36.5 174.5
q0 135 -63.5 227.5t-155.5 92.5t-155.5 -93t-63.5 -227q0 -73 28.5 -146.5t80.5 -123.5t110 -50q33 0 65 15l-33 34h23z" />
    <glyph glyph-name="R" unicode="R" horiz-adv-x="596" 
d="M298 315q35 0 69.5 -31.5t62 -76t52 -89.5t49 -76.5t43.5 -31.5h26v-10h-79q-56 0 -90 52q-8 12 -31 48.5t-41 65t-46 66.5t-51.5 63t-51.5 43t-51 18v-283q0 -63 72 -64v-9h-220v9q72 1 72 63v516q0 62 -72 64v10h248q52 0 95 -8.5t79 -27t56 -52t20 -79.5
q0 -40 -15.5 -72.5t-38.5 -52t-52.5 -32.5t-55.5 -18t-49 -5zM159 379q10 -6 26 -15t53.5 -23.5t60.5 -14.5q54 0 89 41t35 116q0 78 -45 121.5t-118 43.5h-101v-269z" />
    <glyph glyph-name="S" unicode="S" horiz-adv-x="468" 
d="M283 353q164 -75 164 -189q0 -46 -17 -81.5t-46 -55t-63 -29t-72 -9.5q-71 0 -132.5 25t-99.5 67l43 84q3 -7 8.5 -18t24 -39.5t38.5 -50t52.5 -39.5t65.5 -18q39 0 69.5 22t43 48.5t12.5 48.5q0 34 -10.5 62t-23.5 45t-34 32t-32.5 20.5t-29.5 12.5l-6 3q-54 23 -71 31
q-23 9 -43 23t-40.5 35.5t-31.5 53t-8 69.5q1 27 12 54.5t32 54t58.5 42.5t85.5 16q37 0 71 -7.5t56.5 -18.5t40 -22t25.5 -18l8 -8l-57 -72l-5 15t-14.5 32.5t-26.5 42t-40.5 33t-55.5 14.5q-49 0 -84.5 -33.5t-41.5 -82.5q-5 -45 23.5 -90t78.5 -69l17.5 -8.5t34 -16.5
t21.5 -11z" />
    <glyph glyph-name="T" unicode="T" horiz-adv-x="564" 
d="M31 662h502l30 -139h-17q-10 34 -54.5 81.5t-87.5 47.5h-83v-579q0 -63 72 -64v-9h-223v9q34 0 53 16.5t19 44.5v582h-82q-43 0 -87.5 -47.5t-54.5 -81.5h-17z" />
    <glyph glyph-name="U" unicode="U" horiz-adv-x="592" 
d="M586 652q-70 -2 -73 -65v-380q0 -31 -6 -60t-21 -58t-38 -50t-60 -34t-84 -13q-51 0 -91 14t-65 36.5t-41.5 52t-23 57.5t-6.5 56v380q0 62 -72 64v10h224v-10q-73 -1 -73 -62v-365q-3 -121 47 -172q23 -23 48.5 -33.5t64.5 -10.5q43 0 76.5 15.5t52.5 38.5t31 53
t16 53.5t4 45.5l-1 372q0 63 -72 65v10h163v-10z" />
    <glyph glyph-name="V" unicode="V" horiz-adv-x="619" 
d="M323 0h-18l-251 624q-9 18 -20.5 24t-34.5 6h-7v8h227v-8q-33 1 -51 -12.5t-3 -51.5q15 -40 61 -160.5t83 -221.5l38 -101q173 445 187 485q22 62 -41 62h-7v8h141v-8q-1 -1 -5.5 0t-14 -2t-18.5 -7.5t-19.5 -16.5t-17.5 -29q-14 -36 -71.5 -185.5t-107.5 -281.5z" />
    <glyph glyph-name="W" unicode="W" horiz-adv-x="888" 
d="M754 662h141v-8q-1 -1 -5.5 0t-13.5 -2t-18.5 -7.5t-19.5 -16.5t-17 -29q-15 -36 -72.5 -185.5t-106.5 -281.5l-50 -132h-19l-128 319l-122 -319h-19l-250 624q-9 18 -20.5 24t-34.5 6h-7v8h227v-8q-33 1 -51 -12.5t-3 -51.5l182 -483q44 114 90 231l-115 286
q-9 18 -20.5 24t-33.5 6h-8v8h367v-8q-1 -1 -5.5 0t-14 -2t-18.5 -7.5t-19.5 -16.5t-17.5 -29q-14 -34 -61 -159l125 -333q172 445 187 485q21 62 -41 62h-8v8zM433 590q15 -37 50 -131q47 121 53.5 143.5t-0.5 33.5q-5 8 -20 13t-30 5q-8 0 -13.5 -0.5t-15.5 -2t-15.5 -5.5
t-10.5 -11t-4.5 -18.5t6.5 -26.5z" />
    <glyph glyph-name="X" unicode="X" horiz-adv-x="614" 
d="M618 8v-8h-215v8q7 0 14 2.5t15.5 8.5t7.5 21.5t-13 36.5q-19 30 -145 221q-19 -28 -55 -82l-61 -91.5t-31 -47.5q-19 -29 -12 -48.5t36 -20.5v-8h-133v8q22 0 39 9t24 17.5t19 25.5l166 249l-195 293q-13 17 -20 25.5t-24 17.5t-39 9v8h216v-8q-7 0 -14 -2t-16 -8
t-8.5 -20.5t12.5 -35.5q4 -7 32 -49t63.5 -95t46.5 -69q116 178 137 210q17 24 15 39t-12.5 22t-26.5 8v8h133v-8q-22 0 -38.5 -9t-24 -17.5t-19.5 -25.5q-120 -182 -157 -238q28 -41 78 -117t86 -132l37 -55q12 -17 19 -25.5t24 -17.5t39 -9z" />
    <glyph glyph-name="Y" unicode="Y" horiz-adv-x="561" 
d="M569 662v-8q-22 0 -38.5 -9t-24 -17.5t-19.5 -25.5l-168 -255v-274q1 -63 73 -64v-9h-223v9q33 0 52.5 16t19.5 45v277l-167 255q-13 17 -20 25.5t-24 17.5t-39 9v8h216v-8q-7 0 -14 -2t-16 -8t-8.5 -20.5t12.5 -35.5q4 -7 32 -49t63.5 -95t46.5 -69q116 178 137 210
q17 24 15 39t-12.5 22t-26.5 8v8h133z" />
    <glyph glyph-name="Z" unicode="Z" horiz-adv-x="524" 
d="M1 0v6l438 648h-260q-68 0 -101 -78l-6 -18h-7l22 104h435l-1 -6l-432 -648h253q27 0 50 9t37 21.5t24 25.5t14 22l3 9h8l-18 -95h-459z" />
    <glyph glyph-name="bracketleft" unicode="[" horiz-adv-x="167" 
d="M217 675h-101v-714h101v-66h-167v846h167v-66z" />
    <glyph glyph-name="backslash" unicode="\" horiz-adv-x="449" 
d="M399 0h-87l-262 661h87z" />
    <glyph glyph-name="bracketright" unicode="]" horiz-adv-x="167" 
d="M-51 741h167v-846h-167v66h101v714h-101v66z" />
    <glyph glyph-name="underscore" unicode="_" horiz-adv-x="641" 
d="M590 -100h-540v35h540v-35z" />
    <glyph glyph-name="a" unicode="a" horiz-adv-x="479" 
d="M423 84q0 -19 1 -28.5t4 -22.5t12 -18.5t23 -5.5v-6h-63q-16 0 -29 5t-19 12t-10 14t-4 12l-1 5v38q-15 -40 -66 -70.5t-122 -18.5q-43 7 -83 51t-40 105q0 42 16.5 77t42 55.5t55 31t57.5 10.5q101 0 140 -78v112q0 44 -24 75t-73 31q-25 0 -50.5 -12.5t-44 -30
t-33.5 -35t-22 -29.5l-8 -12l-41 38q25 30 82 60.5t116 30.5q85 0 134.5 -43t49.5 -124v-229zM104 159q8 -36 31.5 -65t52.5 -42t59 -14t54.5 18.5t35.5 56.5v109q-13 40 -45 67.5t-81 27.5q-54 0 -87.5 -48t-19.5 -110z" />
    <glyph glyph-name="b" unicode="b" horiz-adv-x="507" 
d="M259 492q93 0 157.5 -72.5t64.5 -178.5q0 -108 -61 -177.5t-154 -69.5q-61 0 -118 33v2q-13 -26 -41 -26h-96v6q58 0 58 61v556q0 14 -9.5 23.5t-23.5 9.5h-25v6h142v-203q47 30 106 30zM384 240q0 104 -44.5 168.5t-109.5 64.5q-41 0 -77 -25v-399q0 -2 -1 -5l-1 -3
q47 -28 86 -28q36 0 66 23.5t46.5 59.5t25.5 73.5t9 70.5z" />
    <glyph glyph-name="c" unicode="c" horiz-adv-x="470" 
d="M404 165l52 -8q-24 -72 -81 -116.5t-128 -44.5q-92 0 -157 72t-65 174q0 103 65.5 177t156.5 74q36 0 68 -9t52.5 -21.5t35.5 -25.5t21 -21l7 -9l-61 -41q-13 44 -48 78t-75 34q-57 0 -97 -69t-40 -167.5t40.5 -163t103.5 -67.5q54 -2 94.5 36.5t55.5 117.5z" />
    <glyph glyph-name="d" unicode="d" horiz-adv-x="510" 
d="M440 70q0 -61 58 -61v-6h-96q-28 0 -41 26q-60 -35 -121 -35q-93 0 -153.5 70t-60.5 177q0 106 64.5 178.5t157.5 72.5q60 0 109 -31v165q0 14 -9.5 23.5t-23.5 9.5h-25v6h142zM277 473q-66 0 -110 -64.5t-44 -168.5q0 -33 8.5 -70.5t25.5 -73.5t46.5 -59.5t66.5 -23.5
q40 0 87 29q0 1 -0.5 3t-0.5 4l1 397q-38 27 -80 27z" />
    <glyph glyph-name="e" unicode="e" horiz-adv-x="483" 
d="M254 13q40 0 70 15.5t44.5 38t23.5 45t10 38.5l2 15l52 -8q-24 -72 -81 -116.5t-128 -44.5q-92 0 -157 72t-65 174q0 103 65.5 177t156.5 74q53 0 95 -22t66.5 -57t37.5 -75.5t13 -81.5l-349 1v-16q0 -101 36.5 -165t107.5 -64zM247 478q-51 0 -90 -58t-46 -144h260
q0 202 -124 202z" />
    <glyph glyph-name="f" unicode="f" horiz-adv-x="258" 
d="M154 661q-25 -11 -31.5 -36.5t8.5 -50.5q2 -5 9.5 -16t11 -17.5t7 -16t3.5 -18.5v-23h94v-7h-94v-405q0 -14 1.5 -22.5t6.5 -19t17.5 -15.5t32.5 -5v-6h-200v6q58 0 58 61v406h-68v7h68v35q0 17 1.5 33.5t9 41t19.5 42t36 30.5t56 13q29 0 52.5 -8.5t36 -21t21.5 -24.5
t12 -20l3 -9l-50 -24q-10 51 -48.5 78t-72.5 12z" />
    <glyph glyph-name="g" unicode="g" horiz-adv-x="477" 
d="M314 60q87 32 124 -20q31 -44 7 -111q-28 -75 -106 -108q-44 -18 -96 -18q-67 0 -125.5 26t-91.5 73l55 52q2 -6 4.5 -15.5t15.5 -34t30.5 -43t50 -33.5t72.5 -15q86 0 137 66q36 49 25 88q-5 16 -18 23q-8 4 -16 5.5t-18 -1t-17.5 -4.5t-20.5 -8.5l-20 -10t-23.5 -12.5
t-23.5 -13q-35 -20 -72.5 -21.5t-67.5 18t-41.5 64t4.5 116.5q-56 64 -56 151q0 91 60.5 155.5t145.5 64.5q52 0 98 -26l88 41l13 -35l-89 -14q44 -29 70.5 -78.5t26.5 -107.5q0 -91 -60.5 -155.5t-146.5 -64.5q-81 0 -141 60q-18 -75 17 -102t97 -3q12 5 53 25t56 26z
M232 484q-50 0 -85.5 -61.5t-35.5 -148.5t35.5 -148.5t85.5 -61.5t85.5 61.5t35.5 148.5t-35.5 148.5t-85.5 61.5z" />
    <glyph glyph-name="h" unicode="h" horiz-adv-x="532" 
d="M523 9v-6h-103q-16 0 -27.5 11.5t-11.5 27.5v308q0 49 -30.5 87t-85.5 34q-28 -2 -56 -20t-42 -35l-14 -17v-328q0 -14 1.5 -22.5t6.5 -19t17.5 -15.5t32.5 -5v-6h-200v6q58 0 58 61v556q0 14 -9.5 23.5t-23.5 9.5h-25v6h142v-250q2 3 6 8.5t17.5 18.5t29 23.5t40 19
t50.5 8.5q84 0 126.5 -47t42.5 -122v-253q0 -14 1.5 -22.5t6.5 -19t17.5 -15.5t32.5 -5z" />
    <glyph glyph-name="i" unicode="i" horiz-adv-x="224" 
d="M163 603.5q0 -20.5 -14.5 -35t-35 -14.5t-35.5 14.5t-15 35t14.5 35t35.5 14.5t35.5 -14.5t14.5 -35zM213 9v-6h-200v6q58 0 58 61v374q0 13 -9.5 22.5t-23.5 9.5h-25v7h142v-412q0 -14 1.5 -22.5t6.5 -19t17.5 -15.5t32.5 -5z" />
    <glyph glyph-name="j" unicode="j" horiz-adv-x="199" 
d="M152 603.5q0 -20.5 -14 -35t-35 -14.5t-35.5 14.5t-14.5 35t14.5 35t35.5 14.5t35 -14.5t14 -35zM36 476h-25v7h141v-548q0 -49 -33.5 -89t-99.5 -40q-22 0 -41 6t-30.5 14.5t-20 16.5t-11.5 14l-3 6l33 24q1 -3 3.5 -8t10 -17t15.5 -21.5t20 -17t23 -7.5q51 0 51 101
v527q0 13 -10 22.5t-23 9.5z" />
    <glyph glyph-name="k" unicode="k" horiz-adv-x="509" 
d="M503 30l3 -10l-19 -8q-37 -13 -67.5 -8t-51.5 20.5t-36 41.5q-9 15 -43.5 77t-46.5 82q-17 28 -38 35.5t-33 -5.5q-6 -5 -18 -17v-167q0 -14 1.5 -22.5t6.5 -19t17.5 -15.5t32.5 -5v-6h-200v6q58 0 58 61v556q0 14 -9.5 23.5t-23.5 9.5h-25v6h142v-415q18 18 64.5 65.5
t83 84.5t44.5 44t7.5 19.5t-11.5 12.5h-21v7h112v-7h-15q-26 0 -69 -43l-116 -118q21 3 43.5 -13t39.5 -42q11 -18 47.5 -82t49.5 -87q15 -24 29.5 -39.5t25 -20t19 -5.5t13.5 2z" />
    <glyph glyph-name="l" unicode="l" horiz-adv-x="222" 
d="M211 9v-6h-200v6q58 0 58 61v556q0 14 -9.5 23.5t-23.5 9.5h-25v6h142v-594q0 -14 1.5 -22.5t6.5 -19t17.5 -15.5t32.5 -5z" />
    <glyph glyph-name="m" unicode="m" horiz-adv-x="814" 
d="M747 71q0 -14 1 -22.5t6.5 -19t18 -15.5t31.5 -5l1 -6h-103q-16 0 -27.5 11.5t-11.5 27.5l-1 308q0 48 -30 84.5t-85.5 36.5t-103.5 -51q24 -40 24 -96v-253q0 -14 1.5 -22.5t6.5 -19t17.5 -15.5t32.5 -5v-6h-103q-16 0 -27.5 11.5t-11.5 27.5v308q0 49 -30.5 87
t-85.5 34q-28 -2 -56 -20t-42 -35l-14 -17v-328q0 -14 1.5 -22.5t6.5 -19t17.5 -15.5t32.5 -5v-6h-200v6q58 0 58 61v374q0 13 -9.5 23t-23.5 10h-25v6h142v-68q2 3 6 8.5t17.5 18.5t29 23.5t40 19t50.5 8.5q94 0 138 -64q65 64 141 64q85 0 127.5 -47t42.5 -122v-253z" />
    <glyph glyph-name="n" unicode="n" horiz-adv-x="534" 
d="M525 9v-6h-103q-16 0 -27.5 11.5t-11.5 27.5v308q0 49 -30.5 87t-85.5 34q-28 -2 -56 -20t-42 -35l-14 -17v-328q0 -14 1.5 -22.5t6.5 -19t17.5 -15.5t32.5 -5v-6h-200v6q58 0 58 61v374q0 13 -9.5 23t-23.5 10h-25v6h142v-68q2 3 6 8.5t17.5 18.5t29 23.5t40 19
t50.5 8.5q84 0 126.5 -47t42.5 -122v-253q0 -14 1.5 -22.5t6.5 -19t17.5 -15.5t32.5 -5z" />
    <glyph glyph-name="o" unicode="o" horiz-adv-x="514" 
d="M256.5 494q96.5 0 164.5 -73t68 -176t-68 -175.5t-164.5 -72.5t-164.5 72.5t-68 175.5t68 176t164.5 73zM256.5 8q56.5 0 96.5 69.5t40 167.5t-40 167.5t-96.5 69.5t-96.5 -69.5t-40 -167.5t40 -167.5t96.5 -69.5z" />
    <glyph glyph-name="p" unicode="p" horiz-adv-x="541" 
d="M300.5 492q90.5 0 152.5 -72.5t62 -178.5q0 -107 -58.5 -177t-148.5 -70q-27 0 -52 6t-47 18.5t-30.5 18.5t-25.5 19v-167q0 -14 1.5 -22.5t6.5 -19t17.5 -16t32.5 -5.5v-6h-200v6q58 0 58 62v556q0 13 -9.5 22.5t-23.5 9.5h-25v7h142v-61q57 70 147.5 70zM421 240
q0 104 -42.5 168.5t-106.5 64.5q-41 0 -72.5 -23t-46.5 -48v-329q66 -60 126 -60q35 0 64 23.5t45 59.5t24.5 73.5t8.5 70.5z" />
    <glyph glyph-name="q" unicode="q" horiz-adv-x="519" 
d="M531 -176v-6h-73q-29 0 -49 20.5t-20 49.5v169q-15 -12 -19.5 -15t-23.5 -15t-32.5 -17.5t-36 -10.5t-44.5 -5q-90 0 -148.5 70t-58.5 177q0 106 62 178.5t152 72.5q72 0 149 -64l84 55v-596q0 -14 1 -22.5t6.5 -19t18 -16t32.5 -5.5zM268 473q-63 0 -105.5 -64.5
t-42.5 -168.5q0 -33 8.5 -70.5t24.5 -73.5t44.5 -59.5t64.5 -23.5q61 0 127 61v327q-15 24 -46.5 48t-74.5 24z" />
    <glyph glyph-name="r" unicode="r" horiz-adv-x="337" 
d="M279 483q20 0 52 -8v-37q0 -19 -16 -29t-34 -2q-28 13 -51 16t-37.5 -2.5t-23 -12t-14.5 -14.5v-323q0 -14 1.5 -22.5t6.5 -19t17.5 -15.5t32.5 -5v-6h-200v6q58 0 58 61v374q0 13 -9.5 22.5t-23.5 9.5h-25v7h142v-69q9 13 21.5 25.5t42 28t60.5 15.5z" />
    <glyph glyph-name="s" unicode="s" horiz-adv-x="418" 
d="M269 277q126 -48 126 -144q0 -20 -10.5 -43.5t-30.5 -46t-56 -37t-81 -14.5q-42 0 -78 13.5t-56 32.5t-34.5 38t-19.5 32l-5 14l55 33q1 -6 2.5 -15.5t10 -34t21 -44t39 -37t60.5 -20.5q36 -4 66.5 8.5t46.5 34t20.5 45.5t-12 48t-51.5 38q-13 5 -50 20t-73.5 30
t-39.5 16q-45 23 -68 51t-21 70q3 56 50 92.5t124 36.5q36 0 66.5 -9t49 -22t31.5 -26t19 -22l5 -9l-47 -32q-1 4 -3.5 10.5t-12.5 23t-23.5 30.5t-37.5 27t-53 18q-45 6 -73.5 -13t-32.5 -53q-3 -34 21.5 -62.5t54.5 -39.5q87 -33 101 -38z" />
    <glyph glyph-name="t" unicode="t" horiz-adv-x="251" 
d="M242 29l3 -10q-27 -12 -56.5 -16t-57.5 2t-46 30.5t-18 64.5v376h-57v7h10q24 0 45.5 10.5t34 26t22 31t13.5 26.5l4 11h13v-105h85v-7h-85v-379q0 -40 28.5 -60.5t61.5 -7.5z" />
    <glyph glyph-name="u" unicode="u" horiz-adv-x="533" 
d="M461 39h58v-6l-142 -30v65q-1 -3 -4.5 -8t-16.5 -18t-28 -23t-40 -18t-52 -8q-85 0 -127.5 47t-42.5 121v283q0 13 -9.5 22.5t-23.5 9.5h-25v7h142v-347q0 -50 29.5 -86t86.5 -36q22 0 41.5 7t31.5 17.5t21.5 21t12.5 17.5l4 7l1 360q0 13 -10 22.5t-23 9.5h-25v7h141
v-444z" />
    <glyph glyph-name="v" unicode="v" horiz-adv-x="487" 
d="M358 483h129v-8q0 -1 -4.5 0t-13 -2t-17 -7t-18 -15t-16.5 -27l-163 -421h-18l-181 444q-8 17 -19 22.5t-31 5.5h-7v8h210v-8q-31 1 -47.5 -11.5t-2.5 -47.5l119 -318q111 282 125 319q20 58 -38 58h-7v8z" />
    <glyph glyph-name="w" unicode="w" horiz-adv-x="762" 
d="M633 483h1h129v-8q-1 -1 -5 0t-12.5 -2t-17.5 -7t-18.5 -15t-15.5 -26l-164 -422h-18l-132 325l-125 -325h-18l-181 444q-8 17 -19 22.5t-31 5.5h-7v8h210v-8q-31 1 -47.5 -11.5t-2.5 -47.5l119 -318q59 149 96 245l-42 104q-9 17 -19.5 22.5t-31.5 5.5h-7v8h210v-8
q-30 1 -46.5 -11.5t-2.5 -47.5l118 -318q112 282 125 319q21 58 -38 58h-6z" />
    <glyph glyph-name="x" unicode="x" horiz-adv-x="506" 
d="M506 10v-7h-216v7q16 1 25.5 8t11.5 22t-13 40l-96 145l-97 -145q-5 -8 -8 -17t-5 -21.5t7.5 -21t29.5 -10.5v-7h-130v7q23 1 39.5 9.5t24.5 18t22 30.5q2 2 111 166l-126 188q-13 17 -20 25.5t-24 17.5t-39 10v8h216v-9q-7 0 -14 -2t-16 -8t-8.5 -20.5t12.5 -35.5
q4 -7 14 -21.5t25.5 -37.5t28.5 -41q42 65 63 97q17 24 15 39t-12.5 22.5t-26.5 7.5v9h130v-8q-23 -1 -39.5 -10t-24.5 -18t-22 -30l-11.5 -17.5t-30.5 -47t-36 -53.5l157 -236q12 -17 19.5 -26t24.5 -17.5t39 -9.5z" />
    <glyph glyph-name="y" unicode="y" horiz-adv-x="487" 
d="M358 483h129v-8q0 -1 -4.5 0t-13 -2t-17 -7t-18 -15t-16.5 -27q-48 -117 -195 -500q-41 -105 -104 -116q-55 -10 -91 32l-2 3l40 56q21 -27 47 -37t54 6.5t47 61.5q5 11 11 27.5l10 27.5l5 12l-184 450q-8 17 -19 22.5t-31 5.5h-7v8h210v-8q-31 1 -47.5 -11.5t-2.5 -47.5
q6 -15 123 -310q116 298 121 311q20 58 -38 58h-7v8z" />
    <glyph glyph-name="z" unicode="z" horiz-adv-x="417" 
d="M265 11q27 0 50.5 9t37 21.5t23.5 25.5t14 21l4 9h7l-18 -94h-373v6l77 116.5t154 232.5l78 116h-164q-68 0 -100 -78l-7 -18h-7l22 105h338v-7l-303 -465h167z" />
    <glyph glyph-name="braceleft" unicode="{" horiz-adv-x="237" 
d="M291 730q-4 1 -11 1t-24.5 -1.5t-31.5 -6.5t-25 -18.5t-11 -34.5v-112q-1 -2 0.5 -21t-3 -51.5t-11 -64t-24.5 -58t-43 -33.5q23 -6 39.5 -26.5t24 -46.5t12 -51t5.5 -42v-17v-154q0 -20 10.5 -34t26 -19t30.5 -7t26 -1l10 1v-38h-48q-33 0 -58.5 16t-38 40t-18.5 47
t-6 44q0 122 -2 148q-1 28 -11 51t-23 35.5t-25.5 21.5t-20.5 11l-9 3v29q3 1 9 3.5t20.5 12.5t26 23t22 37t11.5 52q2 26 2 148q0 21 6 44t18.5 47t38 40t58.5 16h48v-34z" />
    <glyph glyph-name="verticalbar" unicode="|" horiz-adv-x="169" 
d="M119 -110h-69v851h69v-851z" />
    <glyph glyph-name="braceright" unicode="}" horiz-adv-x="237" 
d="M116 469q2 -28 11.5 -51t22.5 -35.5t25.5 -21.5t21.5 -11l8 -3v-29q-3 -1 -8.5 -3.5t-20.5 -12.5t-26.5 -23t-21.5 -37t-12 -52q-1 -26 -1 -148q0 -21 -6 -44t-19 -47t-38 -40t-59 -16h-48v34q4 -1 11 -1t25 1.5t31.5 6.5t24.5 18.5t11 34.5v112q2 2 0 21t2.5 51.5t11 64
t24.5 58t43 33.5q-22 6 -39 26.5t-24.5 46.5t-12 51t-4.5 42l-1 17v154q0 20 -10.5 34t-25.5 19t-30.5 7t-25.5 1l-11 -1v38h48q34 0 59 -16t38 -40t19 -47t6 -44q0 -122 1 -148z" />
    <glyph glyph-name="nonbreakingspace" unicode="&#xa0;" horiz-adv-x="314" 
 />
    <glyph glyph-name="exclamdown" unicode="&#xa1;" horiz-adv-x="180" 
d="M103 399l38 -499h-102l37 499h27zM90 473q-19 0 -33 13.5t-14 33t14 33t33 13.5t32.5 -13.5t13.5 -33t-13.5 -33t-32.5 -13.5z" />
    <glyph glyph-name="cent" unicode="&#xa2;" horiz-adv-x="477" 
d="M174 14q-20 10 -39.5 24.5t-43.5 40t-38.5 66.5t-14.5 89q0 105 71 175q81 82 203 70l52 175l30 -9l-50 -171q20 -3 44.5 -12.5t39.5 -18.5l14 -8l-7 -30q-5 4 -13.5 12t-33.5 22.5t-49 17.5l-127 -428q29 -11 57 -11t53.5 8t44.5 18t31 18l11 8v-48q-3 -2 -9.5 -5.5
t-28 -10.5t-44 -11t-56.5 -3t-67 10l-51 -171l-31 9zM182 40l124 420q-55 0 -99 -24.5t-69 -63.5t-36 -87.5t-6 -95t27 -87t59 -62.5z" />
    <glyph glyph-name="sterling" unicode="&#xa3;" horiz-adv-x="519" 
d="M472 78l14 -47q-3 -3 -8.5 -7.5t-26 -12.5t-44.5 -10.5t-64 4t-84 26.5q-37 15 -71.5 18t-58.5 -4.5t-42 -17.5t-27 -18l-9 -9l-14 30q3 2 8.5 7t20 22t27 35t25.5 44.5t19.5 53.5t5.5 60.5t-14 65.5h-84l1 32h72q-14 46 -19 69q-15 61 0.5 117t58.5 91t103 35
q161 0 211 -160l-77 -16q0 4 -1 9.5t-5 22.5t-10 32.5t-16.5 34.5t-23.5 32.5t-33 23t-43 9.5q-46 0 -74.5 -28.5t-32 -72.5t12.5 -97q25 -71 33 -102h95l-1 -32h-85q37 -109 -107 -258q3 2 9.5 4t26.5 5.5t39.5 5t47 -1.5t51.5 -12q62 -19 105 -15t66 18z" />
    <glyph glyph-name="yen" unicode="&#xa5;" horiz-adv-x="573" 
d="M326 296v-61h159v-32h-159v-34h159v-32h-159v-137h-83v137h-150v32h150v34h-150v32h150v58l-220 369h95l195 -337l206 337h29z" />
    <glyph glyph-name="section" unicode="&#xa7;" horiz-adv-x="467" 
d="M423 352q0 -52 -29.5 -95.5t-86.5 -61.5q50 -30 74 -61t24 -78q0 -70 -49.5 -118.5t-134.5 -48.5q-13 0 -30 2.5t-47 11t-57.5 30.5t-43.5 54l13 19q15 -30 39.5 -51t51.5 -29t43.5 -10.5t30.5 -2.5q11 0 23 1.5t29 7.5t29 16t21 29.5t9 45.5q0 32 -26.5 62t-101.5 64
q-89 42 -125 75t-36 91q0 12 1.5 25t9.5 34t20.5 38t38 33.5t59.5 23.5q-26 14 -42.5 24.5t-34 27.5t-26 39t-8.5 51q0 76 52 117.5t124 41.5q14 0 31 -2.5t45 -11.5t53.5 -31.5t40.5 -55.5l-14 -19q-14 32 -37.5 53.5t-48.5 29.5t-40.5 10.5t-27.5 2.5q-19 0 -36 -3
t-36 -11.5t-30.5 -28t-11.5 -46.5q0 -36 25.5 -57t99.5 -58l23 -12q88 -44 119 -82t31 -86zM211 440q-19 -1 -35.5 -5t-33 -13t-26 -27.5t-9.5 -43.5q0 -36 26 -57t99 -58l23 -12q5 -2 21 -11q75 18 75 96q0 19 -9 36t-20 28.5t-33 25t-36.5 21t-41.5 20.5z" />
    <glyph glyph-name="copyright" unicode="&#xa9;" horiz-adv-x="731" 
d="M181 340q0 86 57.5 143.5t143.5 57.5q62 0 105 -28v-50q-2 2 -5.5 6.5t-15.5 15.5t-24 19.5t-30 15.5t-36 7q-58 0 -97.5 -53t-39.5 -134q0 -51 13 -89t33 -57.5t40 -29t40 -9.5q22 0 43 8.5t34.5 21t24 24.5t15.5 20l5 9l23 -32q-3 -3 -7 -7.5t-19 -16t-30.5 -20.5
t-39.5 -16t-49 -7q-73 0 -128.5 57t-55.5 144zM365.5 654q88.5 0 163 -43.5t118.5 -118.5t44 -163t-44 -163t-118.5 -119t-163 -44t-163.5 44t-118.5 119t-43.5 163t43.5 163t118.5 118.5t163.5 43.5zM365.5 27q124.5 0 213 88.5t88.5 213.5t-88.5 213.5t-213 88.5
t-213 -88.5t-88.5 -213.5t88.5 -213.5t213 -88.5z" />
    <glyph glyph-name="guillemotleft" unicode="&#xab;" horiz-adv-x="393" 
d="M239 302l120 -192h-73l-120 192l120 192h72zM225 494l-119 -192l120 -192h-73l-120 192l120 192h72z" />
    <glyph glyph-name="softhyphen" unicode="&#xad;" horiz-adv-x="0" 
 />
    <glyph glyph-name="registered" unicode="&#xae;" horiz-adv-x="501" 
d="M250 652q87 0 149 -62t62 -149t-62 -149t-149 -62t-149 62t-62 149t62 149t149 62zM250 250q79 0 135.5 56t56.5 135t-56.5 135.5t-135.5 56.5t-135 -56.5t-56 -135.5t56 -135t135 -56zM242 410q9 -16 44 -44.5t64 -41.5l-20 -30q-43 17 -97 115h-11h-25q-4 0 -4 -5v-111
h-33v291h87q47 0 69.5 -24.5t22.5 -57.5q0 -40 -25.5 -64t-71.5 -28zM223 416q39 0 60.5 19.5t21.5 56.5q0 36 -18.5 61.5t-56.5 25.5h-33q-4 0 -4 -5v-154q0 -4 4 -4h26z" />
    <glyph glyph-name="degree" unicode="&#xb0;" horiz-adv-x="308" 
d="M153 683q50 0 84.5 -35t34.5 -86q0 -53 -34 -87t-85 -34t-84 34t-33 87q0 51 33.5 86t83.5 35zM153 496q28 0 46 18t18 48q0 28 -18.5 47t-45.5 19q-28 0 -45 -18.5t-17 -47.5q0 -30 17 -48t45 -18z" />
    <glyph glyph-name="periodcentered" unicode="&#xb7;" horiz-adv-x="172" 
d="M84.5 333q23.5 0 39.5 -16.5t16 -40.5q0 -25 -15.5 -40.5t-39.5 -15.5t-39 15.5t-15 40.5q0 24 15 40.5t38.5 16.5z" />
    <glyph glyph-name="guillemotright" unicode="&#xbb;" horiz-adv-x="392" 
d="M238 494l120 -192l-120 -192h-72l119 192l-120 192h73zM106 494l119 -192l-120 -192h-72l119 192l-120 192h74z" />
    <glyph glyph-name="questiondown" unicode="&#xbf;" horiz-adv-x="471" 
d="M449 89q0 -3 -1.5 -13.5t-7 -27.5t-14.5 -36.5t-26 -39.5t-39 -36t-56 -26t-74 -10q-88 0 -144 47t-56 119q0 37 16.5 69.5t41.5 54t54 45t54 43t42 47t17 56.5v32h28v-29q0 -41 -18.5 -76.5t-44.5 -61.5t-52 -51.5t-44.5 -58t-18.5 -69.5q0 -35 13 -67.5t44 -57
t73 -24.5q38 0 65.5 17t41.5 45t20 58t6 62zM270.5 482q-19.5 0 -33 13.5t-13.5 32.5t13.5 32.5t33 13.5t33 -13.5t13.5 -32.5t-13.5 -32.5t-33 -13.5z" />
    <glyph glyph-name="Agrave" unicode="&#xc0;" 
d="M322 703h-33l-108 124h84zM401 9q33 -1 51 12.5t3 51.5q-11 26 -35 91h-299q-35 -90 -39.5 -107.5t2.5 -30.5q11 -17 43 -17h7v-9h-141v9q1 1 5.5 0t13.5 2t18.5 7.5t19.5 16t17 28.5q15 36 72.5 186t107.5 282l49 132h19l251 -624q9 -19 20.5 -24.5t34.5 -5.5h7v-9h-227
v9zM127 179h287q-25 66 -60.5 160t-58.5 155l-22 61q-91 -232 -146 -376z" />
    <glyph glyph-name="Aacute" unicode="&#xc1;" 
d="M434 827l-108 -124h-34l58 124h84zM401 9q33 -1 51 12.5t3 51.5q-11 26 -35 91h-299q-35 -90 -39.5 -107.5t2.5 -30.5q11 -17 43 -17h7v-9h-141v9q1 1 5.5 0t13.5 2t18.5 7.5t19.5 16t17 28.5q15 36 72.5 186t107.5 282l49 132h19l251 -624q9 -19 20.5 -24.5t34.5 -5.5h7
v-9h-227v9zM127 179h287q-25 66 -60.5 160t-58.5 155l-23 61q-90 -232 -145 -376z" />
    <glyph glyph-name="Acircumflex" unicode="&#xc2;" 
d="M301 791l-53 -88h-53l76 124h59l76 -124h-53zM401 9q33 -1 51 12.5t3 51.5q-11 26 -35 91h-299q-35 -90 -39.5 -107.5t2.5 -30.5q11 -17 43 -17h7v-9h-141v9q1 1 5.5 0t13.5 2t18.5 7.5t19.5 16t17 28.5q15 36 72.5 186t107.5 282l49 132h19l251 -624q9 -19 20.5 -24.5
t34.5 -5.5h7v-9h-227v9zM127 179h287q-25 66 -60.5 160t-58.5 155l-23 61q-90 -232 -145 -376z" />
    <glyph glyph-name="Atilde" unicode="&#xc3;" 
d="M240 749q-15 0 -28.5 -8t-20.5 -16l-6 -8v49q2 3 6.5 7t22 11t37.5 7q22 0 54.5 -14.5t51.5 -14.5q11 0 24.5 7t21.5 15l8 7v-47q-18 -15 -30 -19t-39 -4q-16 0 -50.5 14t-51.5 14zM401 9q33 -1 51 12.5t3 51.5q-11 26 -35 91h-299q-35 -90 -39.5 -107.5t2.5 -30.5
q11 -17 43 -17h7v-9h-141v9q1 1 5.5 0t13.5 2t18.5 7.5t19.5 16t17 28.5q15 36 72.5 186t107.5 282l49 132h19l251 -624q9 -19 20.5 -24.5t34.5 -5.5h7v-9h-227v9zM127 179h287q-25 66 -60.5 160t-58.5 155l-23 61q-90 -232 -145 -376z" />
    <glyph glyph-name="Adieresis" unicode="&#xc4;" 
d="M249.5 703q-19.5 0 -32 13t-12.5 34q0 20 12.5 33.5t32 13.5t32.5 -13.5t13 -33.5q0 -21 -13 -34t-32.5 -13zM370 703q-20 0 -32.5 13t-12.5 34q0 20 12.5 33.5t32.5 13.5t33 -13.5t13 -33.5q0 -21 -13 -34t-33 -13zM401 9q33 -1 51 12.5t3 51.5q-11 26 -35 91h-299
q-35 -90 -39.5 -107.5t2.5 -30.5q11 -17 43 -17h7v-9h-141v9q1 1 5.5 0t13.5 2t18.5 7.5t19.5 16t17 28.5q15 36 72.5 186t107.5 282l49 132h19l251 -624q9 -19 20.5 -24.5t34.5 -5.5h7v-9h-227v9zM127 179h287q-25 66 -60.5 160t-58.5 155l-23 61q-90 -232 -145 -376z" />
    <glyph glyph-name="Aring" unicode="&#xc5;" 
d="M310.5 680q-33.5 0 -57 23.5t-23.5 57t23.5 57t57 23.5t57 -23.5t23.5 -57t-23.5 -57t-57 -23.5zM310 802q-17 0 -29 -12t-12 -29t12 -29.5t29 -12.5t29.5 12.5t12.5 29.5t-12.5 29t-29.5 12zM401 9q33 -1 51 12.5t3 51.5q-11 26 -35 91h-299q-35 -90 -39.5 -107.5
t2.5 -30.5q11 -17 43 -17h7v-9h-141v9q1 1 5.5 0t13.5 2t18.5 7.5t19.5 16t17 28.5q15 36 72.5 186t107.5 282l49 132h19l251 -624q9 -19 20.5 -24.5t34.5 -5.5h7v-9h-227v9zM127 179h287q-25 66 -60.5 160t-58.5 155l-23 61q-90 -232 -145 -376z" />
    <glyph glyph-name="AE" unicode="&#xc6;" horiz-adv-x="728" 
d="M698 140h17l-30 -140h-441v9q36 0 53 20t19 62v74h-195q-35 -90 -39.5 -107.5t2.5 -30.5q11 -17 43 -17h7v-9h-141v9q1 1 5.5 0t13.5 2t18.5 7.5t19.5 16.5t17 28q31 75 221 578q-16 10 -42 11v10h416l30 -139h-17q-9 34 -54 81t-88 47h-136v-294h85q30 0 47 28t18 66h16
v-202h-16q-1 38 -17.5 65.5t-46.5 27.5h-86v-334h159q30 0 56.5 15t43.5 38t27 42.5t15 35.5zM316 180l2 391q-1 40 -16 59q-145 -371 -175 -450h189z" />
    <glyph glyph-name="Ccedilla" unicode="&#xc7;" horiz-adv-x="593" 
d="M325 -8q-2 0 -6 0.5t-5 0.5l-4 -34q3 0 8 -2t17 -9t21 -16t14.5 -24.5t2.5 -33.5q-5 -23 -21 -37.5t-36.5 -19t-40 -5t-32.5 1.5l-13 2l3 38q4 0 10.5 -1t23 -1.5t29.5 1.5t24.5 9t13.5 19q4 19 -14 32.5t-37 17.5l-20 4l8 63q-48 10 -92 36t-79 67t-56 100.5t-21 130.5
q0 69 20.5 127t53 96.5t73.5 65.5t80 38.5t75 11.5q37 0 74 -10t63 -25t46.5 -29.5t30.5 -25.5l10 -10l-62 -131l-14 6q13 33 7 70.5t-22.5 69.5t-49.5 53.5t-72 21.5q-48 0 -86.5 -20.5t-63 -53t-41 -76t-23.5 -88t-7 -90.5q0 -145 66.5 -236t158.5 -91q41 0 81 34
t64.5 76.5t34.5 80.5l61 -25q-10 -27 -29 -54.5t-49 -57.5t-77 -49t-101 -19z" />
    <glyph glyph-name="Egrave" unicode="&#xc8;" horiz-adv-x="495" 
d="M299 703h-34l-108 124h84zM464 140h17l-30 -140h-441v9q36 0 53 20t19 62l2 480q-1 42 -18 61.5t-54 19.5v10l416 1l30 -139h-17q-9 34 -54 81t-88 47h-136v-294h85q30 0 47 28t18 66h16v-202h-16q-1 38 -17.5 65.5t-46.5 27.5h-86v-334h159q30 0 56.5 15t43.5 38
t27 42.5t15 35.5z" />
    <glyph glyph-name="Eacute" unicode="&#xc9;" horiz-adv-x="495" 
d="M361 827l-107 -124h-34l57 124h84zM464 140h17l-30 -140h-441v9q36 0 53 20t19 62l2 480q-1 42 -18 61.5t-54 19.5v10l416 1l30 -139h-17q-9 34 -54 81t-88 47h-136v-294h85q30 0 47 28t18 66h16v-202h-16q-1 38 -17.5 65.5t-46.5 27.5h-86v-334h159q30 0 56.5 15
t43.5 38t27 42.5t15 35.5z" />
    <glyph glyph-name="Ecircumflex" unicode="&#xca;" horiz-adv-x="495" 
d="M245 791l-52 -89h-53l76 124h59l76 -124h-53zM464 140h17l-30 -140h-441v9q36 0 53 20t19 62l2 480q-1 42 -18 61.5t-54 19.5v10l416 1l30 -139h-17q-9 34 -54 81t-88 47h-136v-294h85q30 0 47 28t18 66h16v-202h-16q-1 38 -17.5 65.5t-46.5 27.5h-86v-334h159
q30 0 56.5 15t43.5 38t27 42.5t15 35.5z" />
    <glyph glyph-name="Edieresis" unicode="&#xcb;" horiz-adv-x="495" 
d="M187.5 703q-19.5 0 -32 13t-12.5 34q0 20 12.5 33.5t32 13.5t33 -13.5t13.5 -33.5q0 -21 -13.5 -34t-33 -13zM308 703q-20 0 -32.5 13t-12.5 34q0 20 13 33.5t32.5 13.5t32.5 -13.5t13 -33.5q0 -21 -13 -34t-33 -13zM464 140h17l-30 -140h-441v9q36 0 53 20t19 62l2 480
q-1 42 -18 61.5t-54 19.5v10l416 1l30 -139h-17q-9 34 -54 81t-88 47h-136v-294h85q30 0 47 28t18 66h16v-202h-16q-1 38 -17.5 65.5t-46.5 27.5h-86v-334h159q30 0 56.5 15t43.5 38t27 42.5t15 35.5z" />
    <glyph glyph-name="Igrave" unicode="&#xcc;" horiz-adv-x="223" 
d="M136 703h-34l-107 124h84zM201 652q-50 0 -50 -63v-517q0 -63 50 -63h4v-9h-189v9h5q50 0 50 63v517q0 63 -50 63h-5v11h189v-11h-4z" />
    <glyph glyph-name="Iacute" unicode="&#xcd;" horiz-adv-x="222" 
d="M244 827l-108 -124h-33l57 124h84zM16 652v11h189v-11h-4q-50 0 -50 -63v-517q0 -63 50 -63h4v-9h-189v9h5q50 0 50 63v517q0 63 -50 63h-5z" />
    <glyph glyph-name="Icircumflex" unicode="&#xce;" horiz-adv-x="223" 
d="M110 791l-52 -88h-53l76 124h59l76 -124h-53zM17 652v11h189v-11h-5q-50 0 -50 -63v-517q0 -63 50 -63h5v-9h-189v9h5q49 0 49 63v517q0 63 -50 63h-4z" />
    <glyph glyph-name="Idieresis" unicode="&#xcf;" horiz-adv-x="223" 
d="M169 703q-20 0 -32.5 13t-12.5 34q0 20 13 33.5t32.5 13.5t32.5 -13.5t13 -33.5q0 -21 -13 -34t-33 -13zM49 703q-20 0 -32.5 13t-12.5 34q0 20 12.5 33.5t32 13.5t33 -13.5t13.5 -33.5q0 -21 -13 -34t-33 -13zM16 652v11h189v-11h-4q-50 0 -50 -63v-517q0 -63 50 -63h4
v-9h-189v9h5q50 0 50 63v517q0 63 -50 63h-5z" />
    <glyph glyph-name="Ntilde" unicode="&#xd1;" horiz-adv-x="581" 
d="M233 749q-15 0 -28.5 -8.5t-20.5 -16.5l-6 -8v49q2 3 6.5 7t22 11t37.5 7q22 0 54.5 -14.5t51.5 -14.5q11 0 24.5 7.5t21.5 14.5l8 7v-47q-18 -15 -30 -19t-39 -4q-16 0 -51 14.5t-51 14.5zM439 664h127v-11h-5q-50 0 -50 -93v-559h-17l-406 609v-533q0 -13 1 -21
t5 -20.5t15 -19t29 -6.5h5v-9h-127v9h5q50 0 50 63v517q0 63 -50 63h-5v11h146l332 -499v395q0 93 -50 93h-5v11z" />
    <glyph glyph-name="Ograve" unicode="&#xd2;" horiz-adv-x="682" 
d="M381 703h-33l-108 124h84zM343 666q58 0 114 -22t101.5 -63t73 -105.5t27.5 -142.5q0 -66 -20 -122t-52 -94t-72.5 -65t-81 -39.5t-78.5 -12.5l-25 -1q-56 0 -110.5 22.5t-98.5 63t-71 105t-27 143.5t27.5 143.5t73 105t102 62.5t117.5 22zM341 14q58 0 109 43.5
t80.5 117t29.5 158.5q0 135 -63.5 227.5t-155.5 92.5t-155.5 -93t-63.5 -227q0 -73 28.5 -146.5t80.5 -123t110 -49.5z" />
    <glyph glyph-name="Oacute" unicode="&#xd3;" horiz-adv-x="682" 
d="M443 827l-108 -124h-34l58 124h84zM343 666q58 0 114 -22t101.5 -63t73 -105.5t27.5 -142.5q0 -66 -20 -122t-52 -94t-72.5 -65t-81 -39.5t-78.5 -12.5l-25 -1q-56 0 -110.5 22.5t-98.5 63t-71 105t-27 143.5t27.5 143.5t73 105t102 62.5t117.5 22zM341 14q58 0 109 43.5
t80.5 117t29.5 158.5q0 135 -63.5 227.5t-155.5 92.5t-155.5 -93t-63.5 -227q0 -73 28.5 -146.5t80.5 -123t110 -49.5z" />
    <glyph glyph-name="Ocircumflex" unicode="&#xd4;" horiz-adv-x="682" 
d="M341 791l-52 -88h-54l76 124h60l75 -124h-53zM343 666q58 0 114 -22t101.5 -63t73 -105.5t27.5 -142.5q0 -66 -20 -122t-52 -94t-72.5 -65t-81 -39.5t-78.5 -12.5l-25 -1q-56 0 -110.5 22.5t-98.5 63t-71 105t-27 143.5t27.5 143.5t73 105t102 62.5t117.5 22zM341 14
q58 0 109 43.5t80.5 117t29.5 158.5q0 135 -63.5 227.5t-155.5 92.5t-155.5 -93t-63.5 -227q0 -73 28.5 -146.5t80.5 -123t110 -49.5z" />
    <glyph glyph-name="Otilde" unicode="&#xd5;" horiz-adv-x="682" 
d="M283 749q-15 0 -28.5 -8.5t-19.5 -16.5l-7 -8v49q2 3 7 7t22 11t37 7q22 0 54.5 -14.5t51.5 -14.5q11 0 24.5 7.5t21.5 14.5l8 7v-47q-17 -15 -29.5 -19t-38.5 -4q-17 0 -51.5 14.5t-51.5 14.5zM343 666q58 0 114 -22t101.5 -63t73 -105.5t27.5 -142.5q0 -66 -20 -122
t-52 -94t-72.5 -65t-81 -39.5t-78.5 -12.5l-25 -1q-56 0 -110.5 22.5t-98.5 63t-71 105t-27 143.5t27.5 143.5t73 105t102 62.5t117.5 22zM341 14q58 0 109 43.5t80.5 117t29.5 158.5q0 135 -63.5 227.5t-155.5 92.5t-155.5 -93t-63.5 -227q0 -73 28.5 -146.5t80.5 -123
t110 -49.5z" />
    <glyph glyph-name="Odieresis" unicode="&#xd6;" horiz-adv-x="682" 
d="M280 703q-20 0 -32.5 13t-12.5 34q0 20 13 33.5t32.5 13.5t32.5 -13.5t13 -33.5q0 -21 -13 -34t-33 -13zM400.5 703q-19.5 0 -32 13t-12.5 34q0 20 12.5 33.5t32 13.5t33 -13.5t13.5 -33.5q0 -21 -13.5 -34t-33 -13zM343 666q58 0 114 -22t101.5 -63t73 -105.5
t27.5 -142.5q0 -66 -20 -122t-52 -94t-72.5 -65t-81 -39.5t-78.5 -12.5l-25 -1q-56 0 -110.5 22.5t-98.5 63t-71 105t-27 143.5t27.5 143.5t73 105t102 62.5t117.5 22zM341 14q58 0 109 43.5t80.5 117t29.5 158.5q0 135 -63.5 227.5t-155.5 92.5t-155.5 -93t-63.5 -227
q0 -73 28.5 -146.5t80.5 -123t110 -49.5z" />
    <glyph glyph-name="multiply" unicode="&#xd7;" horiz-adv-x="469" 
d="M435 451l-154 -154l140 -140l-29 -29l-140 140l-158 -158l-61 61l158 158l-140 139l29 30l140 -140l154 154z" />
    <glyph glyph-name="Oslash" unicode="&#xd8;" horiz-adv-x="694" 
d="M668 652l-83 -93q80 -92 80 -227q0 -66 -20 -122t-51.5 -94t-72 -65t-81.5 -39.5t-79 -12.5h-24q-109 0 -194 71l-81 -90l-36 32l83 92q-80 91 -80 228q0 79 27.5 143.5t73 105t102 62.5t117.5 22q112 0 201 -73l82 92zM128 332q0 -83 38 -165l344 381q-30 49 -72.5 76.5
t-90.5 27.5q-92 0 -155.5 -92.5t-63.5 -227.5zM347 13q59 0 109.5 43.5t80.5 117t30 158.5q0 93 -33 170l-344 -381q31 -49 72 -78.5t85 -29.5z" />
    <glyph glyph-name="Ugrave" unicode="&#xd9;" horiz-adv-x="591" 
d="M334 703h-33l-108 124h84zM585 653q-69 -1 -72 -65v-379q0 -32 -6 -61t-21 -57.5t-38 -50t-60 -34.5t-84 -13q-51 0 -91 14.5t-65 36.5t-41.5 51.5t-23 57.5t-6.5 57v379q0 63 -72 64v11h224v-11q-73 -1 -73 -62v-365q-3 -121 47 -172q23 -23 48.5 -33.5t64.5 -10.5
q43 0 76.5 16t52.5 38.5t31 52.5t16 54t4 45l-1 372q0 64 -72 65v11h162v-11z" />
    <glyph glyph-name="Uacute" unicode="&#xda;" horiz-adv-x="591" 
d="M450 827l-107 -124h-34l58 124h83zM585 653q-69 -1 -72 -65v-379q0 -32 -6 -61t-21 -57.5t-38 -50t-60 -34.5t-84 -13q-51 0 -91 14.5t-65 36.5t-41.5 51.5t-23 57.5t-6.5 57v379q0 63 -72 64v11h224v-11q-73 -1 -73 -62v-365q-3 -121 47 -172q23 -23 48.5 -33.5
t64.5 -10.5q43 0 76.5 16t52.5 38.5t31 52.5t16 54t4 45l-1 372q0 64 -72 65v11h162v-11z" />
    <glyph glyph-name="Ucircumflex" unicode="&#xdb;" horiz-adv-x="591" 
d="M305 791l-53 -88h-53l76 123h59l76 -123h-53zM585 653q-69 -1 -72 -65v-379q0 -32 -6 -61t-21 -57.5t-38 -50t-60 -34.5t-84 -13q-51 0 -91 14t-65 36.5t-41.5 52t-23 57.5t-6.5 57v379q0 63 -72 64v11h224v-11q-73 -1 -73 -62v-365q-3 -121 47 -172q23 -23 48.5 -33.5
t64.5 -10.5q43 0 76.5 16t52.5 38.5t31 52.5t16 54t4 45l-1 372q0 64 -72 65v11h162v-11z" />
    <glyph glyph-name="Udieresis" unicode="&#xdc;" horiz-adv-x="591" 
d="M253 702q-20 0 -32.5 13t-12.5 34q0 20 13 33t32.5 13t32.5 -13.5t13 -32.5q0 -21 -13 -34t-33 -13zM374 702q-20 0 -32.5 13t-12.5 34q0 20 12.5 33t32 13t33 -13.5t13.5 -32.5q0 -21 -13 -34t-33 -13zM585 653q-69 -1 -72 -65v-379q0 -32 -6 -61t-21 -57.5t-38 -50
t-60 -34.5t-84 -13q-51 0 -91 14t-65 36.5t-41.5 52t-23 57.5t-6.5 57v379q0 63 -72 64v11h224v-11q-73 -1 -73 -62v-365q-3 -121 47 -172q23 -23 48.5 -33.5t64.5 -10.5q43 0 76.5 16t52.5 38.5t31 52.5t16 54t4 45l-1 372q0 64 -72 65v11h162v-11z" />
    <glyph glyph-name="Yacute" unicode="&#xdd;" horiz-adv-x="561" 
d="M412 825l-108 -123h-34l58 123h84zM569 664v-9q-22 0 -38.5 -9t-24 -17.5t-19.5 -25.5l-168 -255v-274q1 -63 73 -64v-9h-223v9q33 1 52.5 17t19.5 44v277l-167 255q-13 17 -20 25.5t-24 17.5t-39 9v9h216v-9q-7 0 -14 -2t-16 -8t-8.5 -20.5t12.5 -35.5q4 -7 32 -49
t63.5 -95t46.5 -69q116 178 137 210q17 24 15 39t-12.5 22.5t-26.5 7.5v9h133z" />
    <glyph glyph-name="germandbls" unicode="&#xdf;" horiz-adv-x="545" 
d="M528 150q0 -63 -49.5 -108.5t-130.5 -45.5q-16 0 -34 3t-46.5 12.5t-55 34t-43.5 59.5l13 6q7 -15 20 -31t33.5 -33.5t49.5 -29t61 -11.5q40 0 71 23.5t43.5 56t1 69.5t-50.5 62q-7 5 -49.5 30.5t-62.5 38.5q-24 16 -31 40.5t8 53.5q1 3 11 22t24.5 46t28.5 52
q11 19 15 39t-1 40t-18.5 35.5t-40 25t-63.5 9.5q-58 0 -82.5 -42t-24.5 -126v-474h-79v485q0 46 17.5 81.5t45.5 55.5t60 30.5t65 10.5q48 0 84.5 -14.5t57 -37.5t30 -50.5t7 -55t-15.5 -49.5q-47 -84 -57 -103q-6 -13 6 -21q34 -24 67.5 -44t49.5 -31.5t33 -29.5
q32 -36 32 -84z" />
    <glyph glyph-name="agrave" unicode="&#xe0;" horiz-adv-x="492" 
d="M303 545h-34l-107 124h83zM434 90q0 -15 0.5 -23t2.5 -20t6 -18t12 -11t20 -5v-6h-64q-17 0 -30 5t-19.5 12t-10.5 14.5t-5 12.5v5v39q-16 -41 -68 -72.5t-125 -19.5q-44 8 -85.5 53t-41.5 108q0 44 17 79.5t43.5 56.5t56.5 32t59 11q103 0 144 -81v116q0 45 -25 77
t-75 32q-26 0 -52 -12.5t-45 -30.5t-34.5 -36t-22.5 -31l-8 -13l-42 40q25 31 84 62t119 31q87 0 138 -44t51 -128v-235zM346 120v112q-14 41 -47 69.5t-82 28.5q-56 0 -90.5 -49.5t-20.5 -113.5q9 -37 32.5 -66.5t54 -43t61 -14.5t56 19t36.5 58z" />
    <glyph glyph-name="aacute" unicode="&#xe1;" horiz-adv-x="492" 
d="M343 669l-107 -124h-34l57 124h84zM434 325v-235q0 -15 0.5 -23t2.5 -20t6 -18t12 -11t20 -5v-6h-64q-17 0 -30 5t-19.5 12t-10.5 14.5t-5 12.5v5v39q-16 -41 -68 -72t-125 -19q-44 7 -85.5 52t-41.5 108q0 44 17 79.5t43.5 56.5t56.5 32.5t59 11.5q103 0 144 -82v116
q0 45 -25 77t-75 32q-26 0 -52 -12.5t-45 -30.5t-34.5 -36t-22.5 -31l-8 -13l-42 40q25 31 84 62t119 31q87 0 138 -44t51 -128zM346 120v112q-14 41 -46.5 69.5t-82.5 28.5q-56 0 -90.5 -49.5t-20.5 -113.5q9 -37 32.5 -66.5t54 -43t61 -14.5t56 19t36.5 58z" />
    <glyph glyph-name="acircumflex" unicode="&#xe2;" horiz-adv-x="492" 
d="M251 634l-53 -89h-53l76 124h59l76 -124h-53zM434 90q0 -15 0.5 -23t2.5 -20t6 -18t12 -11t20 -5v-6h-64q-17 0 -30 5t-19.5 12t-10.5 14.5t-5 12.5v5v39q-16 -41 -68 -72t-125 -19q-44 7 -85.5 52t-41.5 108q0 44 17 79.5t43.5 56.5t56.5 32.5t59 11.5q103 0 144 -82
v116q0 45 -25 77t-75 32q-26 0 -52 -12.5t-45 -30.5t-34.5 -36t-22.5 -31l-8 -13l-42 40q25 31 84 62t119 31q87 0 138 -44t51 -128v-235zM346 120v112q-14 41 -47 69.5t-82 28.5q-56 0 -90.5 -49.5t-20.5 -113.5q9 -37 32.5 -66.5t54 -43t61 -14.5t56 19t36.5 58z" />
    <glyph glyph-name="atilde" unicode="&#xe3;" horiz-adv-x="492" 
d="M193 591q-15 0 -29 -8t-20 -16l-6 -8v49q2 3 6.5 7t21.5 11t38 7t53.5 -14.5t52.5 -14.5q10 0 23.5 7t21.5 15l8 7v-47q-17 -15 -29.5 -19t-38.5 -4q-17 0 -51.5 14t-50.5 14zM434 90q0 -15 0.5 -23t2.5 -20t6 -18t12 -11t20 -5v-6h-64q-17 0 -30 5t-19.5 12t-10.5 14.5
t-5 12.5v5v39q-16 -41 -68 -72t-125 -19q-44 7 -85.5 52t-41.5 108q0 44 17 79.5t43.5 56.5t56.5 32.5t59 11.5q103 0 144 -82v116q0 45 -25 77t-75 32q-26 0 -52 -12.5t-45 -30.5t-34.5 -36t-22.5 -31l-8 -13l-42 40q25 31 84 62t119 31q87 0 138 -44t51 -128v-235z
M346 120v112q-14 41 -47 69.5t-82 28.5q-56 0 -90.5 -49.5t-20.5 -113.5q9 -37 32.5 -66.5t54 -43t61 -14.5t56 19t36.5 58z" />
    <glyph glyph-name="adieresis" unicode="&#xe4;" horiz-adv-x="492" 
d="M180 545q-20 0 -32.5 13t-12.5 34q0 20 12.5 33.5t32.5 13.5t33 -13.5t13 -33.5t-13 -33.5t-33 -13.5zM300.5 545q-19.5 0 -32 13t-12.5 34q0 20 12.5 33.5t32 13.5t32.5 -13.5t13 -33.5t-13 -33.5t-32.5 -13.5zM434 90q0 -15 0.5 -23t2.5 -20t6 -18t12 -11t20 -5v-6h-64
q-17 0 -30 5t-19.5 12t-10.5 14.5t-5 12.5v5v39q-16 -41 -68 -72t-125 -19q-44 7 -85.5 52t-41.5 108q0 44 17 79.5t43.5 56.5t56.5 32.5t59 11.5q103 0 144 -82v116q0 45 -25 77t-75 32q-26 0 -52 -12.5t-45 -30.5t-34.5 -36t-22.5 -31l-8 -13l-42 40q25 31 84 62t119 31
q87 0 138 -44t51 -128v-235zM346 120v112q-14 41 -47 69.5t-82 28.5q-56 0 -90.5 -49.5t-20.5 -113.5q9 -37 32.5 -66.5t54 -43t61 -14.5t56 19t36.5 58z" />
    <glyph glyph-name="aring" unicode="&#xe5;" horiz-adv-x="492" 
d="M241 522q-33 0 -57 23.5t-24 57t24 57.5t57 24t57 -24t24 -57.5t-24 -57t-57 -23.5zM241 644q-17 0 -29 -12t-12 -29t12 -29.5t29 -12.5t29 12.5t12 29.5t-12 29t-29 12zM434 90q0 -15 0.5 -23t2.5 -20t6 -18t12 -11t20 -5v-6h-64q-17 0 -30 5t-19.5 12t-10.5 14.5
t-5 12.5v5v39q-16 -41 -68 -72t-125 -19q-44 7 -85.5 52t-41.5 108q0 44 17 79.5t43.5 56.5t56.5 32.5t59 11.5q103 0 144 -82v116q0 45 -25 77t-75 32q-26 0 -52 -12.5t-45 -30.5t-34.5 -36t-22.5 -31l-8 -13l-42 40q25 31 84 62t119 31q87 0 138 -44t51 -128v-235z
M346 120v112q-14 41 -47 69.5t-82 28.5q-56 0 -90.5 -49.5t-20.5 -113.5q9 -37 32.5 -66.5t54 -43t61 -14.5t56 19t36.5 58z" />
    <glyph glyph-name="ae" unicode="&#xe6;" horiz-adv-x="819" 
d="M589 16q40 0 70 16t44.5 38.5t23.5 45t10 37.5l2 16l52 -9q-24 -71 -81 -116t-128 -45q-84 0 -147 63q4 -49 40 -49v-6h-64q-17 0 -30 5t-19.5 12t-10.5 14.5t-5 12.5v5v39q-16 -41 -68 -72.5t-125 -19.5q-44 8 -85.5 53t-41.5 108q0 44 17 79.5t43.5 56.5t56.5 32t59 11
q103 0 144 -81v116q0 45 -25 77t-75 32q-26 0 -52 -12.5t-45 -30.5t-34.5 -36t-22.5 -31l-8 -13l-42 40q25 31 84 62t119 31q126 0 170 -87q32 40 75 63t92 23q53 0 95 -21.5t66.5 -57t37.5 -75.5t13 -81h-349v-16q0 -101 36.5 -165t107.5 -64zM582 482q-51 0 -89.5 -58
t-46.5 -145h260q0 203 -124 203zM346 120v112q-14 41 -46.5 69.5t-82.5 28.5q-56 0 -90.5 -49.5t-20.5 -113.5q9 -37 32.5 -66.5t54 -43t61 -14.5t56 19t36.5 58z" />
    <glyph glyph-name="ccedilla" unicode="&#xe7;" horiz-adv-x="470" 
d="M455 160q-23 -70 -78.5 -114.5t-125.5 -45.5l-3 -33q3 -1 8 -2.5t17.5 -8.5t21 -16t14 -24.5t2.5 -33.5q-5 -24 -21 -38.5t-36 -18.5t-39.5 -5t-33.5 1l-13 2l3 39q4 -1 10.5 -1.5t23 -1t29.5 1.5t24.5 9t13.5 19q4 19 -14 32.5t-37 17.5l-20 4l8 60q-79 15 -131.5 83.5
t-52.5 159.5q0 102 65.5 176t156.5 74q36 0 68 -8.5t52.5 -21.5t35.5 -25.5t21 -21.5l7 -9l-61 -40q-13 44 -48 78t-75 34q-57 0 -97 -69.5t-40 -167.5t40.5 -162.5t103.5 -67.5q54 -2 94.5 36.5t55.5 117.5z" />
    <glyph glyph-name="egrave" unicode="&#xe8;" horiz-adv-x="483" 
d="M302 545h-34l-108 124h84zM254 16q40 0 70 16t44.5 38.5t23.5 45t10 37.5l2 16l52 -9q-24 -71 -81 -116t-128 -45q-92 0 -157 72.5t-65 174.5t65.5 176t156.5 74q53 0 95 -21.5t66.5 -57t37.5 -75.5t13 -81h-349v-16q0 -101 36.5 -165t107.5 -64zM247 482q-51 0 -90 -58
t-46 -145h260q0 203 -124 203z" />
    <glyph glyph-name="eacute" unicode="&#xe9;" horiz-adv-x="483" 
d="M357 669l-108 -124h-34l58 124h84zM254 16q40 0 70 16t44.5 38.5t23.5 45t10 37.5l2 16l52 -9q-24 -71 -81 -116t-128 -45q-92 0 -157 72.5t-65 174.5t65.5 176t156.5 74q53 0 95 -21.5t66.5 -57t37.5 -75.5t13 -81h-349v-16q0 -101 36.5 -165t107.5 -64zM247 482
q-51 0 -90 -58t-46 -145h260q0 203 -124 203z" />
    <glyph glyph-name="ecircumflex" unicode="&#xea;" horiz-adv-x="483" 
d="M248 633l-52 -89h-53l75 124h60l75 -124h-53zM254 16q40 0 70 16t44.5 38.5t23.5 45t10 37.5l2 16l52 -9q-24 -71 -81 -116t-128 -45q-92 0 -157 72.5t-65 174.5t65.5 176t156.5 74q53 0 95 -21.5t66.5 -57t37.5 -75.5t13 -81h-349v-16q0 -101 36.5 -165t107.5 -64z
M247 482q-51 0 -90 -58t-46 -145h260q0 203 -124 203z" />
    <glyph glyph-name="edieresis" unicode="&#xeb;" horiz-adv-x="483" 
d="M186 545q-20 0 -32.5 13t-12.5 34q0 20 12.5 33.5t32 13.5t33 -13.5t13.5 -33.5t-13 -33.5t-33 -13.5zM306 545q-20 0 -32 13t-12 34q0 20 12.5 33.5t32 13.5t32.5 -13.5t13 -33.5t-13 -33.5t-33 -13.5zM254 16q40 0 70 16t44.5 38.5t23.5 45t10 37.5l2 16l52 -9
q-24 -71 -81 -116t-128 -45q-92 0 -157 72.5t-65 174.5t65.5 176t156.5 74q53 0 95 -21.5t66.5 -57t37.5 -75.5t13 -81h-349v-16q0 -101 36.5 -165t107.5 -64zM247 482q-51 0 -90 -58t-46 -145h260q0 203 -124 203z" />
    <glyph glyph-name="igrave" unicode="&#xec;" horiz-adv-x="224" 
d="M164 545h-34l-108 124h84zM213 12v-6h-200v7q58 0 58 61v374q0 13 -9.5 22.5t-23.5 9.5h-25v6h142v-411q0 -14 1.5 -22.5t6.5 -19t17.5 -16t32.5 -5.5z" />
    <glyph glyph-name="iacute" unicode="&#xed;" horiz-adv-x="225" 
d="M214 669l-107 -124h-34l57 124h84zM155 75q0 -14 1.5 -22.5t6.5 -19t17.5 -15.5t32.5 -5v-7h-200v7q58 0 58 61v374q0 13 -9.5 22.5t-23.5 9.5h-25v6h142v-411z" />
    <glyph glyph-name="icircumflex" unicode="&#xee;" horiz-adv-x="223" 
d="M112 634l-52 -89h-53l76 124h59l76 -124h-53zM154 75q0 -14 1.5 -22.5t7 -19t18 -15.5t31.5 -5v-7h-200v7q58 0 58 61v374q0 13 -9.5 22.5t-22.5 9.5h-26v6h142v-411z" />
    <glyph glyph-name="idieresis" unicode="&#xef;" horiz-adv-x="224" 
d="M172 545q-20 0 -32.5 13t-12.5 34q0 20 13 33.5t32.5 13.5t32.5 -13.5t13 -33.5t-13 -33.5t-33 -13.5zM52 545q-20 0 -32.5 13t-12.5 34q0 20 12.5 33.5t32 13.5t33 -13.5t13.5 -33.5t-13 -33.5t-33 -13.5zM154 75q0 -14 1.5 -22.5t7 -19t18 -15.5t31.5 -5l1 -7h-200v7
q58 0 58 61v374q0 13 -10 22.5t-23 9.5h-25v6h141v-411z" />
    <glyph glyph-name="ntilde" unicode="&#xf1;" horiz-adv-x="534" 
d="M211 591q-15 0 -28.5 -8.5t-20.5 -16.5l-6 -8v49q2 3 7 7.5t22 11t37 6.5q22 0 54.5 -14.5t51.5 -14.5q11 0 24.5 7.5t21.5 14.5l8 7v-47q-18 -15 -30 -19t-38 -4q-17 0 -51.5 14.5t-51.5 14.5zM467 75q0 -14 1.5 -22.5t6.5 -19t17.5 -15.5t32.5 -5v-7h-103
q-16 0 -27.5 12t-11.5 28v307q0 50 -30.5 88t-85.5 34q-28 -2 -56 -20t-42 -35l-14 -18v-327q0 -14 1.5 -22.5t6.5 -19t17.5 -15.5t32.5 -5v-7h-200v7q58 0 58 61v374q0 13 -9.5 22.5t-23.5 9.5h-25v6h142v-67q2 3 6 8t17.5 18.5t29 24t40 19t49.5 8.5q85 0 127.5 -47.5
t42.5 -121.5v-253z" />
    <glyph glyph-name="ograve" unicode="&#xf2;" horiz-adv-x="514" 
d="M283 545h-34l-107 124h83zM256.5 497q96.5 0 164.5 -72.5t68 -175.5t-68 -176t-164.5 -73t-164.5 73t-68 176t68 175.5t164.5 72.5zM256.5 12q56.5 0 96.5 69.5t40 167.5t-40 167.5t-96.5 69.5t-96.5 -69.5t-40 -167.5t40 -167.5t96.5 -69.5z" />
    <glyph glyph-name="oacute" unicode="&#xf3;" horiz-adv-x="514" 
d="M375 669l-108 -124h-33l57 124h84zM256.5 497q96.5 0 164.5 -72.5t68 -175.5t-68 -176t-164.5 -73t-164.5 73t-68 176t68 175.5t164.5 72.5zM256.5 12q56.5 0 96.5 69.5t40 167.5t-40 167.5t-96.5 69.5t-96.5 -69.5t-40 -167.5t40 -167.5t96.5 -69.5z" />
    <glyph glyph-name="ocircumflex" unicode="&#xf4;" horiz-adv-x="514" 
d="M257 634l-53 -89h-53l76 124h59l76 -124h-53zM256.5 497q96.5 0 164.5 -72.5t68 -175.5t-68 -176t-164.5 -73t-164.5 73t-68 176t68 175.5t164.5 72.5zM256.5 12q56.5 0 96.5 69.5t40 167.5t-40 167.5t-96.5 69.5t-96.5 -69.5t-40 -167.5t40 -167.5t96.5 -69.5z" />
    <glyph glyph-name="otilde" unicode="&#xf5;" horiz-adv-x="514" 
d="M199 591q-15 0 -29 -8.5t-20 -16.5l-6 -8v49q2 3 6.5 7.5t21.5 11t38 6.5t53.5 -14.5t52.5 -14.5q10 0 23.5 7.5t21.5 14.5l8 7v-47q-17 -15 -29.5 -19t-38.5 -4q-17 0 -51.5 14.5t-50.5 14.5zM256.5 497q96.5 0 164.5 -72.5t68 -175.5t-68 -176t-164.5 -73t-164.5 73
t-68 176t68 175.5t164.5 72.5zM256.5 12q56.5 0 96.5 69.5t40 167.5t-40 167.5t-96.5 69.5t-96.5 -69.5t-40 -167.5t40 -167.5t96.5 -69.5z" />
    <glyph glyph-name="odieresis" unicode="&#xf6;" horiz-adv-x="514" 
d="M195 545q-20 0 -32.5 13t-12.5 34q0 20 12.5 33.5t32.5 13.5t33 -13.5t13 -33.5t-13 -33.5t-33 -13.5zM315.5 545q-19.5 0 -32 13t-12.5 34q0 20 12.5 33.5t32 13.5t32.5 -13.5t13 -33.5t-13 -33.5t-32.5 -13.5zM256.5 497q96.5 0 164.5 -72.5t68 -175.5t-68 -176
t-164.5 -73t-164.5 73t-68 176t68 175.5t164.5 72.5zM256.5 12q56.5 0 96.5 69.5t40 167.5t-40 167.5t-96.5 69.5t-96.5 -69.5t-40 -167.5t40 -167.5t96.5 -69.5z" />
    <glyph glyph-name="oslash" unicode="&#xf8;" horiz-adv-x="517" 
d="M417 430q74 -74 74 -181q0 -103 -68 -176t-164 -73q-68 0 -125 39l-44 -61l-36 26l46 63q-74 74 -74 182q0 103 68 175.5t165 72.5q67 0 125 -39l44 61l35 -25zM122 249q0 -66 20 -124l212 293q-40 68 -95 68q-57 0 -97 -69.5t-40 -167.5zM259 12q56 0 96 69.5t40 167.5
q0 66 -20 123l-212 -292q40 -68 96 -68z" />
    <glyph glyph-name="ugrave" unicode="&#xf9;" horiz-adv-x="517" 
d="M281 545h-34l-107 124h83zM445 43h58v-6l-142 -30v65q-1 -4 -4.5 -9t-16.5 -18t-28 -22.5t-40 -18t-52 -8.5q-85 0 -127.5 47t-42.5 122v283q0 13 -9.5 22.5t-23.5 9.5h-25v6h142v-347q0 -49 29.5 -85t86.5 -36q22 0 41.5 7t31.5 17.5t21.5 20.5t12.5 18l4 7l1 360
q0 13 -10 22.5t-23 9.5h-25v6h141v-443z" />
    <glyph glyph-name="uacute" unicode="&#xfa;" horiz-adv-x="517" 
d="M342 669l-108 -124h-34l58 124h84zM445 43h58v-6l-142 -30v65q-1 -4 -4.5 -9t-16.5 -18t-28 -22.5t-40 -18t-52 -8.5q-85 0 -127.5 47t-42.5 122v283q0 13 -9.5 22.5t-23.5 9.5h-25v6h142v-347q0 -49 29.5 -85t86.5 -36q22 0 41.5 7t31.5 17.5t21.5 20.5t12.5 18l4 7
l1 360q0 13 -10 22.5t-23 9.5h-25v6h141v-443z" />
    <glyph glyph-name="ucircumflex" unicode="&#xfb;" horiz-adv-x="517" 
d="M238 632l-52 -89h-53l76 124h59l76 -124h-53zM445 43h58v-6l-142 -30v65q-1 -3 -4.5 -8.5t-16.5 -18t-28 -22.5t-40 -18.5t-52 -8.5q-85 0 -127.5 47.5t-42.5 121.5v283q0 13 -9.5 22.5t-23.5 9.5h-25v6h142v-347q0 -49 29.5 -85t86.5 -36q22 0 41.5 7t31.5 17.5
t21.5 20.5t12.5 18l4 7l1 360q0 13 -10 22.5t-23 9.5h-25v6h141v-443z" />
    <glyph glyph-name="udieresis" unicode="&#xfc;" horiz-adv-x="517" 
d="M187 544q-20 0 -32.5 13t-12.5 33t12.5 33.5t32 13.5t33 -13.5t13.5 -33.5t-13 -33t-33 -13zM307 544q-20 0 -32 13t-12 33t12.5 33.5t32 13.5t32.5 -13.5t13 -33.5t-13 -33t-33 -13zM445 43h58v-6l-142 -30v65q-1 -3 -4.5 -8.5t-16.5 -18t-28 -22.5t-40 -18.5t-52 -8.5
q-85 0 -127.5 47.5t-42.5 121.5v283q0 13 -9.5 22.5t-23.5 9.5h-25v6h142v-347q0 -49 29.5 -85t86.5 -36q22 0 41.5 7t31.5 17.5t21.5 20.5t12.5 18l4 7l1 360q0 13 -10 22.5t-23 9.5h-25v6h141v-443z" />
    <glyph glyph-name="yacute" unicode="&#xfd;" horiz-adv-x="487" 
d="M374 667l-107 -124h-34l58 124h83zM358 486h129v-7q0 -1 -4.5 0t-13 -2t-17 -7t-18 -15t-16.5 -27q-48 -117 -195 -500q-41 -105 -104 -116q-27 -5 -50 3.5t-33 19.5l-10 11l40 57q21 -27 47 -37t54 6.5t47 61.5l26 66l-184 451q-8 17 -19 22.5t-31 5.5h-7v7h210v-7
q-31 1 -47.5 -11.5t-2.5 -47.5q6 -15 123 -310q116 298 121 311q20 58 -38 58h-7v7z" />
    <glyph glyph-name="ydieresis" unicode="&#xff;" horiz-adv-x="487" 
d="M182 544q-20 0 -32 13t-12 33t12.5 33.5t32 13.5t32.5 -13.5t13 -33.5t-13 -33t-33 -13zM303 544q-20 0 -32.5 13t-12.5 33t12.5 33.5t32 13.5t33 -13.5t13.5 -33.5t-13 -33t-33 -13zM358 486h129v-7q0 -1 -4.5 0t-13 -2t-17 -7t-18 -15t-15.5 -27q-49 -117 -196 -500
q-40 -105 -104 -116q-27 -5 -50 3.5t-33 19.5l-10 11l40 57q21 -27 47 -37t54 6.5t47 61.5l26 66l-184 451q-8 17 -19 22.5t-31 5.5h-7v7h210v-7q-31 1 -47.5 -11.5t-2.5 -47.5q6 -15 123 -310q116 298 121 311q20 58 -38 58h-7v7z" />
    <glyph glyph-name="dotlessi" unicode="&#x131;" horiz-adv-x="224" 
d="M213 13v-6h-200v6q58 0 58 61v374q0 13 -9.5 22.5t-23.5 9.5h-25v6h142v-411q0 -14 1.5 -22.5t6.5 -19t17.5 -15.5t32.5 -5z" />
    <glyph glyph-name="OE" unicode="&#x152;" horiz-adv-x="996" 
d="M966 140h17l-30 -140h-441v8q36 1 53 21t19 62v23q-46 -55 -109 -84.5t-120 -29.5l-25 -1q-56 0 -110.5 22.5t-98.5 63t-71 105t-27 143.5t27.5 143.5t73 105t102 62.5t117.5 22q68 0 133 -30t110 -86v21q-1 42 -18 61.5t-54 19.5v10l416 1l30 -139h-17q-9 34 -54 81
t-88 47h-136v-294h85q30 0 47 28t18 66h16v-202h-16q-1 38 -17.5 65.5t-46.5 27.5h-86v-334h159q30 0 56.5 15t43.5 38t27 42.5t15 35.5zM341 14q58 0 109 43.5t81 117t30 158.5q0 135 -64 227.5t-156 92.5t-155.5 -93t-63.5 -227q0 -73 28.5 -146.5t80.5 -123t110 -49.5z
" />
    <glyph glyph-name="oe" unicode="&#x153;" horiz-adv-x="870" 
d="M640 16q40 0 70 16t44.5 38.5t23.5 45t10 37.5l2 16l52 -9q-24 -71 -81 -116t-128 -45q-56 0 -105 29.5t-79 79.5q-32 -50 -82.5 -79t-109.5 -29q-97 0 -165 73t-68 176t68 175.5t165 72.5q59 0 110 -29.5t83 -80.5q31 50 79 79.5t104 29.5q53 0 95 -21.5t66.5 -57
t37.5 -75.5t13 -81h-349v-16q0 -101 36.5 -165t107.5 -64zM633 482q-51 0 -89.5 -58t-46.5 -145h260q0 203 -124 203zM256.5 12q56.5 0 96.5 69.5t40 167.5t-40 167.5t-96.5 69.5t-96.5 -69.5t-40 -167.5t40 -167.5t96.5 -69.5z" />
    <glyph glyph-name="Scaron" unicode="&#x160;" horiz-adv-x="468" 
d="M258 702h-60l-75 123h53l52 -88l52 88h53zM283 355q164 -76 164 -189q0 -47 -17 -82t-46 -55t-63 -29.5t-72 -9.5q-71 0 -132.5 25t-99.5 67l43 84q3 -6 8.5 -17.5t24 -40t38.5 -50t52.5 -39.5t65.5 -18q39 0 69.5 22t43 48.5t12.5 48.5q0 34 -10.5 62t-23.5 45t-34 32
t-32.5 20.5t-29.5 12.5l-6 3q-54 23 -71 31q-23 9 -43 23t-40.5 35.5t-31.5 53.5t-8 69q1 28 12 55.5t32 53.5t58.5 42t85.5 16q37 0 71 -7.5t56.5 -18.5t40 -21.5t25.5 -18.5l8 -8l-57 -72q-2 6 -5 15.5t-14.5 33t-26.5 41.5t-40.5 32.5t-55.5 14.5q-49 0 -84.5 -33
t-41.5 -83q-5 -45 23.5 -90t78.5 -69l17.5 -8.5t34 -16.5t21.5 -10z" />
    <glyph glyph-name="scaron" unicode="&#x161;" horiz-adv-x="418" 
d="M239 543h-59l-76 124h53l53 -89l52 89h53zM269 280q126 -48 126 -144q0 -20 -10.5 -43t-30.5 -45.5t-56 -37t-81 -14.5q-42 0 -78 13.5t-56 32.5t-34.5 38t-19.5 32l-5 14l55 33q1 -6 2.5 -15.5t10 -34t21 -44t39 -37t60.5 -20.5q36 -4 66.5 8t46.5 34t20.5 46t-12 48
t-51.5 38q-13 5 -50 20t-73.5 30t-39.5 16q-45 23 -68 51t-21 70q3 55 50 92t124 37q36 0 66.5 -9t49 -22t31.5 -26t19 -22l5 -9l-47 -32q-1 4 -3.5 10.5t-12.5 23t-23.5 30.5t-37.5 27t-53 17q-45 7 -73.5 -12t-32.5 -53q-3 -34 21.5 -62.5t54.5 -39.5q87 -33 101 -39z" />
    <glyph glyph-name="Ydieresis" unicode="&#x178;" horiz-adv-x="561" 
d="M219 702q-20 0 -32 13t-12 34q0 20 12.5 33t32 13t32.5 -13.5t13 -32.5q0 -21 -13 -34t-33 -13zM340 702q-20 0 -32.5 13t-12.5 34q0 20 12.5 33t32 13t33 -13.5t13.5 -32.5q0 -21 -13 -34t-33 -13zM569 664v-9q-22 0 -38.5 -9t-24 -17.5t-19.5 -25.5l-168 -255v-274
q1 -63 73 -64v-9h-223v9q33 1 52.5 17t19.5 44v277l-167 255q-13 17 -20 25.5t-24 17.5t-39 9v9h216v-9q-7 0 -14 -2t-16 -8t-8.5 -20.5t12.5 -35.5q4 -7 32 -49t63.5 -95t46.5 -69q116 178 137 210q17 24 15 39t-12.5 22.5t-26.5 7.5v9h133z" />
    <glyph glyph-name="Zcaron" unicode="&#x17d;" horiz-adv-x="524" 
d="M291 701h-59l-76 124h53l52 -89l53 89h53zM522 664l-1 -7l-432 -647h253q26 0 49.5 8.5t37.5 21.5t24 25.5t14 21.5l3 9h8l-18 -95h-459v6l109.5 162t219.5 324l109 162h-260q-68 0 -101 -78l-6 -18h-7l22 105h435z" />
    <glyph glyph-name="zcaron" unicode="&#x17e;" horiz-adv-x="417" 
d="M235 543h-59l-76 123h53l53 -88l52 88h53zM265 15q27 0 50.5 9t37 21.5t23.5 25t14 21.5l4 9h7l-18 -94h-373v6l77 116t154 233l78 116h-164q-68 0 -100 -78l-7 -18h-7l22 105h338v-7l-303 -465h167z" />
    <glyph glyph-name="endash" unicode="&#x2013;" horiz-adv-x="449" 
d="M423 220h-397v57h397v-57z" />
    <glyph glyph-name="emdash" unicode="&#x2014;" horiz-adv-x="567" 
d="M541 220h-515v57h515v-57z" />
    <glyph glyph-name="quoteleft" unicode="&#x2018;" horiz-adv-x="176" 
d="M100 547q16 0 26 -10t12.5 -19t2.5 -15q0 -20 -11.5 -33t-21.5 -16.5t-16 -3.5q-25 0 -39.5 14.5t-17.5 30.5t0 30q7 42 37.5 71.5t48.5 35.5l9 -16q-8 -6 -19.5 -17t-25 -29.5t-16.5 -32.5q1 0 2 1t3 2t5 2l6 2t7 2t8 1z" />
    <glyph glyph-name="quoteright" unicode="&#x2019;" horiz-adv-x="176" 
d="M83 632q26 0 40 -14.5t17 -30t0 -30.5q-7 -42 -37 -71.5t-49 -35.5l-9 16q9 7 20 18t25 29.5t16 31.5l-1.5 -1l-3 -2t-4.5 -2l-6 -2t-7.5 -1.5t-8.5 -0.5q-15 0 -25 10t-13 19t-3 14q0 20 11.5 33t21.5 16.5t16 3.5z" />
    <glyph glyph-name="quotesinglbase" unicode="&#x201a;" horiz-adv-x="168" 
d="M79 97q26 0 40 -14.5t17 -30t0 -30.5q-7 -42 -37 -71.5t-49 -35.5l-9 16q8 7 19.5 18t25.5 29.5t16 31.5l-1.5 -0.5t-3 -1.5t-4.5 -2.5t-6 -2.5t-7.5 -1.5t-8.5 -0.5q-15 0 -25 10t-13 19t-3 14q0 20 11.5 33t21.5 16.5t16 3.5z" />
    <glyph glyph-name="quotedblleft" unicode="&#x201c;" horiz-adv-x="293" 
d="M101 547q15 0 25 -10t12.5 -19t2.5 -15q0 -20 -11.5 -33t-21.5 -16.5t-16 -3.5q-25 0 -39.5 14.5t-17.5 30.5t0 30q7 42 37.5 71.5t48.5 35.5l9 -16q-8 -6 -19.5 -17t-25 -29.5t-15.5 -32.5l1 1t3 2t5 2l6 2t7 2t9 1zM218 547q15 0 25 -10t13 -19t3 -15q0 -20 -11.5 -33
t-21.5 -16.5t-17 -3.5q-25 0 -39.5 14.5t-17 30.5t-0.5 30q8 42 38 71.5t48 35.5l9 -16q-8 -6 -19.5 -17t-25 -29.5t-15.5 -32.5l1.5 1l3 2t4.5 2l6 2t7.5 2t8.5 1z" />
    <glyph glyph-name="quotedblright" unicode="&#x201d;" horiz-adv-x="293" 
d="M83 632q26 0 40 -14.5t17 -30t0 -30.5q-7 -42 -37 -71.5t-49 -35.5l-9 16q9 7 20 17.5t25 29.5t16 32l-1.5 -1l-3 -2t-4.5 -2l-6 -2t-7.5 -1.5t-8.5 -0.5q-15 0 -25 10t-13 19t-3 14q0 20 11.5 33t21.5 16.5t16 3.5zM201 632q25 0 39.5 -14.5t17 -30t0.5 -30.5
q-8 -42 -38 -71.5t-48 -35.5l-9 16q8 7 19 17.5t25 29.5t16 32l-1.5 -1l-3 -2t-4.5 -2l-6 -2t-7.5 -1.5t-8.5 -0.5q-15 0 -25 10t-13 19t-3 14q0 20 11.5 33t21.5 16.5t17 3.5z" />
    <glyph glyph-name="quotedblbase" unicode="&#x201e;" horiz-adv-x="285" 
d="M79 97q26 0 40 -14.5t17 -30t0 -30.5q-7 -42 -37 -71.5t-49 -35.5l-9 16q9 7 20 18t25 29.5t16 31.5l-1.5 -1l-3 -2t-4.5 -2l-6 -2t-7.5 -1.5t-8.5 -0.5q-15 0 -25 10t-13 19t-3 14q0 20 11.5 33t21.5 16.5t16 3.5zM197 97q25 0 39.5 -14.5t17 -30t0.5 -30.5
q-8 -42 -38 -71.5t-48 -35.5l-9 16q8 7 19 18t25 29.5t16 31.5l-1.5 -1l-3 -2t-4.5 -2l-6 -2t-7.5 -1.5t-8.5 -0.5q-15 0 -25 10t-13 19t-3 14q0 20 11.5 33t21.5 16.5t17 3.5z" />
    <glyph glyph-name="dagger" unicode="&#x2020;" horiz-adv-x="432" 
d="M249 559h161v-66h-161v-603h-68v603h-160v66h160v182h68v-182z" />
    <glyph glyph-name="bullet" unicode="&#x2022;" horiz-adv-x="241" 
d="M119 399q38 0 63 -25.5t25 -63.5q0 -39 -25 -64t-63 -25t-61.5 25t-23.5 64q0 38 24 63.5t61 25.5z" />
    <glyph glyph-name="guilsinglleft" unicode="&#x2039;" horiz-adv-x="260" 
d="M106 302l120 -192h-73l-120 192l120 192h72z" />
    <glyph glyph-name="guilsinglright" unicode="&#x203a;" horiz-adv-x="259" 
d="M106 494l119 -192l-120 -192h-72l119 192l-120 192h74z" />
    <glyph glyph-name="Euro" unicode="&#x20ac;" horiz-adv-x="592" 
d="M91 408q10 48 34 92.5t61 81.5t90.5 58.5t115.5 21.5q33 0 72.5 -11t62.5 -22l23 -11v-74q-2 4 -5.5 10t-17 21.5t-30 28t-45 22t-61.5 9.5t-65.5 -12.5t-63 -38.5t-55 -71.5t-36.5 -104.5h301v-32h-306q-3 -24 -3 -45q0 -16 2 -35h307v-32h-303q1 -22 10.5 -52t29 -63.5
t45.5 -61.5t63.5 -46.5t78.5 -18.5q24 0 49 10t43 24.5t32.5 29t22.5 24.5l7 10v-75q-71 -45 -158 -45q-63 0 -117 22.5t-91.5 60t-61.5 84t-33 97.5h-56v32h52q-1 17 -1 35q0 20 2 45h-53v32h58z" />
    <glyph glyph-name="B.alt1" unicode="&#xf000;" horiz-adv-x="688" 
d="M499 358q82 -11 126.5 -57t44.5 -119q0 -86 -72 -133t-178 -47h-302v8q68 2 72 58v528q-4 56 -72 58h-5q-3 -1 -7 -1.5t-14.5 -4t-18.5 -9.5t-14.5 -18.5t-6.5 -29.5q0 -19 10.5 -37.5t26 -31t30.5 -22t26 -14.5l10 -5l-56 -60q-44 20 -68 51.5t-25 63.5t11.5 60.5t40 47
t60.5 19.5v1h276q102 0 156.5 -40t54.5 -121q0 -45 -30 -89t-76 -56zM267 651v-293h127q54 0 90.5 39.5t36.5 105.5q0 64 -40 106t-103 42h-111zM393 13q83 0 131.5 45.5t48.5 123.5q0 81 -48.5 121t-130.5 40h-126v-330h125z" />
    <glyph glyph-name="D.alt1" unicode="&#xf001;" horiz-adv-x="694" 
d="M365 664q60 0 114 -20.5t97 -59.5t68 -103t25 -145q0 -50 -11.5 -97t-37 -90t-62 -76t-89.5 -52t-117 -19h-241v8q35 1 54 18t19 47v261v239q-2 38 -17.5 57t-46.5 21h-6q-3 0 -7 -0.5t-14.5 -4t-18.5 -9.5t-14.5 -18.5t-6.5 -29.5q0 -19 10.5 -37.5t26 -31t30.5 -22
t26 -14.5l10 -5l-56 -60q-53 24 -76 65t-16 78t35 66t69 33v1h253zM327 10q38 0 73 10.5t69 35t59 60.5t40.5 92.5t15.5 127.5q0 149 -71.5 233t-180.5 84h-70v-637z" />
    <glyph glyph-name="E.alt1" unicode="&#xf002;" horiz-adv-x="601" 
d="M570 141h17l-30 -139h-440v8q36 1 53 20.5t18 61.5l3 481q0 39 -16 58.5t-48 21.5h-14q-3 0 -7 -0.5t-14.5 -4t-18.5 -9.5t-14.5 -18.5t-6.5 -29.5q0 -19 10.5 -37.5t26 -31t30.5 -22t26 -14.5l10 -5l-56 -60q-44 20 -68 51.5t-24.5 63.5t11.5 61t39.5 47.5t61.5 18.5v1
h415l31 -139h-17q-10 34 -54.5 81t-87.5 47h-137v-294h85q31 0 47.5 28t17.5 66h16v-202h-16q-1 38 -17 65.5t-46 28.5h-87v-335h159q31 0 57.5 15t43 38t26.5 42.5t15 35.5z" />
    <glyph glyph-name="F.alt1" unicode="&#xf003;" horiz-adv-x="565" 
d="M534 664l29 -139h-17q-9 34 -53.5 81t-87.5 47l-137 1v-295h85q30 0 47 28t18 66h16v-202h-16q-1 38 -17.5 65.5t-46.5 27.5h-86v-269q0 -63 72 -65v-8h-223v8q34 1 53 17t19 45v501q-1 40 -16 59t-48 21h-12q-3 0 -7 -0.5t-14.5 -4t-18.5 -9.5t-14.5 -18.5t-6.5 -29.5
q0 -19 10.5 -37.5t26 -31t30.5 -22t26 -14.5l10 -5l-56 -60q-44 20 -68 51.5t-25 63t11 60.5t39.5 47.5t61.5 19.5v1h416z" />
    <glyph glyph-name="H.alt1" unicode="&#xf004;" horiz-adv-x="702" 
d="M681 653q-50 0 -50 -60v-423q0 -53 0.5 -75t5.5 -46.5t15 -31.5t29 -7h4v-8h-189v8h5q50 0 50 63v272h-297v-266q0 -69 50 -69h4v-8h-189v8h5q12 0 20.5 3.5t14 11.5t8.5 15.5t4.5 24t1.5 27v33.5v466q0 62 -49 62h-11q-3 0 -7 -0.5t-14.5 -4t-18.5 -9.5t-14.5 -18.5
t-6.5 -29.5q0 -19 10.5 -37.5t26 -31t30.5 -22t26 -14.5l10 -5l-56 -60q-44 20 -68 51.5t-24.5 63.5t11.5 61t39.5 47.5t61.5 18.5v1h189v-11h-5q-49 0 -49 -62v-232h297v232q0 63 -50 63h-5v10h189v-11h-4z" />
    <glyph glyph-name="I.alt1" unicode="&#xf005;" horiz-adv-x="327" 
d="M311 653h-5q-50 0 -50 -62v-518q0 -63 50 -63h5v-8h-190v8h5q50 0 50 63v518q0 62 -50 62h-13q-3 0 -7 -0.5t-14.5 -4t-18.5 -9.5t-14.5 -18.5t-6.5 -29.5q0 -19 10.5 -37.5t26 -31t30.5 -22t26 -14.5l10 -5l-56 -60q-44 20 -68 52t-24.5 64t12 61t40.5 47t62 19h190v-11
z" />
    <glyph glyph-name="J.alt1" unicode="&#xf006;" horiz-adv-x="430" 
d="M423 664v-10q-72 -2 -72 -60v-433q0 -76 -45 -123.5t-136 -47.5q-38 0 -68 12.5t-45.5 28t-27.5 41t-15.5 40t-7.5 37.5l71 13q2 -1 0 -16.5t3 -40t12.5 -47.5t28 -39.5t49.5 -16.5q103 0 103 149v441q-2 60 -71 61h-11q-2 0 -6 -0.5t-14.5 -4t-19 -9.5t-15 -18.5
t-6.5 -29.5q0 -19 11 -37.5t26 -31t30 -22t26 -14.5l11 -5l-57 -60q-44 20 -68 52t-24.5 64.5t12 61.5t41 47t63.5 18h55.5h110.5h56z" />
    <glyph glyph-name="K.alt1" unicode="&#xf007;" horiz-adv-x="754" 
d="M643 97q2 -2 11.5 -14t11.5 -14.5t10.5 -12.5t12.5 -13t12 -10t14 -9.5t14 -6.5t16 -5t17 -1v-9h-66q-91 0 -139 62q-149 203 -198 268q-41 54 -88 7v-267q2 -60 72 -62v-8h-222v8q71 2 72 63v518q-1 61 -72 62h-8q-3 0 -7 -0.5t-14.5 -4t-18.5 -9.5t-14.5 -18.5
t-6.5 -29.5q0 -19 10.5 -37.5t26 -31t30.5 -22t26 -14.5l10 -5l-56 -60q-44 20 -68 52t-24.5 64t12 61t40.5 47t62 19h222v-10q-70 -2 -72 -61v-232q187 188 248 247q8 8 10.5 19.5t-2.5 16.5q-7 9 -50 9v11h161v-10q-31 -1 -58 -18t-61 -50q-15 -15 -96.5 -96t-106.5 -105
q24 16 61 16q20 0 38 -10.5t25.5 -19t19.5 -24.5q18 -25 60.5 -83.5t76.5 -105t46 -61.5z" />
    <glyph glyph-name="L.alt1" unicode="&#xf008;" horiz-adv-x="591" 
d="M573 141h17l-30 -139h-457v8q37 1 54.5 20.5t18.5 62.5v498q0 62 -50 62h-12q-3 0 -7 -0.5t-14.5 -4t-18.5 -9.5t-14.5 -18.5t-6.5 -29.5q0 -19 10.5 -37.5t26 -31t30.5 -22t26 -14.5l10 -5l-56 -60q-44 20 -68 52t-24.5 64t12 61t40 47t62.5 19h189v-11h-5
q-50 0 -50 -62v-581h175q30 0 57 15t43.5 38t26.5 42.5t15 35.5z" />
    <glyph glyph-name="M.alt1" unicode="&#xf009;" horiz-adv-x="844" 
d="M834 654q-36 -1 -53.5 -20.5t-19.5 -62.5v-498q0 -63 50 -63h5v-8h-189v8h4q50 0 50 63v547l-227 -558h-40l-213 516v-505q0 -63 50 -63h4v-8h-126v8h4q50 0 50 63v518q0 62 -50 62h-20q-2 0 -6.5 -0.5t-15 -4t-18.5 -9.5t-14.5 -18.5t-6.5 -29.5q0 -19 10.5 -37.5
t26 -31t30.5 -22t26 -14.5l10 -5l-56 -60q-44 20 -68 52t-24.5 64.5t12 61.5t41 47t62.5 18h7h126l212 -522l215 522h152v-10z" />
    <glyph glyph-name="N.alt1" unicode="&#xf00a;" horiz-adv-x="696" 
d="M553 664h127v-11h-5q-49 0 -49 -92v-559h-18l-406 609v-534q0 -13 1 -21t5 -20.5t15.5 -19t28.5 -6.5h5v-8h-127v8h5q50 0 50 63v518q0 62 -50 62h-22q-2 0 -6.5 -0.5t-15 -4t-18.5 -9.5t-14.5 -18.5t-6.5 -29.5q0 -19 10.5 -37.5t26 -31t30.5 -22t26 -14.5l10 -5
l-56 -60q-44 20 -68 52t-24.5 64.5t12 61.5t41 47t62.5 18h8h146l332 -498v394q0 94 -50 94h-5v10z" />
    <glyph glyph-name="P.alt1" unicode="&#xf00b;" horiz-adv-x="634" 
d="M401 663q98 0 158 -59t60 -153q0 -102 -61.5 -161t-148.5 -59q-27 0 -51 7t-39.5 17.5t-27.5 21t-17 17.5l-5 8v-227q0 -63 72 -65v-8h-220v8q72 2 72 64v515q0 62 -71 64h-9q-3 0 -7 -0.5t-14.5 -4t-18.5 -9.5t-14.5 -18.5t-6.5 -29.5q0 -19 10.5 -37.5t26 -31t30.5 -22
t26 -14.5l10 -5l-56 -60q-44 20 -68 52t-24.5 64t12 61t40 47t62.5 19h28h7q165 -1 245 -1zM408 253q54 0 89.5 54.5t35.5 143.5q0 86 -32.5 140t-99.5 54h-132v-312q2 -3 5.5 -8.5t17 -19.5t28.5 -24.5t39 -19t49 -8.5z" />
    <glyph glyph-name="R.alt1" unicode="&#xf00c;" horiz-adv-x="707" 
d="M685 12h25v-10h-78q-57 0 -91 51q-8 12 -31 49t-41 65.5t-46 66.5t-51.5 63t-51 42.5t-51.5 17.5v-283q1 -62 73 -64v-9h-221v9q72 2 73 64v515q-1 64 -73 64h-8q-3 0 -7 -0.5t-14.5 -4t-18.5 -9.5t-14.5 -18.5t-6.5 -29.5q0 -19 10.5 -37.5t26 -31t30.5 -22t26 -14.5
l10 -5l-56 -60q-44 20 -68 52t-24.5 64t12 61t40.5 47t62 19h249q52 0 95 -8.5t78.5 -27.5t55.5 -52.5t20 -78.5q0 -41 -15 -73t-38.5 -51.5t-52.5 -32.5t-55 -18t-49 -5q34 0 68.5 -31.5t62 -76.5t52.5 -89.5t49 -76t44 -31.5zM269 380q10 -6 26 -14.5t53.5 -23t60.5 -14.5
q55 0 90 41t35 115q0 78 -45.5 122t-118.5 44h-101v-270z" />
    <glyph glyph-name="U.alt1" unicode="&#xf00d;" horiz-adv-x="710" 
d="M704 654q-70 -2 -72 -65v-380q0 -31 -6 -60t-21 -58t-38 -50t-60 -34.5t-84 -13.5q-51 0 -91.5 14.5t-65 36.5t-41 51.5t-23 57.5t-6.5 57v379q0 62 -71 64h-12q-2 0 -6.5 -0.5t-15 -4t-18.5 -9.5t-14.5 -18.5t-6.5 -29.5q0 -19 10.5 -37.5t26 -31t30.5 -22t26 -14.5
l10 -5l-56 -60q-44 20 -68 52t-24.5 64.5t12 61.5t41 47t62.5 18h2h223v-10q-72 -2 -72 -62v-366q-3 -121 47 -171q22 -23 48 -34t65 -11q43 0 76.5 16t52 39t30.5 52.5t16 53.5t4 46v372q0 63 -72 65v10h162v-10z" />
    <glyph glyph-name="b.alt1" unicode="&#xf00e;" horiz-adv-x="507" 
d="M259 491q93 0 157.5 -73t64.5 -178q0 -108 -61 -178t-154 -70q-61 0 -118 34v2q-13 -26 -41 -26h-96v6q58 0 58 61v508q-52 -37 -115.5 -49.5t-118 -3.5t-100 32t-68.5 54l56 54q30 -48 80.5 -79t108.5 -38.5t120 21.5t109 96h12v-203q47 30 106 30zM384 239
q0 104 -44.5 168t-109.5 64q-40 0 -77 -24v-400q0 -1 -0.5 -4t-1.5 -3q47 -28 86 -28q36 0 66 23.5t46.5 59.5t25.5 73.5t9 70.5z" />
    <glyph glyph-name="d.alt1" unicode="&#xf00f;" horiz-adv-x="509" 
d="M440 69q0 -61 58 -61v-6h-96q-29 0 -41 26q-61 -35 -121 -35q-93 0 -154 70t-61 177q0 106 64.5 178.5t157.5 72.5q61 0 109 -31v117q-52 -37 -115.5 -49.5t-118 -3.5t-100 32t-68.5 54l56 54q30 -48 80.5 -79.5t108.5 -38.5t120 22t109 96h12v-595zM276 472
q-65 0 -109.5 -64.5t-44.5 -168.5q0 -33 9 -70.5t26 -73t46.5 -59t65.5 -23.5q41 0 88 28q0 1 -0.5 3.5t-0.5 3.5v398q-38 26 -80 26z" />
    <glyph glyph-name="h.alt1" unicode="&#xf010;" horiz-adv-x="532" 
d="M523 8v-6h-135q-7 0 -7 7l-1 340q0 49 -30.5 87t-85.5 34q-28 -2 -55.5 -20t-41.5 -35l-14 -17v-328q0 -14 1.5 -22.5t6.5 -19t17.5 -15.5t32.5 -5v-6h-200v6q58 0 58 61l-1 508q-52 -37 -115.5 -49.5t-118 -3.5t-100 32t-68.5 54l56 54q30 -48 80.5 -79t108.5 -38.5
t120 21.5t109 96h13v-250q2 3 6 8.5t17.5 18.5t29 23.5t40 19t49.5 8.5q84 0 127 -47t43 -122v-253q0 -14 1 -22.5t6.5 -19t18 -15.5t32.5 -5z" />
    <glyph glyph-name="k.alt1" unicode="&#xf011;" horiz-adv-x="507" 
d="M502 29l4 -10l-19 -8q-37 -13 -67.5 -8t-51.5 20.5t-36 41.5q-10 16 -44.5 77.5t-45.5 81.5q-17 28 -38 35.5t-33 -4.5q-6 -5 -18 -18v-166q0 -14 1 -23t6.5 -19.5t18 -15.5t32.5 -5v-6h-200v6q58 0 58 61l-1 508q-52 -37 -115.5 -49.5t-118 -3.5t-100 32t-68.5 54l56 54
q30 -48 80.5 -79t108.5 -38.5t120 21.5t109 96h13v-2v-413q18 18 64.5 65.5t83 84.5t43.5 44q9 8 8.5 20t-11.5 12h-21v7h112v-7h-15q-26 0 -69 -42l-117 -119q22 3 44.5 -13t38.5 -42q12 -18 48.5 -82t49.5 -87q15 -24 29.5 -39t25 -19.5t19 -5.5t12.5 1z" />
    <glyph glyph-name="l.alt1" unicode="&#xf012;" horiz-adv-x="222" 
d="M11 8q58 0 58 61l-1 508q-52 -37 -115.5 -49.5t-118 -3.5t-100 32t-68.5 54l56 54q30 -48 80.5 -79t108.5 -38.5t120 21.5t109 96h13v-593q0 -14 1 -23t6.5 -19.5t18 -15.5t32.5 -5v-6h-200v6z" />
    <glyph glyph-name="h.alt2" unicode="&#xf013;" horiz-adv-x="507" 
d="M699 -193q74 0 143.5 44.5t121.5 137.5l65 -59q-54 -59 -145.5 -95t-178.5 -36t-161.5 30t-118.5 82.5t-44 114.5v88v158v77q0 49 -30.5 87t-85.5 34q-28 -2 -56 -20t-42 -35l-14 -17v-328q0 -14 1.5 -22.5t6.5 -19t17.5 -15.5t32.5 -5v-6h-200v6q58 0 58 61v556
q0 13 -9.5 23t-23.5 10h-25v6h142v-250q2 3 6 8t17.5 18.5t29 24t40 19t50.5 8.5q84 0 126.5 -47.5t42.5 -121.5v-321q0 -78 70 -136.5t164 -58.5z" />
    <glyph glyph-name="i.alt1" unicode="&#xf014;" horiz-adv-x="199" 
d="M161 602.5q0 -20.5 -14.5 -35t-35 -14.5t-35.5 14.5t-15 35t14.5 35t35.5 14.5t35.5 -14.5t14.5 -35zM653 -11l64 -58q-54 -60 -145 -96t-179 -36q-87 0 -161.5 30t-118.5 82.5t-44 114.5v417q0 13 -9.5 22.5t-23.5 9.5h-25v6h142v-479q0 -78 70 -136.5t165 -58.5
q73 0 142.5 44.5t122.5 137.5z" />
    <glyph glyph-name="l.alt2" unicode="&#xf015;" horiz-adv-x="176" 
d="M630 -11l64 -59q-54 -59 -145.5 -95t-178.5 -36t-161.5 30t-118.5 82.5t-44 114.5v161v294v144q0 13 -9.5 23t-23.5 10h-25v6h142v-662q0 -78 70 -136.5t164 -58.5q74 0 143.5 44.5t122.5 137.5z" />
    <glyph glyph-name="m.alt1" unicode="&#xf016;" horiz-adv-x="790" 
d="M1247 -11l64 -58q-54 -60 -145 -96t-178 -36t-161.5 30t-118.5 82.5t-44 114.5q0 2 -0.5 82.5t-0.5 160.5v80q0 48 -30 84.5t-85.5 36.5t-103.5 -51q24 -40 24 -96v-253q0 -14 1.5 -22.5t6.5 -19t17.5 -15.5t32.5 -5v-6h-142v347q0 49 -30.5 87t-85.5 34q-28 -2 -56 -20
t-42 -35l-14 -17v-328q0 -14 1.5 -22.5t6.5 -19t17.5 -15.5t32.5 -5v-6h-200v6q58 0 58 61v406h-58v7h142v-68q2 3 6 8.5t17.5 18.5t29 23.5t40 19t50.5 8.5q94 0 138 -64q65 64 141 64q85 0 127.5 -47t42.5 -122v-321q0 -78 70 -136.5t164 -58.5q74 0 143.5 44.5
t121.5 137.5z" />
    <glyph glyph-name="n.alt1" unicode="&#xf017;" horiz-adv-x="510" 
d="M702 -193q74 0 143.5 44.5t121.5 137.5l65 -59q-55 -59 -146 -95t-178 -36t-161.5 30t-118.5 82.5t-44 114.5v83.5v159.5v80q0 49 -30.5 87t-85.5 34q-28 -2 -56 -20t-42 -35l-14 -17v-328q0 -14 1.5 -22.5t6.5 -19t17.5 -15.5t32.5 -5v-6h-200v6q58 0 58 61v406h-58v7
h142v-68q2 3 6 8.5t17.5 18.5t29 23.5t40 19t50.5 8.5q84 0 126.5 -47t42.5 -122v-321q0 -78 70 -136.5t164 -58.5z" />
    </font>
</defs>
</svg>
