<?xml version="1.0" standalone="no"?>
<!DOCTYPE svg PUBLIC "-//W3C//DTD SVG 1.1//EN" "http://www.w3.org/Graphics/SVG/1.1/DTD/svg11.dtd" >
<svg xmlns="http://www.w3.org/2000/svg" xmlns:xlink="http://www.w3.org/1999/xlink" version="1.1">
<metadata>
Created by FontForge 20201107 at Mon Mar 20 09:06:14 2023
 By 
Copyright (C) 2023 by UICreative. All Right Reserved
</metadata>
<defs>
<font id="Vindigater" horiz-adv-x="600" >
  <font-face 
    font-family="Vindigater"
    font-weight="400"
    font-stretch="normal"
    units-per-em="1000"
    panose-1="0 0 0 0 0 0 0 0 0 0"
    ascent="800"
    descent="-200"
    x-height="461"
    cap-height="631"
    bbox="-45 -187.6 1065 804"
    underline-thickness="0"
    underline-position="0"
    unicode-range="U+000A-20AC"
  />
<missing-glyph horiz-adv-x="527" 
d="M50 700h427v-700h-427v700zM78 680l185 -309l186 309h-371zM251 350l-180 300v-601zM264 329l-185 -308h370zM276 350l181 -303v605z" />
    <glyph glyph-name=".notdef" horiz-adv-x="527" 
d="M50 700h427v-700h-427v700zM78 680l185 -309l186 309h-371zM251 350l-180 300v-601zM264 329l-185 -308h370zM276 350l181 -303v605z" />
    <glyph glyph-name=".null" horiz-adv-x="0" 
 />
    <glyph glyph-name=".null" horiz-adv-x="0" 
 />
    <glyph glyph-name="nonmarkingreturn" horiz-adv-x="333" 
 />
    <glyph glyph-name="controlLF" unicode="&#xa;" horiz-adv-x="0" 
 />
    <glyph glyph-name="controlCR" unicode="&#xd;" horiz-adv-x="0" 
 />
    <glyph glyph-name="space" unicode=" " horiz-adv-x="275" 
 />
    <glyph glyph-name="exclam" unicode="!" horiz-adv-x="235" 
d="M125 160h-12q-4 22 -19 101.5t-24 130t-17.5 108.5t-8.5 82q0 34 21 54t57 20q28 0 48 -16.5t20 -57.5q0 -54 -24 -201.5t-41 -220.5zM122 127q24 0 42.5 -18.5t18.5 -43.5q0 -29 -18.5 -47t-45.5 -18q-26 0 -45 19t-19 46q0 24 20.5 43t46.5 19z" />
    <glyph glyph-name="quotedbl" unicode="&#x22;" horiz-adv-x="298" 
d="M106 681q9 0 15.5 -6.5t6.5 -15.5v-73q0 -11 -5 -21l-33 -65h-22l-32 66q-4 10 -4 20v73q0 9 6.5 15.5t15.5 6.5h52zM244 681q9 0 15.5 -6.5t6.5 -15.5v-73q0 -11 -5 -21l-33 -65h-22l-31 66q-5 10 -5 20v73q0 9 6.5 15.5t15.5 6.5h52z" />
    <glyph glyph-name="numbersign" unicode="#" horiz-adv-x="539" 
d="M35 182l14 49h87l26 93h-88l13 49h88l49 179h68l-50 -179h98l48 179h69l-51 -179h97l-13 -49h-96l-26 -93h98l-13 -49h-97l-50 -182h-66l48 182h-98l-48 -182h-68l50 182h-89zM230 324l-26 -93h97l26 93h-97z" />
    <glyph glyph-name="dollar" unicode="$" horiz-adv-x="543" 
d="M324 392q34 -22 52 -34t46 -34.5t42 -40.5t25 -43.5t11 -52.5q0 -80 -55.5 -131t-146.5 -56v-75h-51v75q-109 6 -202 49v179h17q5 -8 13 -22t33.5 -48.5t50 -61t57 -48.5t60.5 -22q31 0 58.5 18.5t27.5 52.5q0 23 -10.5 44t-34.5 42t-42 34t-54 36q-33 22 -50 33.5
t-43.5 33.5t-39.5 40t-23.5 43.5t-10.5 52.5q0 87 57 138t136 55v62h51v-63q106 -5 172 -31v-202h-19l-2 4q-19 42 -37 73.5t-42.5 64t-52.5 50.5t-58 18q-44 0 -68 -26q-19 -18 -18 -46q0 -19 9.5 -37.5t21 -32.5t35 -32t39 -28.5t46.5 -30.5z" />
    <glyph glyph-name="percent" unicode="%" horiz-adv-x="628" 
d="M211 0h-89l287 631h89zM465 0q-53 0 -91.5 40t-38.5 96q0 58 38.5 98.5t91.5 40.5q52 0 90.5 -41t38.5 -98q0 -56 -38.5 -96t-90.5 -40zM466.5 265q-17.5 0 -30.5 -37.5t-13 -90t13 -90t30.5 -37.5t29.5 37t12 90t-12 90.5t-29.5 37.5zM164 356q-54 0 -92 40t-38 96
q0 57 38 98t92 41q52 0 90.5 -41t38.5 -98q0 -56 -38.5 -96t-90.5 -40zM165 620q-17 0 -30 -37.5t-13 -90t13 -90t30 -37.5t29.5 37.5t12.5 90.5t-12.5 90t-29.5 37z" />
    <glyph glyph-name="ampersand" unicode="&#x26;" horiz-adv-x="655" 
d="M504 129q7 -9 19 -24t41 -45t49 -41l17 -12v-12h-64q-27 0 -42.5 1t-38 6.5t-34.5 15.5l-19 19q-21 -17 -37 -27t-58 -20t-99 -10q-76 0 -127 29.5t-67 79.5q-8 26 -8 51t7 45t17.5 38.5t26 33t30 26.5t30.5 21.5t27 15t21 9.5q-2 4 -13.5 20.5t-16 24.5t-12 23.5t-11 32
t-3.5 34.5q0 66 45.5 99.5t108.5 33.5q37 0 64 -11t41 -28.5t21 -35.5t7 -36q0 -25 -12 -47.5t-28.5 -36t-33 -23.5t-27.5 -14l-12 -4l169 -209q33 51 46 118l29 -5q-13 -76 -53 -136zM304.5 574q-26.5 0 -41 -23t-14.5 -55q0 -48 49 -117q2 1 6 3.5t14.5 11.5t18.5 20.5
t14 32.5t6 46q0 31 -13 56t-39.5 25zM168 116q24 -40 63.5 -60t77 -20t66.5 7t38 17l-204 253q-5 -4 -11.5 -10.5t-21 -27.5t-22 -42.5t-6 -53.5t19.5 -63z" />
    <glyph glyph-name="quotesingle" unicode="'" horiz-adv-x="160" 
d="M106 681q9 0 15.5 -6.5t6.5 -15.5v-73q0 -11 -5 -21l-33 -65h-22l-32 66q-4 10 -4 20v73q0 9 6.5 15.5t15.5 6.5h52z" />
    <glyph glyph-name="parenleft" unicode="(" horiz-adv-x="242" 
d="M251 -100l-8 1q-33 4 -61 17q-27 13 -50 37q-22 23 -38 49t-24 56q-4 15 -7 31q-3 15 -6 33l-3 36q-2 19 -3 36q0 8 -1 15v16q-1 7 -1 15v30q0 7 -1 14v55q1 8 1 15v15v31q1 14 2 32t3 35l3 34q3 17 6 33t7 30q8 31 24 58t38 50t50 37t61 18l8 2v-34l-4 -2
q-27 -12 -46.5 -48.5t-28.5 -75.5t-13 -87t-4.5 -71t0.5 -41v-126q1 -25 1 -46q0 -24 3.5 -52t12 -69.5t28.5 -80t49 -61.5l2 -3v-34z" />
    <glyph glyph-name="parenright" unicode=")" horiz-adv-x="242" 
d="M-10 -100v34l3 3q29 23 49 61.5t28.5 80t11.5 69t3 51.5q1 22 2 47v125v41.5t-4.5 71.5t-13 87t-28 75.5t-47.5 48.5l-4 2v34l9 -2q33 -4 60 -18q28 -14 50.5 -37t37.5 -50q16 -27 25 -58q4 -14 6 -30l6 -33l4 -34q2 -18 3 -35q1 -16 1 -32q1 -15 1 -31v-15v-14v-55v-15
v-30q0 -8 -1 -16q0 -7 -1 -15v-15q-1 -17 -3 -36l-4 -35q-3 -19 -6 -34q-2 -16 -6 -31q-9 -30 -25 -56.5t-38 -48.5q-22 -24 -50 -37q-27 -13 -60 -17z" />
    <glyph glyph-name="asterisk" unicode="*" horiz-adv-x="327" 
d="M291 551q4 -7 1 -18.5t-13 -14.5l-70 -22q-4 -1 -5 -4.5t1 -5.5l49 -62q5 -11 1.5 -19.5t-11 -14t-17 -5.5t-17.5 9l-42 66q-2 3 -5.5 3t-5.5 -3l-42 -63q-9 -9 -18.5 -9t-17 5.5t-11 14t1.5 18.5l50 60q3 3 1.5 6t-4.5 4l-69 22q-10 3 -13 14.5t1 18.5q3 8 11.5 14.5
t17.5 2.5l66 -29q4 -1 7 1t2 5l-3 75q0 11 8.5 16.5t18 5.5t18 -6t8.5 -17l-5 -74q-1 -4 2 -6t7 -1l67 30q10 4 18.5 -2.5t11.5 -14.5z" />
    <glyph glyph-name="plus" unicode="+" horiz-adv-x="453" 
d="M264 319h159v-39h-159v-180h-76v180h-159v39h159v176h76v-176z" />
    <glyph glyph-name="comma" unicode="," horiz-adv-x="191" 
d="M92 121q29 0 47.5 -19t18.5 -54q0 -61 -51 -108l-9 6q6 9 10 21t0.5 22.5t-16.5 10.5q-26 0 -43 16t-17 42t17.5 44.5t42.5 18.5z" />
    <glyph glyph-name="hyphen" unicode="-" horiz-adv-x="279" 
d="M250 250h-222v64h222v-64z" />
    <glyph glyph-name="period" unicode="." horiz-adv-x="188" 
d="M94 122q25 0 43.5 -17t18.5 -43q0 -23 -18.5 -42.5t-43.5 -19.5q-28 0 -45 19.5t-17 42.5q0 26 18 43t44 17z" />
    <glyph glyph-name="slash" unicode="/" horiz-adv-x="415" 
d="M119 0h-108l271 631h108z" />
    <glyph glyph-name="zero" unicode="0" horiz-adv-x="582" 
d="M540 316.5q0 -130.5 -72.5 -223t-174.5 -92.5q-104 0 -177.5 92.5t-73.5 223t73.5 222.5t177.5 92q102 0 174.5 -92t72.5 -222.5zM387 316.5q0 128.5 -29 213.5t-65 85q-40 0 -68 -87.5t-28 -211t28 -211.5t68 -88q36 0 65 85.5t29 214z" />
    <glyph glyph-name="one" unicode="1" horiz-adv-x="282" 
d="M231 1h-141v494q0 25 -12.5 36.5t-25.5 10.5h-13v22l192 67v-630z" />
    <glyph glyph-name="two" unicode="2" horiz-adv-x="512" 
d="M447 1h-417v14q77 64 148 130q85 79 121.5 165t3.5 163q-19 43 -64.5 63t-96.5 4.5t-82 -64.5l-13 5q3 6 8.5 16t25 36t42.5 46t61.5 36t80.5 16q82 0 133.5 -36t65.5 -104q9 -38 -1 -77.5t-32 -72.5t-50 -63.5t-58 -54t-55.5 -41.5t-41.5 -27l-16 -9h237v-145z" />
    <glyph glyph-name="three" unicode="3" horiz-adv-x="495" 
d="M314 348q58 -7 100.5 -47.5t40.5 -110.5q-3 -87 -69.5 -141.5t-163.5 -54.5q-45 0 -97 20.5t-94 53.5l15 14q11 -8 35 -15.5t55.5 -7.5t61 9t55 38.5t34.5 76.5q11 55 -5.5 92.5t-60.5 50.5q-4 1 -5 5.5t2 7.5q27 23 40 56.5t11.5 61t-14.5 41.5q-23 25 -51.5 33t-54 1.5
t-46 -18.5t-32.5 -27l-2 -2l-13 5l3 4q17 29 34 50.5t41.5 43t55.5 33t67 11.5q23 0 44.5 -6t42.5 -19t36 -37.5t20 -57.5q7 -45 -17 -93t-69 -71z" />
    <glyph glyph-name="four" unicode="4" horiz-adv-x="535" 
d="M411 1h-143v117h-244v19l370 494h17l1 -397h86v-116h-87v-117zM268 433l-152 -199h152v199z" />
    <glyph glyph-name="five" unicode="5" horiz-adv-x="458" 
d="M416 201q-5 -86 -67 -146.5t-154 -60.5q-39 0 -88 14t-75 41l9 14q67 -36 116 -18t77 69t30 119q3 82 -43 132q-10 11 -31 18.5t-35.5 10t-45.5 7.5q-18 2 -26 13q-12 17 -8 39l31 178h259v-120h-260l-8 -48q-3 -18 4.5 -28t61.5 -10q98 0 161 -39q43 -26 69.5 -73
t22.5 -112z" />
    <glyph glyph-name="six" unicode="6" horiz-adv-x="487" 
d="M448 220q8 -95 -51 -157t-142 -62q-102 0 -158 69t-56 172q0 86 40.5 169t111.5 141.5t155 78.5h4l5 -19l-4 -1q-40 -9 -76 -51.5t-55.5 -86.5t-27.5 -82q3 1 8.5 3.5t24.5 6t39 2.5q28 -1 55.5 -11t55.5 -30t47 -56.5t24 -85.5zM211 377q-17 -4 -21.5 -43.5t-1 -77
t9.5 -69.5q15 -74 41.5 -123t51.5 -45q24 5 24.5 70t-13.5 123q-16 77 -40.5 124.5t-50.5 40.5z" />
    <glyph glyph-name="seven" unicode="7" horiz-adv-x="447" 
d="M184 1h-152l233 607h-233v23h397z" />
    <glyph glyph-name="eight" unicode="8" horiz-adv-x="522" 
d="M478 170q-5 -25 -23.5 -55t-46.5 -57.5t-68.5 -46.5t-83.5 -19q-97 0 -158 56.5t-57 146.5q6 106 110 170q-3 2 -7.5 6.5t-16 17.5t-20.5 26t-16.5 32t-7.5 37q0 71 57 110.5t135 39.5q61 0 109.5 -41t40.5 -102q-3 -27 -21.5 -50t-35.5 -34l-17 -10q36 -31 56.5 -51
t42.5 -49.5t28.5 -60.5t-0.5 -66zM349 129q-7 32 -33 69.5t-50.5 61.5t-61 56t-42.5 38q-27 -54 -38 -114.5t-3.5 -113t42.5 -87t93 -34.5q44 0 73 39.5t20 84.5zM342 406q13 24 19.5 58t4.5 67.5t-20.5 58.5t-51.5 27q-34 4 -55.5 -20t-13.5 -55q5 -19 21 -41.5t27 -33.5
t39.5 -36t29.5 -25z" />
    <glyph glyph-name="nine" unicode="9" horiz-adv-x="487" 
d="M39 413q-9 95 50.5 156.5t142.5 61.5q101 0 157.5 -69t56.5 -171q0 -87 -41 -169.5t-111.5 -141.5t-155.5 -78l-3 -1l-5 20l3 1q41 9 77 51t55 86t27 83q-3 -2 -8.5 -4.5t-24 -5.5t-38.5 -2q-28 1 -56 10.5t-55.5 29.5t-47 57t-23.5 86zM275 255q18 5 22.5 44t0.5 76.5
t-10 69.5q-15 75 -41 124t-51 44q-24 -4 -25 -69.5t13 -122.5q16 -78 40.5 -125.5t50.5 -40.5z" />
    <glyph glyph-name="colon" unicode=":" horiz-adv-x="200" 
d="M100 122q25 0 43.5 -17t18.5 -43q0 -23 -18.5 -42.5t-43.5 -19.5q-28 0 -45 19.5t-17 42.5q0 26 18 43t44 17zM100 335q-28 0 -45 19t-17 43q0 26 18 43t44 17q25 0 43.5 -17.5t18.5 -42.5q0 -24 -18.5 -43t-43.5 -19z" />
    <glyph glyph-name="semicolon" unicode=";" horiz-adv-x="203" 
d="M98 121q29 0 47.5 -19t18.5 -54q0 -61 -51 -108l-9 6q6 9 10 21t0.5 22.5t-16.5 10.5q-26 0 -43 16t-17 42t17.5 44.5t42.5 18.5zM102 338q-28 0 -45.5 19t-17.5 43q0 26 18.5 43t44.5 17q24 0 42.5 -17.5t18.5 -42.5q0 -24 -18 -43t-43 -19z" />
    <glyph glyph-name="less" unicode="&#x3c;" horiz-adv-x="467" 
d="M428 100l-395 180v71l395 180v-65l-296 -134l296 -136v-96z" />
    <glyph glyph-name="equal" unicode="=" horiz-adv-x="465" 
d="M429 295h-394v76h394v-76zM429 150h-394v75h394v-75z" />
    <glyph glyph-name="greater" unicode="&#x3e;" horiz-adv-x="467" 
d="M39 100v65l296 133l-296 137v96l395 -180v-71z" />
    <glyph glyph-name="question" unicode="?" horiz-adv-x="436" 
d="M174 122q25 0 43 -18t18 -43q0 -24 -17.5 -42.5t-43.5 -18.5q-25 0 -43 18.5t-18 45.5q0 24 18.5 41t42.5 17zM219 649q76 0 129.5 -44t53.5 -113q-1 -36 -17.5 -69t-40.5 -56.5t-52 -49.5t-52 -49t-40 -55t-16 -66h-21q0 51 14.5 100.5t31.5 81t31 67.5t14 64
q0 49 -29.5 77t-69.5 28q-33 0 -64.5 -14.5t-48.5 -41.5h-20q27 63 78.5 101.5t118.5 38.5z" />
    <glyph glyph-name="at" unicode="@" horiz-adv-x="717" 
d="M631 -20q-21 -23 -40 -40t-54.5 -39t-86.5 -34t-113 -12q-79 0 -147 37t-109 104t-41 149q0 79 29.5 145.5t80 109.5t116.5 67t139 24q52 0 99.5 -17t86.5 -49.5t62 -88t23 -124.5q0 -91 -54 -152t-151 -61q-36 0 -61 21q-14 13 -33 13t-34 -11q-30 -23 -61 -23
q-54 0 -83 41.5t-29 99.5q0 84 50 140t129 56q25 0 43.5 -15.5t24.5 -42.5l14 47h139q-73 -219 -73 -280q0 -6 4.5 -13.5t13.5 -7.5q55 0 98.5 55t43.5 127q0 113 -70 189t-182 76q-78 0 -144 -28t-109 -74t-66.5 -104t-23.5 -120q0 -76 40 -139.5t103 -98t132 -34.5
q178 0 272 108zM289 63q-1 -49 11 -49q25 0 46.5 30.5t33.5 73t18.5 79t6.5 55.5v5v6.5t-0.5 7.5t-1 8t-1 8t-2 8t-3.5 6.5t-4.5 5.5t-6 3.5t-7.5 1.5q-23 0 -45.5 -56t-33.5 -113.5t-11 -79.5z" />
    <glyph glyph-name="A" unicode="A" 
d="M424 13q13 0 20.5 9t2.5 22q-2 5 -10.5 29t-23 64.5t-27.5 77.5h-273q-14 -40 -28.5 -79.5t-23.5 -65t-9 -26.5q-5 -13 2 -22t21 -9v-13h-77v13q18 0 27 10.5t14 27.5q6 16 56.5 161t98.5 282l48 137h82q15 0 28 -9.5t18 -24.5q171 -489 192 -553q4 -10 7 -15.5t11 -10.5
t21 -5v-13h-177v13zM118 228h263q-21 60 -54 154t-55 158l-22 64q-84 -241 -132 -376z" />
    <glyph glyph-name="B" unicode="B" horiz-adv-x="541" 
d="M371 344q71 -14 111 -58.5t40 -109.5q0 -47 -20 -82t-54.5 -55t-76.5 -29.5t-90 -9.5h-253v13q13 0 22 9t9 22v543q0 12 -9 21.5t-22 9.5v13h200q111 0 171 -41.5t60 -114.5q0 -44 -23 -78.5t-65 -52.5zM174 618v-274h53q17 0 34 7t34 22t28 43t11 65q0 68 -33 102.5
t-79 34.5h-11.5h-21.5h-15zM229 15q69 0 106.5 42t37.5 117q0 58 -39 107t-98 49h-62v-315h55z" />
    <glyph glyph-name="C" unicode="C" horiz-adv-x="634" 
d="M604 176q6 -5 17 -13q-39 -83 -115 -133.5t-167 -50.5q-86 0 -158.5 44.5t-115 121t-42.5 166.5t42.5 166.5t115 121t158.5 44.5q50 0 98.5 -17t94.5 -57t72 -98l-141 -59q-28 69 -69 112t-83 54t-82 4t-70.5 -33.5t-43.5 -62.5q-10 -31 -10 -67t14 -76.5t36.5 -77
t58 -69t78.5 -53.5q61 -29 115 -36.5t88 1.5t60 25t37 28t12 15z" />
    <glyph glyph-name="D" unicode="D" horiz-adv-x="607" 
d="M276 631q127 0 217 -90.5t90 -217.5v-15q0 -128 -90 -218t-217 -90h-248v13q13 0 22 9t9 22v543q0 12 -9 21.5t-22 9.5v13h248zM204 14h13q80 0 136 41t81.5 107.5t25.5 152.5q0 59 -15 112.5t-44 96t-76.5 68t-107.5 25.5h-13q-12 0 -21 -9t-9 -21v-543q0 -13 9 -21.5
t21 -8.5z" />
    <glyph glyph-name="E" unicode="E" horiz-adv-x="529" 
d="M502 118h13l-31 -118h-456v13q13 0 22 9t9 22v543q0 12 -9 21.5t-22 9.5v12h446l31 -118h-13l-5.5 11t-16.5 25.5t-27.5 32t-39.5 25t-51 11.5h-148q-12 0 -21 -9t-9 -21v-252h157q19 0 32 13t13 32v24h13v-150h-13v24q0 18 -13 31.5t-32 13.5h-157v-279q0 -13 9 -21.5
t22 -8.5h157q27 0 51 10.5t39.5 26t27.5 31t17 26.5z" />
    <glyph glyph-name="F" unicode="F" horiz-adv-x="490" 
d="M457 631l31 -119h-13l-5.5 11t-16 25.5t-27.5 32t-39.5 25t-51.5 11.5h-131q-12 0 -21 -9t-9 -21v-252h141q19 0 32 13t13 32v24h13v-150h-13v24q0 18 -13 31.5t-32 13.5h-141v-279q0 -13 9 -22t22 -9v-13h-177v13q13 0 22 9t9 22v543q0 12 -9 21.5t-22 9.5v13h429z" />
    <glyph glyph-name="G" unicode="G" horiz-adv-x="674" 
d="M659 13v-13h-94q-17 0 -31 10.5t-19 26.5q-80 -58 -176 -58q-86 0 -158.5 44.5t-115 121t-42.5 166.5t42.5 166.5t115 121t158.5 44.5q50 0 98.5 -17t94.5 -57t72 -98l-141 -59q-28 69 -69 112t-82 53.5t-81 3.5t-70.5 -33t-45.5 -62q-10 -24 -10 -54.5t8.5 -64.5
t27 -69.5t44 -68.5t60.5 -62.5t75 -51t89.5 -34.5t103.5 -13v148q0 47 -8.5 64.5t-22.5 17.5v13h86q25 0 42.5 -17.5t17.5 -42.5v-163q0 -75 31 -75z" />
    <glyph glyph-name="H" unicode="H" horiz-adv-x="578" 
d="M519 44q0 -13 9 -22t22 -9v-13h-178v13q13 0 22 9t9 22v271h-230v-271q0 -13 9 -22t22 -9v-13h-177v13q13 0 22 9t9 22v543q0 12 -9 21.5t-22 9.5v13h177v-13q-13 0 -22 -9.5t-9 -21.5v-258h230v258q0 12 -9 21.5t-22 9.5v13h178v-13q-13 0 -22 -9.5t-9 -21.5v-543z" />
    <glyph glyph-name="I" unicode="I" horiz-adv-x="233" 
d="M173 44q0 -13 9 -22t22 -9v-13h-177v13q13 0 22 9t9 22v543q0 12 -9 21.5t-22 9.5v13h177v-13q-13 0 -22 -9.5t-9 -21.5v-543z" />
    <glyph glyph-name="J" unicode="J" horiz-adv-x="272" 
d="M69 631h177v-13q-13 0 -22 -9.5t-9 -21.5v-473q0 -46 -40.5 -84.5t-114.5 -38.5q-33 0 -60 10q2 6 6 14q17 -6 34 -6q60 0 60 88v490q0 12 -9 21.5t-22 9.5v13z" />
    <glyph glyph-name="K" unicode="K" horiz-adv-x="589" 
d="M589 13v-13h-104q-40 0 -62 34l-213 319l-36 -36v-273q0 -13 9 -22t22 -9v-13h-177v13q13 0 22 9t9 22v543q0 12 -9 21.5t-22 9.5v13h177v-13q-13 0 -22 -9.5t-9 -21.5v-253q238 239 254 254q10 9 7.5 20t-15.5 11h-37v12h167v-12h-28q-46 0 -79 -33l-157 -157
q207 -309 245 -370q28 -46 58 -46z" />
    <glyph glyph-name="L" unicode="L" horiz-adv-x="486" 
d="M471 118h14l-32 -118h-425v13q13 0 22 9t9 22v543q0 12 -9 21.5t-22 9.5v13h177v-13q-13 0 -22 -9.5t-9 -21.5v-543q0 -13 9 -21.5t22 -8.5h126q27 0 51.5 10.5t40 26t27 31t16.5 26.5z" />
    <glyph glyph-name="M" unicode="M" horiz-adv-x="723" 
d="M664 44q0 -13 9 -22t22 -9v-13h-177v13q13 0 22 9t9 22v486l-174 -530h-63q-24 0 -43.5 14.5t-27.5 37.5q-147 449 -168 512v-520q0 -13 9.5 -22t21.5 -9v-13h-77v13q13 0 22 9t9 22v543q0 12 -9 21.5t-22 9.5v13h139l199 -607l198 607h132v-13q-13 0 -22 -9.5t-9 -21.5
v-543z" />
    <glyph glyph-name="N" unicode="N" horiz-adv-x="590" 
d="M485 631h77v-13q-31 0 -31 -56v-562h-14l-443 579v-535q0 -13 9.5 -22t21.5 -9v-13h-77v13q13 0 22 9t9 22v543q0 12 -9 21.5t-22 9.5v13h111q40 0 64 -32l313 -411v399q0 12 -9 21.5t-22 9.5v13z" />
    <glyph glyph-name="O" unicode="O" horiz-adv-x="678" 
d="M339 643q86 0 158.5 -44.5t115 -121t42.5 -166.5t-42.5 -166.5t-115 -121t-158.5 -44.5t-158.5 44.5t-115 121t-42.5 166.5t42.5 166.5t115 121t158.5 44.5zM292 143q68 -44 133 -57t112 7.5t63 70.5q26 77 -29 178.5t-157 169.5q-67 44 -132.5 57t-112.5 -7.5t-63 -70.5
q-26 -77 29 -178.5t157 -169.5z" />
    <glyph glyph-name="P" unicode="P" horiz-adv-x="535" 
d="M297 631q42 0 80.5 -11.5t71 -34t51.5 -61t19 -88.5v-2q0 -63 -33.5 -108.5t-83 -66t-105.5 -20.5h-124v-195q0 -13 9 -22t22 -9v-13h-177v13q13 0 22 9t9 22v543q0 12 -9 21.5t-22 9.5v13h270zM404 433v2q0 75 -53 128.5t-129 53.5h-25q-10 0 -17 -7t-7 -17v-341h49
q76 0 129 53t53 128z" />
    <glyph glyph-name="Q" unicode="Q" horiz-adv-x="678" 
d="M655 311q0 -90 -42.5 -166.5t-115 -121t-158.5 -44.5t-158.5 44.5t-115 121t-42.5 166.5t42.5 166.5t115 121t158.5 44.5t158.5 -44.5t115 -121t42.5 -166.5zM106 491q-26 -77 29 -178.5t157 -169.5q68 -44 133 -57t112 7.5t63 70.5q26 77 -29 178.5t-157 169.5
q-67 44 -132.5 57t-112.5 -7.5t-63 -70.5zM432 -45q41 -13 72.5 -13t47.5 9t26 20t12 20l3 9h15q0 -4 -0.5 -11.5t-4 -27.5t-9.5 -37t-19.5 -35.5t-31.5 -27.5t-47.5 -8t-66.5 17q-22 11 -39 17.5t-35.5 13t-32 8.5t-25.5 1.5t-20 -6.5t-11 -16l-16 -1q0 3 0.5 7.5t4 16.5
t9.5 21.5t20 20t32.5 15t48.5 2t67 -14.5z" />
    <glyph glyph-name="R" unicode="R" horiz-adv-x="591" 
d="M587 13v-13h-104q-40 0 -62 34l-137 205h-110v-195q0 -13 9 -22t22 -9v-13h-177v13q13 0 22 9t9 22v543q0 12 -9 21.5t-22 9.5v13h270q42 0 80.5 -11.5t71 -34t51.5 -61t19 -88.5v-2q0 -64 -33.5 -109t-88.5 -67q111 -167 131 -199q28 -46 58 -46zM223 252q76 0 129 53
t53 129v1q0 75 -53 128.5t-129 53.5h-25q-10 0 -17 -7t-7 -17v-341h49z" />
    <glyph glyph-name="S" unicode="S" horiz-adv-x="570" 
d="M292 395q41 -17 65.5 -28.5t58.5 -28t54 -31.5t39.5 -33.5t28.5 -39t9 -43.5q0 -95 -75.5 -148.5t-192.5 -53.5q-107 0 -171 37.5t-79 86.5q-8 25 1 47.5t27 35t34.5 19.5t24.5 7q-16 -48 3.5 -99t67 -84.5t104.5 -33.5q42 0 74.5 13t49 32.5t24.5 37.5t8 34q0 20 -12 38
t-37 35.5t-48 29.5t-58 29q-15 7 -41.5 18.5t-45 20t-44 21.5t-42.5 24.5t-35.5 28t-28.5 33t-15.5 38t-1.5 44.5q10 74 72 117.5t147 43.5q62 0 114 -14.5t82.5 -36t47.5 -43t17 -38.5q0 -27 -23 -47t-46 -27l-23 -7q0 4 0.5 11.5t-1 28t-6 39.5t-16 42t-29.5 40t-49 28.5
t-70 11.5q-47 0 -77.5 -27.5t-30.5 -63.5q0 -40 40.5 -79.5t104.5 -65.5z" />
    <glyph glyph-name="T" unicode="T" horiz-adv-x="539" 
d="M508 631l31 -119h-13l-5.5 11t-16.5 25.5t-27.5 32t-39.5 25t-51 11.5h-32q-12 -2 -19.5 -10.5t-7.5 -19.5v-543q0 -13 9 -22t22 -9v-13h-177v13q13 0 22 9t9 22v543q0 11 -7.5 19.5t-19.5 10.5h-32q-27 0 -51 -11t-39.5 -26.5t-27.5 -30.5t-17 -26l-5 -11h-13l31 119
h477z" />
    <glyph glyph-name="U" unicode="U" 
d="M495 631h83v-13q-13 0 -22 -9.5t-9 -21.5v-369q0 -95 -67 -162t-162 -67h-37q-94 0 -161 67t-67 162v369q0 12 -9 21.5t-22 9.5v13h177v-13q-13 0 -22 -9.5t-9 -21.5v-377q0 -73 52 -124.5t125 -51.5h5q73 0 124.5 51.5t51.5 124.5v377q0 12 -9 21.5t-22 9.5v13z" />
    <glyph glyph-name="V" unicode="V" horiz-adv-x="576" 
d="M499 631h78v-13q-18 0 -26 -8t-13 -23l-192 -587h-75q-19 0 -34 11t-21 29q-161 490 -179 547q-3 10 -6.5 15.5t-11.5 10.5t-21 5v13h177v-13q-13 0 -20.5 -9t-2.5 -22l186 -565q179 550 184 565q5 13 -2.5 22t-20.5 9v13z" />
    <glyph glyph-name="W" unicode="W" horiz-adv-x="865" 
d="M789 631h78v-13q-18 0 -26 -8t-13 -23l-192 -587h-75q-19 0 -34.5 11t-20.5 29q-15 45 -74 223l-86 -263h-75q-19 0 -34 11t-21 29q-161 490 -179 547q-3 10 -6.5 15.5t-11.5 10.5t-21 5v13h177v-13q-13 0 -20.5 -9t-2.5 -22l186 -565q42 131 86 266q-76 234 -97 299
q-4 10 -7 15.5t-11.5 10.5t-20.5 5v13h177v-13q-14 0 -21 -9t-2 -22l186 -565q178 550 184 565q5 13 -2.5 22t-20.5 9v13z" />
    <glyph glyph-name="X" unicode="X" horiz-adv-x="607" 
d="M418 13q14 0 17.5 8.5t-5.5 22.5l-10 14.5t-27 39.5t-38 55.5t-47.5 69t-51.5 72.5q-126 -181 -175 -251q-10 -14 -6 -22.5t17 -8.5v-13h-78v13q18 0 28.5 8t21.5 23q8 12 183 262q-189 271 -196 281q-10 15 -21 23t-29 8v13h189v-13q-13 0 -17 -8.5t5 -22.5
q1 -2 42 -61.5t82 -119.5l40 -59q167 237 169 240q9 14 5 22.5t-17 8.5v13h80v-13q-18 0 -29 -8t-21 -23q-3 -4 -29.5 -42t-69.5 -99t-77 -110q196 -280 204 -292q10 -15 21 -23t29 -8v-13h-189v13z" />
    <glyph glyph-name="Y" unicode="Y" horiz-adv-x="567" 
d="M491 631h81v-13q-18 0 -29 -8t-21 -23q-2 -4 -181 -263v-280q0 -13 9 -22t22 -9v-13h-178l1 13q12 0 21.5 9t9.5 22v280q-20 28 -45 64.5t-47.5 69.5t-42.5 61t-33 47t-14 21q-10 15 -21 23t-29 8v13h189v-13q-13 0 -17 -8.5t5 -22.5l167 -237q163 234 165 237
q9 14 5 22.5t-17 8.5v13z" />
    <glyph glyph-name="Z" unicode="Z" horiz-adv-x="572" 
d="M386 17q27 0 51 10.5t39.5 26t27.5 31t17 26.5l5 11h13l-31 -119h-503v15q223 324 359 522q31 46 34 50q8 13 5.5 20.5t-13.5 9.5h-181q-27 0 -51.5 -11t-40 -26t-27 -30.5t-16.5 -26.5l-6 -11h-13l31 119h479v-11q-398 -571 -401 -576q-10 -14 -6 -22t17 -8h211z" />
    <glyph glyph-name="bracketleft" unicode="[" horiz-adv-x="192" 
d="M236 -100h-186v829h186v-92h-94v-645h94v-92z" />
    <glyph glyph-name="backslash" unicode="\" horiz-adv-x="369" 
d="M345 0h-106l-216 631h106z" />
    <glyph glyph-name="bracketright" unicode="]" horiz-adv-x="192" 
d="M141 -100h-186v92h95v645h-95v92h186v-829z" />
    <glyph glyph-name="underscore" unicode="_" horiz-adv-x="605" 
d="M554 -150h-504v105h504v-105z" />
    <glyph glyph-name="a" unicode="a" horiz-adv-x="486" 
d="M464 17v-13h-101q-17 0 -31 13.5t-14 30.5v31q-13 -31 -54.5 -58t-96.5 -27q-73 0 -113.5 45t-30.5 104q9 62 60 101.5t132 65.5q45 15 103 32v22q0 90 -78 90q-21 0 -40.5 -11.5t-32 -28t-22.5 -32.5t-14 -28l-4 -11l-63 34q17 19 30.5 31t38.5 29t58.5 26t72.5 9
q77 0 123 -40t46 -96v-288q0 -13 9 -22t22 -9zM318 136v191q-37 -13 -87 -29q-54 -18 -83.5 -58.5t-23.5 -89.5q9 -66 50 -95q22 -15 48 -15t46.5 12t35 34.5t14.5 49.5z" />
    <glyph glyph-name="b" unicode="b" horiz-adv-x="519" 
d="M300 472q83 0 137 -66.5t54 -169.5q0 -105 -58.5 -173.5t-142.5 -68.5q-81 0 -120 58v-20q0 -12 -8 -20t-19 -8h-119v13q13 0 22 9t9 22v504q0 13 -9 22t-22 9v13q76 6 133 39h13v-223q44 60 130 60zM250 18q61 0 95.5 58.5t34.5 156.5q0 109 -29 165t-71 56
q-35 0 -65.5 -20.5t-44.5 -51.5v-297q10 -27 31.5 -47t48.5 -20z" />
    <glyph glyph-name="c" unicode="c" horiz-adv-x="492" 
d="M457 190l18 -5q-16 -82 -78.5 -136.5t-144.5 -54.5q-94 0 -160.5 70t-66.5 169t66.5 169t160.5 70q63 0 115.5 -33t82.5 -89l-112 -45q-12 51 -50.5 85t-91.5 38q-41 3 -69.5 -17.5t-37.5 -50.5q-16 -51 13.5 -108t103.5 -97q48 -26 90.5 -35.5t71 -5t49.5 17t30.5 28.5
t9.5 30z" />
    <glyph glyph-name="d" unicode="d" horiz-adv-x="491" 
d="M466 17v-13h-113q-23 0 -31 23q-41 -33 -103 -33q-84 0 -138 67t-54 169q0 105 58.5 173.5t143.5 68.5q55 0 91 -28v108q0 13 -9 22t-22 9v13q76 6 133 39h13v-587q0 -13 9 -22t22 -9zM320 46v379q-24 23 -52 23q-61 0 -95.5 -58.5t-34.5 -156.5q0 -109 29 -164.5
t72 -55.5q45 0 81 33z" />
    <glyph glyph-name="e" unicode="e" horiz-adv-x="493" 
d="M457 190l18 -5q-16 -82 -78.5 -136.5t-144.5 -54.5q-94 0 -160.5 70t-66.5 169t66.5 169t160.5 70q43 0 79.5 -13t58 -31.5t37 -37.5t21.5 -32l6 -13l-314 -143q28 -27 66 -47q48 -26 90.5 -35.5t71 -5t49.5 17t30.5 28.5t9.5 30zM89 360q-21 -79 40 -146l207 95
q-12 50 -50 82.5t-90 36.5q-43 3 -71 -18t-36 -50z" />
    <glyph glyph-name="f" unicode="f" horiz-adv-x="257" 
d="M213 647q97 0 153 -60l-60 -47q0 3 -1 9t-5.5 21.5t-10.5 27t-17.5 21t-26.5 9.5q-60 0 -60 -99v-68h61v-16h-61v-395q0 -19 -13 -32.5t-32 -13.5h-101v13q13 0 22 9t9 22v397h-57v16h57v49q0 60 34 98.5t109 38.5z" />
    <glyph glyph-name="g" unicode="g" horiz-adv-x="467" 
d="M422 26q14 -15 17.5 -40t-7 -54t-32 -54.5t-63.5 -42.5t-95 -17q-120 0 -227 89l-18 16l69 81q33 -36 81 -63.5t97 -39.5t95 0t71 50q10 18 9 35t-11 27q-13 15 -44 18t-55.5 0t-71.5 -12q-46 -8 -70 -11.5t-54.5 -1.5t-47.5 15q-22 16 -25 48q-5 41 33 77
q-41 56 -41 125q0 85 58.5 145.5t141.5 60.5q44 0 83 -19q17 -7 33 -3l89 26v-40h-92q41 -28 64.5 -73t23.5 -97q0 -85 -58.5 -145t-142.5 -60q-87 0 -147 66q-30 -29 -27 -61q3 -24 18 -35q14 -10 42.5 -11.5t51 2t64.5 10.5q36 7 57 10t49.5 4.5t48.5 -5t33 -20.5zM77 381
q-21 -37 12.5 -88.5t102 -88.5t131.5 -37t83.5 37t-13 88.5t-101.5 88.5t-131 37t-84 -37z" />
    <glyph glyph-name="h" unicode="h" horiz-adv-x="496" 
d="M297 17q13 0 22 9t9 22v318q0 88 -60 88q-30 0 -56.5 -16.5t-42.5 -42.5v-347q0 -13 9 -22t22 -9v-13h-177v13q13 0 22 9t9 22v504q0 13 -9 22t-22 9v13q76 6 133 39h13v-214q43 51 119 51q74 0 114.5 -38.5t40.5 -84.5v-83.5v-146.5v-71q0 -13 9.5 -22t21.5 -9v-13h-177
v13z" />
    <glyph glyph-name="i" unicode="i" horiz-adv-x="226" 
d="M25 17q13 0 22 9t9 22v331q0 13 -9 22t-22 9v13q77 5 133 38h13v-413q0 -13 9 -22t22 -9v-13h-177v13zM112.5 522q-23.5 0 -40 16.5t-16.5 40t16.5 40t40 16.5t40 -16.5t16.5 -40t-16.5 -40t-40 -16.5z" />
    <glyph glyph-name="j" unicode="j" horiz-adv-x="217" 
d="M24 410v13q77 5 133 38h13v-518q0 -46 -40.5 -84.5t-114.5 -38.5q-33 0 -60 10q2 6 6 14q17 -6 34 -6q60 0 60 88v453q0 13 -9 22t-22 9zM114 522q-23 0 -39.5 16.5t-16.5 40t16.5 40t39.5 16.5t39.5 -16.5t16.5 -40t-16.5 -40t-39.5 -16.5z" />
    <glyph glyph-name="k" unicode="k" horiz-adv-x="512" 
d="M507 17v-13h-104q-40 0 -62 34l-145 221l-27 -27v-184q0 -13 9 -22t22 -9v-13h-177v13q13 0 22 9t9 22v504q0 13 -9 22t-22 9v13q77 6 133 39h13v-387q152 153 170 170q10 9 7.5 20t-15.5 11h-37v12h167v-12h-28q-47 0 -80 -32l-81 -82q138 -209 177 -272q28 -46 58 -46z
" />
    <glyph glyph-name="l" unicode="l" horiz-adv-x="224" 
d="M23 17q13 0 22 9t9 22v504q0 13 -9 22t-22 9v13q77 6 133 39h13v-587q0 -13 9 -22t22 -9v-13h-177v13z" />
    <glyph glyph-name="m" unicode="m" horiz-adv-x="741" 
d="M542 17q13 0 22 9t9 22v318q0 88 -60 88q-55 0 -92 -48q18 -28 18 -57v-83.5v-146.5v-71q0 -13 9.5 -22t21.5 -9v-13h-177v13q13 0 22 9t9 22v318q0 88 -60 88q-27 0 -51.5 -14t-41.5 -36v-356q0 -13 9 -22t22 -9v-13h-177v13q13 0 22 9t9 22v331q0 13 -9 22t-22 9v13
q76 5 133 38h13v-33q42 44 113 44q84 0 128 -53q43 53 121 53q74 0 114.5 -38.5t40.5 -84.5v-83.5v-146.5v-71q0 -13 9 -22t22 -9v-13h-177v13z" />
    <glyph glyph-name="n" unicode="n" horiz-adv-x="492" 
d="M293 17q13 0 22 9t9 22v318q0 88 -60 88q-27 0 -51.5 -14t-41.5 -36v-356q0 -13 9 -22t22 -9v-13h-177v13q13 0 22 9t9 22v331q0 13 -9 22t-22 9v13q76 5 133 38h13v-33q42 44 113 44q74 0 114.5 -38.5t40.5 -84.5v-83.5v-146.5v-71q0 -13 9.5 -22t21.5 -9v-13h-177v13z
" />
    <glyph glyph-name="o" unicode="o" horiz-adv-x="505" 
d="M252 472q94 0 161 -70t67 -169t-67 -169t-161 -70t-160.5 70t-66.5 169t66.5 169t160.5 70zM206 154.5q77 -42.5 148.5 -42.5t95 43t-14.5 103t-115.5 102.5t-148.5 42.5t-94.5 -42.5t14.5 -103t115 -103z" />
    <glyph glyph-name="p" unicode="p" horiz-adv-x="518" 
d="M299 472q83 0 137 -66.5t54 -169.5q0 -105 -58.5 -173.5t-142.5 -68.5q-80 0 -119 56v-175q0 -13 9 -22t22 -9v-13h-177v13q13 0 22 9t9 22v504q0 13 -9 22t-22 9v13q77 6 133 38h13v-47q44 58 129 58zM249 18q61 0 95.5 59t34.5 156q0 109 -29 165t-72 56
q-34 0 -63.5 -20t-44.5 -49v-303q11 -26 31.5 -45t47.5 -19z" />
    <glyph glyph-name="q" unicode="q" horiz-adv-x="510" 
d="M317 -157q13 0 22 9.5t9 21.5v180q-44 -60 -129 -60q-84 0 -138 67t-54 169q0 105 58.5 173.5t143.5 68.5q72 0 111 -46q63 7 110 35h14v-587q0 -12 9 -21.5t22 -9.5v-12h-178v12zM239 13q35 0 65.5 20.5t43.5 51.5v296q-9 27 -30.5 47t-49.5 20q-61 0 -95.5 -58.5
t-34.5 -156.5q0 -109 29 -164.5t72 -55.5z" />
    <glyph glyph-name="r" unicode="r" horiz-adv-x="369" 
d="M293 472q39 0 71 -12l-25 -65q-36 26 -71.5 30.5t-59 -7t-37.5 -30.5v-340q0 -13 9 -22t22 -9v-13h-177v13q13 0 22 9t9 22v331q0 13 -9 22t-22 9v13q77 5 133 38h13v-44q43 55 122 55z" />
    <glyph glyph-name="s" unicode="s" horiz-adv-x="424" 
d="M218 310q36 -15 56.5 -25t47.5 -26t41.5 -31t25 -36.5t10.5 -46.5q0 -68 -55 -107t-129 -39q-72 0 -122.5 23.5t-60.5 56.5q-11 34 17 56.5t46 22.5q-18 -54 18.5 -101t100.5 -47q30 0 53 9.5t35 23.5t18 27.5t6 24.5q0 13 -7.5 24.5t-24.5 23t-30.5 18.5t-39.5 19
q-7 3 -11 5q-8 4 -29 13.5t-33 15t-31.5 16t-31 19t-25.5 21t-21 25t-10.5 28t-1.5 32.5q7 54 52 85t107 31q84 0 136 -33t52 -62q0 -19 -16.5 -33.5t-33.5 -19.5l-16 -5q-1 5 -2.5 14.5t-9.5 34t-20.5 43t-37.5 33.5t-57 15q-34 0 -54.5 -17.5t-20.5 -43.5q0 -14 8 -26.5
t25.5 -23.5t33 -18.5t42.5 -18.5z" />
    <glyph glyph-name="t" unicode="t" horiz-adv-x="354" 
d="M290 105l60 -47q-55 -60 -153 -60q-75 0 -108.5 38.5t-33.5 97.5v311h-35v16h35v81q0 13 -9 22t-22 9v13h100q19 0 32.5 -13.5t13.5 -32.5v-79h83v-16h-83v-329q0 -100 60 -100q23 0 38 22.5t19 44.5z" />
    <glyph glyph-name="u" unicode="u" horiz-adv-x="505" 
d="M480 17v-13h-113q-14 0 -23.5 9.5t-9.5 23.5v17q-43 -60 -125 -60q-75 0 -115.5 39t-40.5 84v70v129v63q0 13 -9 22t-22 9v13q76 5 133 38h13v-360q0 -88 60 -88q34 0 63.5 20.5t42.5 50.5v295q0 13 -9 22t-22 9v13q76 5 133 38h13v-413q0 -13 9 -22t22 -9z" />
    <glyph glyph-name="v" unicode="v" horiz-adv-x="435" 
d="M303 461h116q0 -68 -52 -227l-75 -230h-72q-19 0 -34.5 11.5t-21.5 29.5q-90 274 -122 372q-3 10 -6.5 15.5t-11.5 10.5t-21 5v13h177v-13q-13 0 -20.5 -9t-2.5 -22q7 -18 122 -375q1 -4 4.5 -4t4.5 4q37 119 49.5 159.5t13.5 82t-6.5 72t-16.5 55t-17 37.5z" />
    <glyph glyph-name="w" unicode="w" horiz-adv-x="662" 
d="M530 461h116q0 -69 -52 -228l-75 -229h-73q-19 0 -34.5 11.5t-21.5 29.5q-7 24 -42 129l-56 -170h-72q-19 0 -34.5 11.5t-21.5 29.5q-90 274 -122 372q-3 10 -6.5 15.5t-11.5 10.5t-21 5v13h177v-13q-13 0 -20.5 -9t-2.5 -22q7 -18 122 -375q1 -4 4.5 -4t4.5 4
q37 119 50 159v1.5v1.5q-61 186 -69 213q-3 10 -6.5 15.5t-11.5 10.5t-21 5v13h177v-13q-14 0 -21 -9t-2 -22q6 -18 122 -375q1 -4 4 -4t4 4q38 119 50.5 159.5t13.5 82t-6.5 72t-16.5 55t-17 37.5z" />
    <glyph glyph-name="x" unicode="x" horiz-adv-x="497" 
d="M303 17q14 0 17.5 8.5t-5.5 22.5q-5 7 -114 163q-34 -38 -36 -41q-21 -27 -32.5 -54t-12.5 -46t1 -34.5t5 -23.5l4 -8h-117q46 68 128 163q16 18 51 58q-108 155 -134 192q-10 15 -21 23t-29 8v13h189v-13q-13 0 -17 -8.5t5 -22.5q2 -2 15.5 -21.5t38 -54.5t46.5 -67
q17 20 19 22q22 27 33.5 54t12.5 46.5t-1 35t-6 22.5l-4 8h117q-45 -68 -128 -163q-9 -10 -34 -39q123 -176 148 -212q10 -15 21 -23t29 -8v-13h-189v13z" />
    <glyph glyph-name="y" unicode="y" horiz-adv-x="435" 
d="M303 461h116q0 -68 -52 -227q-57 -173 -76 -230q-2 -3 -8 -20.5t-9 -28.5q-1 -2 -3 -8q-7 -20 -11.5 -31.5t-16 -32.5t-23.5 -33t-31 -21.5t-42 -9.5q-24 0 -44.5 9t-31.5 21.5t-19 25.5t-10 22l-3 8l59 29q0 -3 1 -8.5t5 -20t10 -25.5t17.5 -22t25.5 -13q26 -5 51 20
t48 92q3 6 7 18t7 20l3 9h-53q-19 0 -34.5 11.5t-21.5 29.5q-90 274 -122 372q-3 10 -6.5 15.5t-11.5 10.5t-21 5v13h177v-13q-13 0 -20.5 -9t-2.5 -22q7 -18 122 -375q1 -4 4.5 -4t4.5 4q37 119 49.5 159.5t13.5 82t-6.5 72t-16.5 55t-17 37.5z" />
    <glyph glyph-name="z" unicode="z" horiz-adv-x="470" 
d="M440 122h13l-31 -118h-408v15q286 393 289 398q9 13 6.5 21t-13.5 9h-108q-27 0 -51 -10.5t-39.5 -26t-27.5 -31t-17 -26.5l-5 -10h-13l31 118h383v-11q-285 -397 -288 -402q-10 -14 -6 -22t17 -8h128q27 0 51.5 10.5t40 26t27 31t16.5 26.5z" />
    <glyph glyph-name="braceleft" unicode="{" horiz-adv-x="273" 
d="M251 -100q-34 0 -61 15.5t-42 39.5t-22.5 49.5t-7.5 49.5q2 82 -1 134q-1 20 -8.5 37t-16 26t-19.5 16t-14.5 8.5t-7.5 2.5l-16 4v59l15 5q3 1 7.5 3t15.5 9.5t19.5 17.5t16 27.5t8.5 38.5q1 22 1.5 55.5t0.5 55.5l-1 22q0 24 7.5 49.5t22.5 49.5t42 39.5t61 15.5h67v-77
q-32 4 -39 4q-56 0 -56 -34v-101q-1 -3 0 -17.5t-1.5 -40t-7 -51.5t-16.5 -53t-28 -43q14 -14 25 -36t16 -42t8 -42t3.5 -31t0.5 -15v-139q0 -34 56 -34q3 0 13 1t18 2l8 1v-81h-67z" />
    <glyph glyph-name="verticalbar" unicode="|" horiz-adv-x="192" 
d="M141 -100h-91v811h91v-811z" />
    <glyph glyph-name="braceright" unicode="}" horiz-adv-x="273" 
d="M21 -100h-66v77q31 -4 39 -4q56 0 56 34v101q1 4 -0.5 18t1.5 39.5t7.5 51.5t16 53t28.5 43q-15 14 -25.5 36t-16 42t-8 42.5t-3 31.5t-0.5 14v139q0 34 -56 34l-39 -4v81h66q35 0 62 -15.5t42 -39.5t22.5 -49.5t7.5 -49.5q-2 -82 1 -133q1 -21 8.5 -38t16 -26t19 -16
t14.5 -8.5t7 -2.5l17 -4v-59l-15 -5q-3 -1 -8 -3t-15.5 -9.5t-19 -17.5t-16 -27.5t-8.5 -37.5q-1 -23 -1.5 -56.5t-0.5 -55.5l1 -22q0 -24 -7.5 -49.5t-22.5 -49.5t-42 -39.5t-62 -15.5z" />
    <glyph glyph-name="nonbreakingspace" unicode="&#xa0;" horiz-adv-x="275" 
 />
    <glyph glyph-name="exclamdown" unicode="&#xa1;" horiz-adv-x="219" 
d="M106 388q-24 0 -42.5 19t-18.5 44q0 29 18 47t45 18q26 0 45 -19.5t19 -45.5q0 -25 -20.5 -44t-45.5 -19zM115 355q3 -21 18 -101t24 -130t17.5 -108.5t8.5 -81.5q0 -35 -21 -54.5t-56 -19.5q-28 0 -48.5 16t-20.5 58q0 54 24.5 201t40.5 220h13z" />
    <glyph glyph-name="cent" unicode="&#xa2;" horiz-adv-x="507" 
d="M453 126l17 -18q-3 -5 -7.5 -12t-21.5 -25.5t-37 -33t-52.5 -26.5t-68.5 -12v-159h-51v164q-79 16 -133.5 74.5t-59.5 152.5t48.5 156.5t144.5 70.5v158h51v-159q76 -8 120.5 -51.5t47.5 -88.5q1 -13 -3.5 -27.5t-21.5 -28t-44 -13.5q-61 0 -79 70q-1 3 -3.5 14t-4 18
t-5 18.5t-6.5 18.5t-7.5 16.5t-10 14.5t-12.5 8.5t-15 3t-17 -4.5q-29 -15 -37.5 -65t3 -106t49 -106t90.5 -64q23 -5 42.5 -3t35 9.5t26.5 15.5t16 14z" />
    <glyph glyph-name="sterling" unicode="&#xa3;" horiz-adv-x="542" 
d="M483 91l21 -63q1 -3 -2 -5q-41 -23 -97 -23q-36 0 -126 30q-96 32 -179 -25q-6 -4 -12.5 -2.5t-9.5 7.5l-24 42q-7 12 3 21q9 8 18 17t21.5 25t20 32.5t15.5 39.5t6.5 46t-6.5 51l-5 14h-88v50h74q-12 45 -15 56q-22 90 33 161q63 80 184 80q27 0 49 -5.5t46.5 -21
t45 -48.5t36.5 -83l2 -7l-111 -23v8q0 6 -1 18t-6 38t-13.5 47t-26 37.5t-41.5 16.5q-47 0 -62 -55t7 -127q2 -6 12 -37.5t16 -51.5q0 -3 4 -3h139v-50h-125q-5 0 -4 -4q-1 -10 0 -25t-3.5 -38.5t-12 -46.5t-24.5 -48.5t-41 -45.5q-3 -3 -1.5 -6t5.5 -2q35 10 96 -4
q55 -12 87.5 -12.5t47 5t40.5 23.5q5 3 7 -3z" />
    <glyph glyph-name="yen" unicode="&#xa5;" horiz-adv-x="685" 
d="M494 631h175v-18q-3 -1 -9 -3.5t-23 -12.5t-32 -21.5t-31.5 -31t-26.5 -41.5q-11 -22 -34.5 -72.5t-41.5 -89.5l-19 -39v-16h117v-50h-116v-26q0 -8 1 -21h115v-51h-110q6 -42 18.5 -72.5t21.5 -39.5l9 -10v-16h-274v16q4 3 10.5 9.5t20 38t19.5 74.5h-111v51h115
q1 14 1 21v26h-116v50h116v1l-101 181q-19 33 -40 60.5t-37.5 42.5t-30.5 25t-22 14l-8 3v18h321v-16q-2 -1 -6 -3.5t-11.5 -12t-11 -22t0 -35t17.5 -48.5l68 -129q4 -8 13 -8t13 8l65 142q10 24 11.5 43.5t-4 31t-13 19.5t-13.5 10l-6 3v17z" />
    <glyph glyph-name="section" unicode="&#xa7;" horiz-adv-x="535" 
d="M375 194q85 -57 85 -130q0 -51 -30.5 -89.5t-76.5 -56.5t-99 -18q-39 0 -86.5 6.5t-76.5 12.5l-29 7v168h22q3 -7 9.5 -18t27 -39.5t41.5 -50.5t53 -40t64 -18q33 0 51.5 14t18.5 37q0 13 -7.5 25.5t-17 21.5t-29.5 20.5t-32.5 18t-38.5 18.5q-34 16 -52 25.5t-46.5 28
t-43.5 35t-26.5 41.5t-11.5 53q0 58 32 95t84 52q-84 55 -84 131q0 42 17 74t46 50t61.5 26.5t67.5 8.5q30 0 76 -9.5t76 -19.5l31 -9l-1 -163h-19q-3 7 -10 17.5t-29 37.5t-46 47.5t-60 37.5t-73 17q-18 0 -33 -7.5t-15 -21.5q0 -13 9 -25.5t31 -25.5t38 -21.5t48 -23.5
l42 -19.5t39 -20t38.5 -23.5t31.5 -25.5t27.5 -30t16 -33.5t6.5 -39q0 -54 -32 -92t-85 -57zM344 222q17 -2 27 8.5t10 27.5q0 7 -2.5 14.5t-8.5 14.5t-11.5 13t-15.5 13t-16 11t-19 11t-18 10t-18.5 9.5t-15.5 7.5q-23 12 -43 17.5t-34.5 6t-25 -3.5t-15.5 -11t-5 -16
q0 -23 46.5 -55.5t96.5 -54t68 -23.5z" />
    <glyph glyph-name="copyright" unicode="&#xa9;" horiz-adv-x="713" 
d="M356.5 630q130.5 0 223 -92.5t92.5 -222.5t-92.5 -222.5t-223 -92.5t-223 92.5t-92.5 222.5t92.5 222.5t223 92.5zM356.5 28q118.5 0 202.5 84t84 202.5t-84 203t-202.5 84.5t-202.5 -84.5t-84 -203t84 -202.5t202.5 -84zM411 206q26 -6 49.5 2t34 18t10.5 12l13 -14
q-2 -3 -5.5 -8.5t-16.5 -19.5t-28 -25t-39.5 -19.5t-51.5 -8.5q-70 0 -124 46t-58 127q-4 76 41 123.5t121 47.5q66 0 105.5 -34.5t41.5 -71.5q0 -17 -11.5 -34.5t-40.5 -17.5q-46 0 -59 53q-1 2 -2.5 10t-3 13.5t-4 14t-5 14t-6 12.5t-7.5 10.5t-9 6.5t-11 2.5t-13 -3.5
q-22 -11 -28.5 -48.5t2.5 -79.5t37 -80t68 -48z" />
    <glyph glyph-name="guillemotleft" unicode="&#xab;" horiz-adv-x="501" 
d="M289 436l-141 -167l141 -169h-113l-142 166q-2 1 -2 2q0 2 2 4l144 164h111zM469 436l-141 -167l141 -169h-113l-142 166l-2 2q0 2 2 4l143 164h112z" />
    <glyph glyph-name="softhyphen" unicode="&#xad;" horiz-adv-x="0" 
 />
    <glyph glyph-name="registered" unicode="&#xae;" horiz-adv-x="482" 
d="M241 705q84 0 143 -59t59 -143t-59 -143.5t-143 -59.5t-143.5 59.5t-59.5 143.5t59.5 143t143.5 59zM241 319q76 0 130 54t54 130t-54 130t-130 54t-130 -54t-54 -130t54 -130t130 -54zM323 443q14 -20 27 -32t20 -13l6 -2v-7h-121v7q15 9 3.5 41.5t-26.5 42.5
q-8 4 -12.5 1.5t-4.5 -9.5q0 -29 5.5 -48t10.5 -24l5 -4v-6h-105v6q2 1 5.5 5.5t9.5 24.5t6 49v72q0 29 -5.5 49t-10.5 25l-5 5v6l101 1q50 0 77.5 -20t27.5 -55q0 -29 -20.5 -46.5t-50.5 -24.5q34 -10 57 -44zM217 492q26 2 40.5 19t14.5 47q0 62 -55 65v-131z" />
    <glyph glyph-name="degree" unicode="&#xb0;" horiz-adv-x="288" 
d="M143 731q48 0 81 -33.5t33 -81.5q0 -50 -32.5 -83t-81.5 -33q-48 0 -79.5 33t-31.5 83q0 49 31.5 82t79.5 33zM143 553q27 0 44 17t17 46q0 26 -17.5 44t-43.5 18t-42.5 -17.5t-16.5 -44.5q0 -29 16 -46t43 -17z" />
    <glyph glyph-name="periodcentered" unicode="&#xb7;" horiz-adv-x="188" 
d="M94 322q25 0 43.5 -17t18.5 -42q0 -24 -18.5 -43.5t-43.5 -19.5q-28 0 -45 19.5t-17 43.5q0 25 18 42t44 17z" />
    <glyph glyph-name="guillemotright" unicode="&#xbb;" horiz-adv-x="501" 
d="M289 268q0 -1 -2 -3l-144 -165h-111l141 168l-141 168h113l142 -165q2 -2 2 -3zM466 271l3 -3q0 -1 -3 -3l-143 -165h-111l141 168l-141 168h113z" />
    <glyph glyph-name="questiondown" unicode="&#xbf;" horiz-adv-x="349" 
d="M256 386q-25 0 -43 18t-18 43t17.5 43t43.5 18q25 0 43 -18.5t18 -44.5q0 -24 -19 -41.5t-42 -17.5zM388 -1l19 1q-27 -63 -78 -101.5t-119 -38.5q-75 0 -128.5 43.5t-53.5 112.5q1 36 17 69t40.5 56.5t52.5 50t52 49.5t39.5 54.5t15.5 66.5h21q0 -51 -14 -100.5t-31 -81
t-31 -68t-14 -63.5q0 -49 29.5 -77.5t69.5 -28.5q32 0 64 15t49 41z" />
    <glyph glyph-name="Agrave" unicode="&#xc0;" 
d="M308 672h-32l-103 118h80zM424 16q13 0 20.5 9t2.5 22q-2 5 -10.5 29.5t-23 64.5t-27.5 78h-273q-14 -40 -28.5 -80t-23.5 -65.5t-9 -26.5q-5 -13 2 -22t21 -9v-13h-77v13q18 0 27 10.5t14 27.5q6 16 56.5 161t98.5 282l48 137h82q15 0 28 -9t18 -24q171 -490 192 -554
q4 -10 7 -15.5t11 -10.5t21 -5v-13h-177v13zM118 231h263q-21 60 -54 154t-55 158l-22 64q-84 -241 -132 -376z" />
    <glyph glyph-name="Aacute" unicode="&#xc1;" 
d="M408 790l-103 -118h-32l55 118h80zM424 16q13 0 20.5 9t2.5 22q-2 5 -10.5 29.5t-23 64.5t-27.5 78h-273q-14 -40 -28.5 -80t-23.5 -65.5t-9 -26.5q-5 -13 2 -22t21 -9v-13h-77v13q18 0 27 10.5t14 27.5l203 580h82q15 0 28 -9t18 -24q171 -490 192 -554q4 -10 7 -15.5
t11 -10.5t21 -5v-13h-177v13zM118 231h263q-21 60 -54 154t-55 158l-22 64q-84 -241 -132 -376z" />
    <glyph glyph-name="Acircumflex" unicode="&#xc2;" 
d="M285 756l-50 -84h-50l72 118h56l72 -118h-50zM424 16q13 0 20.5 9t2.5 22q-2 5 -10.5 29.5t-23 64.5t-27.5 78h-273q-14 -40 -28.5 -80t-23.5 -65.5t-9 -26.5q-5 -13 2 -22t21 -9v-13h-77v13q18 0 27 10.5t14 27.5l203 580h82q15 0 28 -9t18 -24q171 -490 192 -554
q4 -10 7 -15.5t11 -10.5t21 -5v-13h-177v13zM118 231h263q-21 60 -54 154t-55 158l-22 64q-84 -241 -132 -376z" />
    <glyph glyph-name="Atilde" unicode="&#xc3;" 
d="M244 716q-14 0 -27 -7.5t-19 -15.5l-6 -8v47q2 3 6.5 7t21 10.5t35.5 6.5q21 0 51.5 -14t49.5 -14q10 0 23 7t20 14l8 7v-45q-16 -14 -28 -18t-37 -4q-16 0 -49 13.5t-49 13.5zM424 16q13 0 20.5 9t2.5 22q-2 5 -10.5 29.5t-23 64.5t-27.5 78h-273q-14 -40 -28.5 -80
t-23.5 -65.5t-9 -26.5q-5 -13 2 -22t21 -9v-13h-77v13q18 0 27 10.5t14 27.5l203 580h82q15 0 28 -9t18 -24q171 -490 192 -554q4 -10 7 -15.5t11 -10.5t21 -5v-13h-177v13zM118 231h263q-21 60 -54 154t-55 158l-22 64q-84 -241 -132 -376z" />
    <glyph glyph-name="Adieresis" unicode="&#xc4;" 
d="M242 672q-19 0 -31 12.5t-12 32.5q0 19 12 31.5t30.5 12.5t31 -12.5t12.5 -31.5q0 -20 -12 -32.5t-31 -12.5zM356 672q-19 0 -30.5 12.5t-11.5 32.5q0 19 12 31.5t30.5 12.5t31 -12.5t12.5 -31.5q0 -20 -12.5 -32.5t-31.5 -12.5zM424 16q13 0 20.5 9t2.5 22
q-2 5 -10.5 29.5t-23 64.5t-27.5 78h-273q-14 -40 -28.5 -80t-23.5 -65.5t-9 -26.5q-5 -13 2 -22t21 -9v-13h-77v13q18 0 27 10.5t14 27.5l203 580h82q15 0 28 -9t18 -24q171 -490 192 -554q4 -10 7 -15.5t11 -10.5t21 -5v-13h-177v13zM118 231h263q-21 60 -54 154t-55 158
l-22 64q-84 -241 -132 -376z" />
    <glyph glyph-name="Aring" unicode="&#xc5;" 
d="M299.5 650q-31.5 0 -54 22.5t-22.5 54.5t22.5 54.5t54 22.5t54 -22.5t22.5 -54.5t-22.5 -54.5t-54 -22.5zM299.5 766q-16.5 0 -28 -11.5t-11.5 -27.5t11.5 -27.5t28 -11.5t28 11.5t11.5 27.5t-11.5 27.5t-28 11.5zM424 16q13 0 20.5 9t2.5 22q-2 5 -10.5 29.5t-23 64.5
t-27.5 78h-273q-14 -40 -28.5 -80t-23.5 -65.5t-9 -26.5q-5 -13 2 -22t21 -9v-13h-77v13q18 0 27 10.5t14 27.5l203 580h82q15 0 28 -9t18 -24q171 -490 192 -554q4 -10 7 -15.5t11 -10.5t21 -5v-13h-177v13zM118 231h263q-21 60 -54 154t-55 158l-22 64q-84 -241 -132 -376
z" />
    <glyph glyph-name="AE" unicode="&#xc6;" horiz-adv-x="751" 
d="M723 122h13l-31 -119h-455v13q12 0 21.5 9t9.5 22v172h-168q-14 -40 -28.5 -80t-23.5 -65.5t-9 -26.5q-5 -13 2 -22t21 -9v-13h-77v13q18 0 27 10.5t14 27.5l203 580h453l31 -119h-13q-2 5 -5.5 12t-16 25t-27.5 31.5t-39.5 25t-51.5 11.5h-147q-13 0 -21.5 -8.5
t-8.5 -21.5v-252h157q18 0 31.5 13.5t13.5 31.5v24h13v-150h-13v24q0 18 -13.5 31.5t-31.5 13.5h-157v-279q0 -13 9 -21.5t22 -8.5h156q27 0 51.5 11t40 26t27 30.5t16.5 26.5zM281 231v359q0 9 -6 17h-25q-84 -241 -132 -376h163z" />
    <glyph glyph-name="Ccedilla" unicode="&#xc7;" horiz-adv-x="634" 
d="M339 -17h-5.5h-5.5l-3 -22q3 -1 8 -2.5t17.5 -8.5t21.5 -16t14.5 -25t2.5 -34q-5 -24 -21.5 -38.5t-36.5 -19t-40 -5t-33 1.5l-13 2l3 39q4 -1 10 -1.5t23 -1t30 1.5t25 9t14 19q3 19 -15 33t-37 18l-20 3l6 52q-112 20 -186.5 112.5t-74.5 214.5q0 90 42.5 166.5
t115 121t158.5 44.5q50 0 98.5 -17t94.5 -57.5t72 -98.5l-141 -58q-28 69 -69 111.5t-83 53.5t-82 4t-70.5 -33t-43.5 -63q-10 -31 -10 -67t14 -76.5t36.5 -77t58 -69t78.5 -53.5q61 -29 115 -36.5t88 2t60 25t37 27.5t12 15q6 -5 17 -13q-39 -83 -115 -133t-167 -50z" />
    <glyph glyph-name="Egrave" unicode="&#xc8;" horiz-adv-x="529" 
d="M304 672h-33l-102 118h80zM502 122h13l-31 -119h-456v13q13 0 22 9t9 22v543q0 13 -9 22t-22 9v13h446l31 -119h-13q-2 5 -5.5 12t-16.5 25t-27.5 31.5t-39.5 25t-51 11.5h-148q-12 0 -21 -8.5t-9 -21.5v-252h157q19 0 32 13.5t13 31.5v24h13v-150h-13v24q0 18 -13 31.5
t-32 13.5h-157v-279q0 -13 9 -21.5t22 -8.5h157q27 0 51 11t39.5 26t27.5 30.5t17 26.5z" />
    <glyph glyph-name="Eacute" unicode="&#xc9;" horiz-adv-x="529" 
d="M362 790l-102 -118h-32l55 118h79zM502 122h13l-31 -119h-456v13q13 0 22 9t9 22v543q0 13 -9 22t-22 9v13h446l31 -119h-13q-2 5 -5.5 12t-16.5 25t-27.5 31.5t-39.5 25t-51 11.5h-148q-12 0 -21 -8.5t-9 -21.5v-252h157q19 0 32 13.5t13 31.5v24h13v-150h-13v24
q0 18 -13 31.5t-32 13.5h-157v-279q0 -13 9 -21.5t22 -8.5h157q27 0 51 11t39.5 26t27.5 30.5t17 26.5z" />
    <glyph glyph-name="Ecircumflex" unicode="&#xca;" horiz-adv-x="529" 
d="M271 756l-49 -85h-51l72 118h57l72 -118h-51zM502 122h13l-31 -119h-456v13q13 0 22 9t9 22v543q0 13 -9 22t-22 9v13h446l31 -119h-13q-2 5 -5.5 12t-16.5 25t-27.5 31.5t-39.5 25t-51 11.5h-148q-12 0 -21 -8.5t-9 -21.5v-252h157q19 0 32 13.5t13 31.5v24h13v-150h-13
v24q0 18 -13 31.5t-32 13.5h-157v-279q0 -13 9 -21.5t22 -8.5h157q27 0 51 11t39.5 26t27.5 30.5t17 26.5z" />
    <glyph glyph-name="Edieresis" unicode="&#xcb;" horiz-adv-x="529" 
d="M213.5 672q-18.5 0 -30.5 12.5t-12 32.5q0 19 12 31.5t30.5 12.5t31 -12.5t12.5 -31.5q0 -20 -12.5 -32.5t-31 -12.5zM328 672q-19 0 -30.5 12.5t-11.5 32.5q0 19 12 31.5t30.5 12.5t31 -12.5t12.5 -31.5q0 -20 -12.5 -32.5t-31.5 -12.5zM502 122h13l-31 -119h-456v13
q13 0 22 9t9 22v543q0 13 -9 22t-22 9v13h446l31 -119h-13q-2 5 -5.5 12t-16.5 25t-27.5 31.5t-39.5 25t-51 11.5h-148q-12 0 -21 -8.5t-9 -21.5v-252h157q19 0 32 13.5t13 31.5v24h13v-150h-13v24q0 18 -13 31.5t-32 13.5h-157v-279q0 -13 9 -21.5t22 -8.5h157q27 0 51 11
t39.5 26t27.5 30.5t17 26.5z" />
    <glyph glyph-name="Igrave" unicode="&#xcc;" horiz-adv-x="233" 
d="M143 672h-32l-102 118h80zM174 47q0 -13 9 -22t22 -9v-13h-178v13q13 0 22 9t9 22v543q0 13 -9 22t-22 9v13h178v-13q-13 0 -22 -9t-9 -22v-543z" />
    <glyph glyph-name="Iacute" unicode="&#xcd;" horiz-adv-x="234" 
d="M244 790l-102 -118h-32l55 118h79zM205 621q-13 0 -22 -9t-9 -22v-543q0 -13 9 -22t22 -9v-13h-177v13q13 0 22 9t9 22v543q0 13 -9 22t-22 9v13h177v-13z" />
    <glyph glyph-name="Icircumflex" unicode="&#xce;" horiz-adv-x="233" 
d="M116 756l-49 -84h-51l72 118h57l72 -118h-51zM205 621q-13 0 -22 -9t-9 -22v-543q0 -13 9 -22t22 -9v-13h-177v13q13 0 22 9t9 22v543q0 13 -9 22t-22 9v13h177v-13z" />
    <glyph glyph-name="Idieresis" unicode="&#xcf;" horiz-adv-x="234" 
d="M173 672q-19 0 -30.5 12.5t-11.5 32.5q0 19 12 31.5t30.5 12.5t31 -12.5t12.5 -31.5q0 -20 -12.5 -32.5t-31.5 -12.5zM102 717q0 -20 -12.5 -32.5t-31 -12.5t-30.5 12.5t-12 32.5q0 19 12 31.5t30.5 12.5t31 -12.5t12.5 -31.5zM205 621q-13 0 -22 -9t-9 -22v-543
q0 -13 9 -22t22 -9v-13h-177v13q13 0 22 9t9 22v543q0 13 -9 22t-22 9v13h177v-13z" />
    <glyph glyph-name="Ntilde" unicode="&#xd1;" horiz-adv-x="590" 
d="M240 715q-14 0 -27 -7.5t-19 -15.5l-6 -8v47q2 3 6 7t20.5 10.5t36.5 6.5t51 -14t49 -14q11 0 23.5 7t20.5 14l7 7v-44q-16 -15 -28 -18.5t-37 -4.5q-15 0 -48 13.5t-49 13.5zM485 634h77v-13q-31 0 -31 -55v-563h-14l-443 579v-535q0 -13 9.5 -22t21.5 -9v-13h-77v13
q13 0 22 9t9 22v543q0 13 -9 22t-22 9v13h111q40 0 64 -32l313 -411v399q0 13 -9 22t-22 9v13z" />
    <glyph glyph-name="Ograve" unicode="&#xd2;" horiz-adv-x="678" 
d="M390 672h-32l-102 118h80zM339 646q86 0 158.5 -44t115 -120.5t42.5 -167t-42.5 -167t-115 -120.5t-158.5 -44t-158.5 44t-115 120.5t-42.5 167t42.5 167t115 120.5t158.5 44zM292 146q68 -44 133 -57t112 7.5t63 70.5q26 77 -29 179t-157 169q-67 45 -132.5 57.5
t-112.5 -8t-63 -70.5q-26 -76 29 -178t157 -170z" />
    <glyph glyph-name="Oacute" unicode="&#xd3;" horiz-adv-x="678" 
d="M436 790l-103 -118h-32l55 118h80zM339 646q86 0 158.5 -44t115 -120.5t42.5 -167t-42.5 -167t-115 -120.5t-158.5 -44t-158.5 44t-115 120.5t-42.5 167t42.5 167t115 120.5t158.5 44zM292 146q68 -44 133 -57t112 7.5t63 70.5q26 77 -29 179t-157 169q-68 45 -133 57.5
t-112 -8t-63 -70.5q-26 -76 29 -178t157 -170z" />
    <glyph glyph-name="Ocircumflex" unicode="&#xd4;" horiz-adv-x="678" 
d="M345 756l-49 -84h-51l72 118h57l72 -118h-51zM339 646q86 0 158.5 -44t115 -120.5t42.5 -167t-42.5 -167t-115 -120.5t-158.5 -44t-158.5 44t-115 120.5t-42.5 167t42.5 167t115 120.5t158.5 44zM292 146q68 -44 133 -57t112 7.5t63 70.5q26 77 -29 179t-157 169
q-68 45 -133 57.5t-112 -8t-63 -70.5q-26 -76 29 -178t157 -170z" />
    <glyph glyph-name="Otilde" unicode="&#xd5;" horiz-adv-x="678" 
d="M277 715q-14 0 -27 -7.5t-19 -15.5l-6 -8v47q2 3 6.5 7t20.5 10.5t36 6.5t51 -14t50 -14q10 0 22.5 7t20.5 14l8 7v-44q-17 -15 -28.5 -18.5t-36.5 -4.5q-16 0 -49 13.5t-49 13.5zM339 646q86 0 158.5 -44t115 -120.5t42.5 -167t-42.5 -167t-115 -120.5t-158.5 -44
t-158.5 44t-115 120.5t-42.5 167t42.5 167t115 120.5t158.5 44zM292 146q68 -44 133 -57t112 7.5t63 70.5q26 77 -29 179t-157 169q-68 45 -133 57.5t-112 -8t-63 -70.5q-26 -76 29 -178t157 -170z" />
    <glyph glyph-name="Odieresis" unicode="&#xd6;" horiz-adv-x="678" 
d="M281 672q-19 0 -31 12.5t-12 32.5q0 19 12 31.5t31 12.5t31.5 -12.5t12.5 -31.5q0 -20 -12.5 -32.5t-31.5 -12.5zM396 672q-19 0 -31 12.5t-12 32.5q0 19 12 31.5t30.5 12.5t31 -12.5t12.5 -31.5q0 -20 -12 -32.5t-31 -12.5zM339 646q86 0 158.5 -44t115 -120.5
t42.5 -167t-42.5 -167t-115 -120.5t-158.5 -44t-158.5 44t-115 120.5t-42.5 167t42.5 167t115 120.5t158.5 44zM292 146q68 -44 133 -57t112 7.5t64 70.5q25 77 -30 179t-157 169q-67 45 -132.5 57.5t-112.5 -8t-63 -70.5q-26 -76 29 -178t157 -170z" />
    <glyph glyph-name="multiply" unicode="&#xd7;" horiz-adv-x="402" 
d="M367 379l-124 -124l112 -113l-28 -28l-112 113l-128 -127l-53 53l127 128l-113 112l28 28l113 -113l124 125z" />
    <glyph glyph-name="Oslash" unicode="&#xd8;" horiz-adv-x="686" 
d="M575 539q84 -96 84 -225q0 -90 -42.5 -166.5t-115 -121t-158.5 -44.5q-111 0 -198 74l-70 -79l-36 32l72 80q-84 96 -84 225q0 90 42.5 166.5t115 121t158.5 44.5q111 0 198 -73l70 78l35 -32zM110 494q-20 -60 10.5 -138t97.5 -146l243 273q-22 18 -43 32
q-68 44 -133 57t-112 -7.5t-63 -70.5zM296 146q67 -45 132.5 -57.5t112.5 8t63 70.5q20 60 -10.5 138t-97.5 145l-243 -272q22 -18 43 -32z" />
    <glyph glyph-name="Ugrave" unicode="&#xd9;" 
d="M367 672h-32l-102 118h79zM495 634h83v-13q-13 0 -22 -9t-9 -22v-369q0 -94 -67 -161t-162 -67h-37q-94 0 -161 67t-67 161v369q0 13 -9 22t-22 9v13h177v-13q-13 0 -22 -9t-9 -22v-377q0 -73 52 -124.5t125 -51.5h5q73 0 124.5 51.5t51.5 124.5v377q0 13 -9 22t-22 9v13
z" />
    <glyph glyph-name="Uacute" unicode="&#xda;" 
d="M448 790l-103 -118h-32l55 118h80zM495 634h83v-13q-13 0 -22 -9t-9 -22v-369q0 -94 -67 -161t-162 -67h-37q-94 0 -161 67t-67 161v369q0 13 -9 22t-22 9v13h177v-13q-13 0 -22 -9t-9 -22v-377q0 -73 52 -124.5t125 -51.5h5q73 0 124.5 51.5t51.5 124.5v377q0 13 -9 22
t-22 9v13z" />
    <glyph glyph-name="Ucircumflex" unicode="&#xdb;" 
d="M317 756l-50 -85h-50l72 118h57l72 -118h-51zM495 634h83v-13q-13 0 -22 -9t-9 -22v-369q0 -95 -67 -161.5t-162 -66.5h-37q-94 0 -161 66.5t-67 161.5v369q0 13 -9 22t-22 9v13h177v-13q-13 0 -22 -9t-9 -22v-377q0 -73 51.5 -124.5t125.5 -51.5h5q73 0 124.5 51.5
t51.5 124.5v377q0 13 -9 22t-22 9v13z" />
    <glyph glyph-name="Udieresis" unicode="&#xdc;" 
d="M284.5 671q-18.5 0 -30.5 12t-12 32q0 19 12 32t30.5 13t31 -13t12.5 -32t-12.5 -31.5t-31 -12.5zM399 671q-19 0 -30.5 12t-11.5 32q0 19 12 32t30.5 13t31 -13t12.5 -32t-12.5 -31.5t-31.5 -12.5zM495 634h83v-13q-13 0 -22 -9t-9 -22v-369q0 -95 -67 -161.5
t-162 -66.5h-37q-94 0 -161 66.5t-67 161.5v369q0 13 -9 22t-22 9v13h177v-13q-13 0 -22 -9t-9 -22v-377q0 -73 51.5 -124.5t125.5 -51.5h5q73 0 124.5 51.5t51.5 124.5v377q0 13 -9 22t-22 9v13z" />
    <glyph glyph-name="Yacute" unicode="&#xdd;" horiz-adv-x="567" 
d="M409 788l-103 -118h-32l55 118h80zM491 634h81v-13q-18 0 -29 -8t-21 -23q-2 -4 -181 -263v-280q0 -13 9 -22t22 -9v-13h-178l1 13q12 0 21.5 9t9.5 22v280q-20 28 -45 64.5t-47.5 69.5t-42.5 61.5t-33 47t-14 20.5q-10 15 -21 23t-29 8v13h189v-13q-13 0 -17 -8.5
t5 -22.5l167 -237q163 234 165 237q9 14 5 22.5t-17 8.5v13z" />
    <glyph glyph-name="germandbls" unicode="&#xdf;" horiz-adv-x="578" 
d="M422 368q34 -12 64 -39.5t51 -64.5t19.5 -86t-31.5 -97q-33 -54 -90.5 -68.5t-113.5 10t-91 75.5l73 64q17 -26 46.5 -49.5t60 -37.5t58 -12t39.5 25q24 43 -3.5 90.5t-92 78.5t-139.5 31v19q29 97 50 188q6 26 8 49t-1.5 46t-18.5 36.5t-41 13.5q-22 0 -38 -11t-24 -26
t-12.5 -39.5t-5.5 -43.5t-1 -46v-465h-143v444q0 54 20 94.5t52.5 63t67.5 33.5t71 11q22 0 45 -5t49.5 -16t46 -32.5t32.5 -51.5t11.5 -77t-18.5 -105z" />
    <glyph glyph-name="agrave" unicode="&#xe0;" horiz-adv-x="486" 
d="M292 522h-32l-102 118h79zM464 23v-13h-101q-17 0 -31 13.5t-14 29.5v32q-13 -32 -54.5 -58.5t-96.5 -26.5q-73 0 -113.5 45t-30.5 104q9 62 60 101t132 66q47 15 103 32v21q0 90 -78 90q-21 0 -40.5 -11t-32 -27.5t-22 -33t-14.5 -27.5l-4 -11l-63 34q17 18 30.5 30.5
t38.5 29.5t58.5 26t72.5 9q77 0 123 -40.5t46 -96.5v-287q0 -13 9 -22t22 -9zM318 142v190q-37 -13 -87 -29q-54 -17 -83.5 -57.5t-23.5 -89.5q9 -66 50 -95q22 -15 48 -15t46.5 12t35 34.5t14.5 49.5z" />
    <glyph glyph-name="aacute" unicode="&#xe1;" horiz-adv-x="486" 
d="M359 640l-103 -118h-32l55 118h80zM464 23v-13h-101q-17 0 -31 13.5t-14 29.5v32q-13 -32 -54.5 -58.5t-96.5 -26.5q-73 0 -113.5 45t-30.5 104q9 62 60 101t132 66q47 15 103 32v21q0 90 -78 90q-21 0 -40.5 -11t-32 -27.5t-22.5 -33t-14 -27.5l-4 -11l-63 34
q17 18 30.5 30.5t38.5 29.5t58.5 26t72.5 9q77 0 123 -40.5t46 -96.5v-287q0 -13 9 -22t22 -9zM318 142v190q-37 -13 -87 -29q-54 -17 -83.5 -57.5t-23.5 -89.5q9 -66 50 -95q22 -15 48 -15t46.5 12t35 34.5t14.5 49.5z" />
    <glyph glyph-name="acircumflex" unicode="&#xe2;" horiz-adv-x="486" 
d="M242 607l-49 -85h-51l72 118h57l72 -118h-51zM464 23v-13h-101q-17 0 -31 13.5t-14 29.5v32q-13 -32 -54.5 -58.5t-96.5 -26.5q-73 0 -113.5 45t-30.5 104q9 62 60 101t132 66q47 15 103 32v21q0 90 -78 90q-21 0 -40.5 -11t-32 -27.5t-22.5 -33t-14 -27.5l-4 -11l-63 34
q17 18 30.5 30.5t38.5 29.5t58.5 26t72.5 9q77 0 123 -40.5t46 -96.5v-287q0 -13 9 -22t22 -9zM318 142v190q-37 -13 -87 -29q-54 -17 -83.5 -57.5t-23.5 -89.5q9 -66 50 -95q22 -15 48 -15t46.5 12t35 34.5t14.5 49.5z" />
    <glyph glyph-name="atilde" unicode="&#xe3;" horiz-adv-x="486" 
d="M187 566q-14 0 -27 -7.5t-19 -15.5l-6 -7v47q2 2 6.5 6t20.5 10.5t36 6.5t51 -14t50 -14q10 0 22.5 7t20.5 14l8 7v-44q-17 -15 -28.5 -18.5t-36.5 -4.5q-16 0 -49 13.5t-49 13.5zM464 23v-13h-101q-17 0 -31 13.5t-14 29.5v32q-13 -32 -54.5 -58.5t-96.5 -26.5
q-73 0 -113.5 45t-30.5 104q9 62 60 101t132 66q47 15 103 32v21q0 90 -78 90q-21 0 -40.5 -11t-32 -27.5t-22.5 -33t-14 -27.5l-4 -11l-63 34q17 18 30.5 30.5t38.5 29.5t58.5 26t72.5 9q77 0 123 -40.5t46 -96.5v-287q0 -13 9 -22t22 -9zM318 142v190q-37 -13 -87 -29
q-54 -17 -83.5 -57.5t-23.5 -89.5q9 -66 50 -95q22 -15 48 -15t46.5 12t35 34.5t14.5 49.5z" />
    <glyph glyph-name="adieresis" unicode="&#xe4;" horiz-adv-x="486" 
d="M184 523q-19 0 -30.5 12t-11.5 32q0 19 12 32t30.5 13t31 -13t12.5 -32t-12.5 -31.5t-31.5 -12.5zM299 523q-19 0 -31 12t-12 32q0 19 12 32t31 13t31.5 -13t12.5 -32t-12.5 -31.5t-31.5 -12.5zM464 23v-13h-101q-17 0 -31 13.5t-14 29.5v32q-13 -32 -54.5 -58.5
t-96.5 -26.5q-73 0 -113.5 45t-30.5 104q9 62 60 101t132 66q47 15 103 32v21q0 90 -78 90q-21 0 -40.5 -11t-32 -27.5t-22.5 -33t-14 -27.5l-4 -11l-63 34q17 18 30.5 30.5t38.5 29.5t58.5 26t72.5 9q77 0 123 -40.5t46 -96.5v-287q0 -13 9 -22t22 -9zM318 142v190
q-37 -13 -87 -29q-54 -17 -83.5 -57.5t-23.5 -89.5q9 -66 50 -95q22 -15 48 -15t46.5 12t35 34.5t14.5 49.5z" />
    <glyph glyph-name="aring" unicode="&#xe5;" horiz-adv-x="486" 
d="M242.5 501q-31.5 0 -54 22.5t-22.5 54t22.5 54t54 22.5t54 -22.5t22.5 -54t-22.5 -54t-54 -22.5zM242.5 617q-16.5 0 -28 -11.5t-11.5 -28t11.5 -28t28 -11.5t28 11.5t11.5 28t-11.5 28t-28 11.5zM464 23v-13h-101q-17 0 -31 13.5t-14 29.5v32q-13 -32 -54.5 -58.5
t-96.5 -26.5q-73 0 -113.5 45t-30.5 104q9 62 60 101t132 66q47 15 103 32v21q0 90 -78 90q-21 0 -40.5 -11t-32 -27.5t-22.5 -33t-14 -27.5l-4 -11l-63 34q17 18 30.5 30.5t38.5 29.5t58.5 26t72.5 9q77 0 123 -40.5t46 -96.5v-287q0 -13 9 -22t22 -9zM318 142v190
q-37 -13 -87 -29q-54 -17 -83.5 -57.5t-23.5 -89.5q9 -66 50 -95q22 -15 48 -15t46.5 12t35 34.5t14.5 49.5z" />
    <glyph glyph-name="ae" unicode="&#xe6;" horiz-adv-x="845" 
d="M809 196l17 -5q-16 -83 -78.5 -137t-143.5 -54q-51 0 -95 21.5t-76 60.5v-28q0 -13 9 -22t22 -9v-13h-101q-17 0 -31 13.5t-14 29.5v32q-13 -32 -54.5 -58.5t-96.5 -26.5q-73 0 -113.5 45t-30.5 104q3 19 10 36t15.5 30t24.5 26.5t28.5 22.5t35.5 19.5t38.5 17t45 16.5
t46 15.5t51.5 15.5v21q0 90 -78 90q-21 0 -40.5 -11t-32 -27.5t-22.5 -33t-14 -27.5l-4 -11l-63 34q17 18 30.5 30.5t38.5 29.5t58.5 26t72.5 9q61 0 102.5 -26t57.5 -67q32 43 79 68t101 25q43 0 79.5 -13t57.5 -32t36.5 -37.5t21.5 -31.5l6 -13l-314 -143q28 -27 66 -47
q48 -26 91 -35.5t71.5 -5t49.5 17t30.5 28t9.5 30.5zM318 142v190q-37 -13 -87 -29q-49 -16 -76.5 -50t-30 -70t10.5 -70t39 -52q22 -15 48 -15t46.5 12t35 34.5t14.5 49.5zM547 433q-55 4 -86 -30.5t-26 -86.5t45 -96l208 95q-13 49 -51 82t-90 36z" />
    <glyph glyph-name="ccedilla" unicode="&#xe7;" horiz-adv-x="492" 
d="M475 191q-16 -80 -76 -133.5t-139 -56.5l-2 -21q4 -1 9 -2.5t18 -9t22.5 -17t15.5 -26.5t2 -36q-4 -25 -21.5 -40.5t-39 -20t-42.5 -5.5t-35 1l-14 2l3 42q4 -1 11 -2t24.5 -1.5t31.5 1.5t26.5 10t14.5 20q4 21 -15 35.5t-40 18.5l-21 4l7 50q-82 14 -136 80.5t-54 154.5
q0 99 66.5 169t160.5 70q63 0 115.5 -33.5t82.5 -88.5l-112 -46q-12 51 -50.5 85t-91.5 38q-41 3 -69.5 -17.5t-37.5 -49.5q-16 -52 13.5 -109t103.5 -96q48 -26 90.5 -35.5t71 -5t49.5 17t30.5 28t9.5 30.5z" />
    <glyph glyph-name="egrave" unicode="&#xe8;" horiz-adv-x="493" 
d="M317 522h-32l-102 118h79zM457 196l18 -5q-16 -83 -78.5 -137t-144.5 -54q-94 0 -160.5 70t-66.5 169t66.5 169t160.5 70q43 0 79.5 -13t58 -32t37 -37.5t21.5 -31.5l6 -13l-314 -143q28 -27 66 -47q48 -26 90.5 -35.5t71 -5t49.5 17t30.5 28t9.5 30.5zM89 366
q-21 -80 40 -146l207 95q-12 49 -50 82t-90 36q-43 3 -71 -17.5t-36 -49.5z" />
    <glyph glyph-name="eacute" unicode="&#xe9;" horiz-adv-x="493" 
d="M359 640l-102 -118h-32l55 118h79zM457 196l18 -5q-16 -83 -78.5 -137t-144.5 -54q-94 0 -160.5 70t-66.5 169t66.5 169t160.5 70q43 0 79.5 -13t58 -32t37 -37.5t21.5 -31.5l6 -13l-314 -143q28 -27 66 -47q48 -26 90.5 -35.5t71 -5t49.5 17t30.5 28t9.5 30.5zM89 366
q-21 -80 40 -146l207 95q-12 49 -50 82t-90 36q-43 3 -71 -17.5t-36 -49.5z" />
    <glyph glyph-name="ecircumflex" unicode="&#xea;" horiz-adv-x="493" 
d="M250 606l-50 -84h-50l72 118h56l72 -118h-50zM457 196l18 -5q-16 -83 -78.5 -137t-144.5 -54q-94 0 -160.5 70t-66.5 169t66.5 169t160.5 70q43 0 79.5 -13t58 -32t37 -37.5t21.5 -31.5l6 -13l-314 -143q28 -27 66 -47q48 -26 90.5 -35.5t71 -5t49.5 17t30.5 28t9.5 30.5
zM89 366q-21 -80 40 -146l207 95q-12 49 -50 82t-90 36q-43 3 -71 -17.5t-36 -49.5z" />
    <glyph glyph-name="edieresis" unicode="&#xeb;" horiz-adv-x="493" 
d="M192 523q-19 0 -31 12t-12 32q0 19 12 32t31 13t31.5 -13t12.5 -32t-12.5 -31.5t-31.5 -12.5zM307 523q-19 0 -31 12t-12 32q0 19 12 32t30.5 13t31 -13t12.5 -32t-12 -31.5t-31 -12.5zM457 196l18 -5q-16 -83 -78.5 -137t-144.5 -54q-94 0 -160.5 70t-66.5 169t66.5 169
t160.5 70q43 0 79.5 -13t58 -32t37 -37.5t21.5 -31.5l6 -13l-314 -143q28 -27 66 -47q48 -26 90.5 -35.5t71 -5t49.5 17t30.5 28t9.5 30.5zM89 366q-21 -80 40 -146l207 95q-12 49 -50 82t-90 36q-43 3 -71 -17.5t-36 -49.5z" />
    <glyph glyph-name="igrave" unicode="&#xec;" horiz-adv-x="226" 
d="M159 522h-32l-102 118h80zM202 23v-13h-177v13q13 0 22 9t9 22v330q0 13 -9 22t-22 9v13q77 6 133 39h13v-413q0 -13 9 -22t22 -9z" />
    <glyph glyph-name="iacute" unicode="&#xed;" horiz-adv-x="225" 
d="M210 640l-102 -118h-33l55 118h80zM171 467v-413q0 -13 9 -22t22 -9v-13h-177v13q13 0 22 9t9 22v330q0 13 -9 22t-22 9v13q77 6 133 39h13z" />
    <glyph glyph-name="icircumflex" unicode="&#xee;" horiz-adv-x="225" 
d="M113 607l-49 -85h-51l72 118h57l72 -118h-51zM171 467v-413q0 -13 9 -22t22 -9v-13h-177v13q13 0 22 9t9 22v330q0 13 -9 22t-22 9v13q76 6 133 39h13z" />
    <glyph glyph-name="idieresis" unicode="&#xef;" horiz-adv-x="226" 
d="M170 523q-19 0 -30.5 12t-11.5 32q0 19 12 32t30.5 13t31 -13t12.5 -32t-12.5 -31.5t-31.5 -12.5zM99 567q0 -19 -12.5 -31.5t-31 -12.5t-30.5 12t-12 32q0 19 12 32t30.5 13t31 -13t12.5 -32zM171 467v-413q0 -13 9 -22t22 -9v-13h-177v13q13 0 22 9t9 22v330
q0 13 -9 22t-22 9v13q76 6 133 39h13z" />
    <glyph glyph-name="ntilde" unicode="&#xf1;" horiz-adv-x="493" 
d="M207 566q-14 0 -27 -8t-19 -15l-6 -8v47q2 3 6.5 6.5t20.5 10.5t36 7t51 -14t49 -14q11 0 23.5 7t20.5 14l8 7v-45q-17 -14 -29 -18t-36 -4q-16 0 -49 13.5t-49 13.5zM293 23q13 0 22 9t9 22v317q0 88 -60 88q-27 0 -51.5 -13.5t-41.5 -35.5v-356q0 -13 9 -22t22 -9v-13
h-177v13q13 0 22 9t9 22v330q0 13 -9 22t-22 9v13q77 6 133 39h13v-34q42 45 113 45q74 0 114.5 -39t40.5 -84v-83.5v-146.5v-71q0 -13 9.5 -22t21.5 -9v-13h-177v13z" />
    <glyph glyph-name="ograve" unicode="&#xf2;" horiz-adv-x="505" 
d="M288 522h-32l-103 118h80zM252 478q94 0 161 -70t67 -169t-67 -169t-161 -70t-160.5 70t-66.5 169t66.5 169t160.5 70zM206 160.5q77 -42.5 148.5 -42.5t95 42.5t-14.5 103t-115.5 103t-148.5 42.5t-94.5 -42.5t14.5 -103t115 -103z" />
    <glyph glyph-name="oacute" unicode="&#xf3;" horiz-adv-x="505" 
d="M365 640l-103 -118h-32l55 118h80zM252 478q94 0 161 -70t67 -169t-67 -169t-161 -70t-160.5 70t-66.5 169t66.5 169t160.5 70zM206 160.5q77 -42.5 148.5 -42.5t95 42.5t-14.5 103t-115.5 103t-148.5 42.5t-94.5 -42.5t14.5 -103t115 -103z" />
    <glyph glyph-name="ocircumflex" unicode="&#xf4;" horiz-adv-x="505" 
d="M252 607l-50 -85h-50l72 118h57l72 -118h-51zM252 478q94 0 161 -70t67 -169t-67 -169t-161 -70t-160.5 70t-66.5 169t66.5 169t160.5 70zM206 160.5q77 -42.5 148.5 -42.5t95 42.5t-14.5 103t-115.5 103t-148.5 42.5t-94.5 -42.5t14.5 -103t115 -103z" />
    <glyph glyph-name="otilde" unicode="&#xf5;" horiz-adv-x="505" 
d="M197 566q-14 0 -27 -8t-19 -15l-6 -8v47q2 3 6.5 6.5t20.5 10.5t36 7t51 -14t49 -14q11 0 23.5 7t20.5 14l8 7v-45q-17 -14 -29 -18t-36 -4q-16 0 -49 13.5t-49 13.5zM252 478q94 0 161 -70t67 -169t-67 -169t-161 -70t-160.5 70t-66.5 169t66.5 169t160.5 70zM206 160.5
q77 -42.5 148.5 -42.5t95 42.5t-14.5 103t-115.5 103t-148.5 42.5t-94.5 -42.5t14.5 -103t115 -103z" />
    <glyph glyph-name="odieresis" unicode="&#xf6;" horiz-adv-x="505" 
d="M193.5 523q-18.5 0 -30.5 12t-12 32q0 19 12 32t30.5 13t31 -13t12.5 -32t-12.5 -31.5t-31 -12.5zM308 523q-19 0 -30.5 12t-11.5 32q0 19 12 32t30.5 13t31 -13t12.5 -32t-12.5 -31.5t-31.5 -12.5zM252 478q94 0 161 -70t67 -169t-67 -169t-161 -70t-160.5 70t-66.5 169
t66.5 169t160.5 70zM206 160.5q77 -42.5 148.5 -42.5t95 42.5t-14.5 103t-115.5 103t-148.5 42.5t-94.5 -42.5t14.5 -103t115 -103z" />
    <glyph glyph-name="oslash" unicode="&#xf8;" horiz-adv-x="508" 
d="M410 411q72 -71 72 -174q0 -99 -67 -168.5t-161 -69.5q-65 0 -121 37l-43 -58l-36 27l44 59q-71 71 -71 173q0 99 66.5 169t160.5 70q66 0 121 -37l43 58l36 -27zM79 365q-22 -38 7.5 -92t94.5 -97l140 189q-77 43 -148 42.5t-94 -42.5zM220 153q74 -38 141.5 -36.5
t89.5 42.5q20 37 -6 88.5t-86 93.5z" />
    <glyph glyph-name="ugrave" unicode="&#xf9;" horiz-adv-x="505" 
d="M288 522h-32l-103 118h80zM480 23v-13h-113q-14 0 -23.5 9.5t-9.5 23.5v17q-43 -60 -125 -60q-75 0 -115.5 38.5t-40.5 84.5v69.5v128.5v63q0 13 -9 22t-22 9v13q76 6 133 39h13v-361q0 -88 60 -88q34 0 63.5 20.5t42.5 51.5v294q0 13 -9 22t-22 9v13q76 6 133 39h13
v-413q0 -13 9 -22t22 -9z" />
    <glyph glyph-name="uacute" unicode="&#xfa;" horiz-adv-x="505" 
d="M341 640l-103 -118h-32l55 118h80zM480 23v-13h-113q-14 0 -23.5 9.5t-9.5 23.5v17q-43 -60 -125 -60q-75 0 -115.5 38.5t-40.5 84.5v69.5v128.5v63q0 13 -9 22t-22 9v13q76 6 133 39h13v-361q0 -88 60 -88q34 0 63.5 20.5t42.5 51.5v294q0 13 -9 22t-22 9v13
q76 6 133 39h13v-413q0 -13 9 -22t22 -9z" />
    <glyph glyph-name="ucircumflex" unicode="&#xfb;" horiz-adv-x="505" 
d="M251 605l-50 -85h-50l72 118h56l72 -118h-50zM480 23v-13h-113q-14 0 -23.5 9.5t-9.5 23.5v17q-43 -60 -125 -60q-75 0 -115.5 38.5t-40.5 84.5v70v129v63q0 13 -9 22t-22 9v13q76 5 133 38h13v-361q0 -87 60 -87q34 0 63.5 20.5t42.5 50.5v295q0 13 -9 22t-22 9v13
q76 5 133 38h13v-413q0 -13 9 -22t22 -9z" />
    <glyph glyph-name="udieresis" unicode="&#xfc;" horiz-adv-x="505" 
d="M207 521q-19 0 -30.5 12t-11.5 32q0 19 12 32t30.5 13t31 -13t12.5 -32t-12.5 -31.5t-31.5 -12.5zM322 521q-19 0 -31 12t-12 32q0 19 12 32t31 13t31.5 -13t12.5 -32t-12.5 -31.5t-31.5 -12.5zM480 23v-13h-113q-14 0 -23.5 9.5t-9.5 23.5v17q-43 -60 -125 -60
q-75 0 -115.5 38.5t-40.5 84.5v70v129v63q0 13 -9 22t-22 9v13q76 5 133 38h13v-361q0 -87 60 -87q34 0 63.5 20.5t42.5 50.5v295q0 13 -9 22t-22 9v13q76 5 133 38h13v-413q0 -13 9 -22t22 -9z" />
    <glyph glyph-name="yacute" unicode="&#xfd;" horiz-adv-x="434" 
d="M358 638l-103 -118h-32l55 118h80zM303 466h116q0 -68 -52 -227q-57 -173 -76 -230q-2 -3 -8 -20.5t-9 -27.5l-3 -9q-7 -19 -11.5 -31t-16 -33t-23.5 -33t-31 -21.5t-42 -9.5q-24 0 -44.5 9t-31.5 21.5t-19 25.5t-10 22l-3 9l59 28q0 -3 1 -8.5t5 -19.5t10 -25.5
t17.5 -22t25.5 -13.5q26 -4 51 20.5t48 91.5q3 6 7 18l7 21l3 8h-53q-19 0 -34.5 11.5t-21.5 29.5q-90 274 -122 372q-3 10 -6.5 16t-11.5 10.5t-21 4.5v13h177v-13q-13 0 -20.5 -8.5t-2.5 -22.5q7 -18 122 -375q1 -3 4.5 -3t4.5 3q37 120 49.5 160t13.5 81.5t-6.5 72
t-16.5 55.5t-17 37z" />
    <glyph glyph-name="ydieresis" unicode="&#xff;" horiz-adv-x="434" 
d="M192 521q-19 0 -31 12t-12 32q0 19 12 32t30.5 13t31.5 -13t13 -32t-12.5 -31.5t-31.5 -12.5zM306.5 521q-18.5 0 -30.5 12t-12 32q0 19 12 32t30.5 13t31 -13t12.5 -32t-12.5 -31.5t-31 -12.5zM303 466h116q0 -68 -52 -227q-57 -173 -76 -230q-2 -3 -8 -20.5t-9 -27.5
l-3 -9q-7 -19 -11.5 -31t-16 -33t-23.5 -33t-31 -21.5t-42 -9.5q-24 0 -44.5 9t-31.5 21.5t-19 25.5t-10 22l-3 9l59 28q0 -3 1 -8.5t5 -19.5t10 -25.5t17.5 -22t25.5 -13.5q26 -4 51 20.5t48 91.5q3 6 7 18l7 21l3 8h-53q-19 0 -34.5 11.5t-21.5 29.5q-90 274 -122 372
q-3 10 -6.5 16t-11.5 10.5t-21 4.5v13h177v-13q-13 0 -20.5 -8.5t-2.5 -22.5q7 -18 122 -375q1 -3 4.5 -3t4.5 3q37 120 49.5 160t13.5 81.5t-6.5 72t-16.5 55.5t-17 37z" />
    <glyph glyph-name="dotlessi" unicode="&#x131;" horiz-adv-x="226" 
d="M25 22q13 0 22 9t9 22v331q0 13 -9 22t-22 9v13q77 5 133 38h13v-413q0 -13 9 -22t22 -9v-13h-177v13z" />
    <glyph glyph-name="OE" unicode="&#x152;" horiz-adv-x="1080" 
d="M1052 122h13l-31 -119h-456v13q13 0 22 9t9 22v97q-42 -74 -113.5 -117.5t-156.5 -43.5q-86 0 -158.5 44t-115 120.5t-42.5 167t42.5 167t115 121t158.5 44.5q85 0 156.5 -44t113.5 -118v105q0 13 -9 22t-22 9v13h446l31 -119h-13q-2 5 -5.5 12t-16 25t-27.5 31.5
t-39.5 25t-51.5 11.5h-147q-13 0 -21.5 -8.5t-8.5 -21.5v-252h157q18 0 31.5 13.5t13.5 31.5v24h13v-150h-13v24q0 18 -13.5 31.5t-31.5 13.5h-157v-279q0 -13 9 -21.5t22 -8.5h156q27 0 51.5 11t40 26t27 30.5t16.5 26.5zM600 167q26 77 -29 179t-157 169
q-67 45 -132.5 57.5t-112.5 -8t-63 -70.5q-26 -76 29 -178t157 -170q68 -44 133 -57t112 7.5t63 70.5z" />
    <glyph glyph-name="oe" unicode="&#x153;" horiz-adv-x="924" 
d="M888 196l17 -5q-16 -83 -78.5 -137t-143.5 -54q-74 0 -133 45.5t-82 117.5q-24 -72 -83 -117.5t-133 -45.5q-94 0 -160.5 70t-66.5 169t66.5 169t160.5 70q74 0 133 -45.5t83 -117.5q23 72 82 117.5t133 45.5q43 0 79.5 -13t58 -32t36.5 -37.5t21 -31.5l6 -13l-314 -143
q28 -27 66 -47q48 -26 91 -35.5t71.5 -5t49.5 17t30.5 28t9.5 30.5zM449.5 160.5q23.5 42.5 -14.5 103t-115.5 103t-148.5 42.5t-94.5 -42.5t14.5 -103t115 -103t148.5 -42.5t95 42.5zM519 366q-21 -80 40 -146l208 95q-13 49 -51 82t-90 36q-42 3 -70.5 -17.5t-36.5 -49.5z
" />
    <glyph glyph-name="Scaron" unicode="&#x160;" horiz-adv-x="570" 
d="M319 670h-57l-72 118h50l50 -84l50 84h51zM292 398q41 -17 65.5 -28t58.5 -28t54 -32t39.5 -33.5t28.5 -39t9 -42.5q0 -96 -75.5 -149t-192.5 -53q-107 0 -171 37t-79 86q-8 25 1 47.5t27 35t34.5 19.5t24.5 7q-16 -48 3.5 -99t67 -84.5t104.5 -33.5q42 0 74.5 13
t49 32.5t24.5 38t8 33.5q0 20 -12 38.5t-37 35.5t-48 29.5t-58 28.5q-15 7 -41.5 19t-45 20t-44 21t-42.5 24.5t-35.5 28t-28.5 33t-15.5 38t-1.5 44.5q10 74 72 117.5t147 43.5q62 0 114 -14.5t82.5 -36t47.5 -43t17 -38.5q0 -27 -23 -47t-46 -27l-23 -7q0 4 0.5 11.5
t-1 28t-6 39.5t-16 42.5t-29.5 40t-49 28t-70 11.5q-47 0 -77.5 -27.5t-30.5 -63.5q0 -40 40.5 -79t104.5 -66z" />
    <glyph glyph-name="scaron" unicode="&#x161;" horiz-adv-x="424" 
d="M242 520h-57l-72 118h51l50 -84l50 84h50zM218 315q36 -14 56.5 -24t47.5 -26t41.5 -31t25 -36.5t10.5 -46.5q0 -68 -55 -107t-129 -39q-72 0 -122.5 23.5t-60.5 56.5q-11 34 17 56t46 22q-18 -53 18.5 -100t100.5 -47q30 0 53 9.5t35 23.5t18 27t6 25q0 13 -7.5 24.5
t-24.5 23t-30.5 18.5t-39.5 19q-7 3 -11 5q-8 4 -29 13.5t-33 15t-31.5 16t-31 19t-25.5 21t-21 25t-10.5 28t-1.5 32.5q7 54 52 85t107 31q84 0 136 -33t52 -62q0 -19 -16.5 -34t-33.5 -20l-16 -5q-1 6 -2.5 15.5t-9.5 34t-20.5 43t-37.5 33.5t-57 15q-34 0 -54.5 -17.5
t-20.5 -43.5q0 -15 8 -27t25.5 -23t33 -18.5t42.5 -19.5z" />
    <glyph glyph-name="Ydieresis" unicode="&#x178;" horiz-adv-x="567" 
d="M247.5 671q-18.5 0 -30.5 12t-12 32q0 19 12 32t30.5 13t31 -13t12.5 -32t-12.5 -31.5t-31 -12.5zM362 671q-19 0 -30.5 12t-11.5 32q0 19 12 32t30.5 13t31 -13t12.5 -32t-12.5 -31.5t-31.5 -12.5zM491 634h81v-13q-18 0 -29 -8t-21 -23q-2 -4 -181 -263v-280
q0 -13 9 -22t22 -9v-13h-178l1 13q12 0 21.5 9t9.5 22v280q-20 28 -45 64.5t-47.5 69.5t-42.5 61.5t-33 47t-14 20.5q-10 15 -21 23t-29 8v13h189v-13q-13 0 -17 -8.5t5 -22.5l167 -237q163 234 165 237q9 14 5 22.5t-17 8.5v13z" />
    <glyph glyph-name="Zcaron" unicode="&#x17d;" horiz-adv-x="572" 
d="M313 670h-56l-73 117h51l50 -84l50 84h50zM386 17q27 0 51 10.5t39.5 26t27.5 31t17 26.5l5 11h13l-31 -119h-503v15q223 324 359 522q31 46 34 50q8 13 5.5 20.5t-13.5 9.5h-181q-27 0 -51.5 -11t-40 -26t-27 -30.5t-16.5 -26.5l-6 -11h-13l31 119h479v-11
q-398 -571 -401 -576q-10 -14 -6 -22t17 -8h211z" />
    <glyph glyph-name="zcaron" unicode="&#x17e;" horiz-adv-x="471" 
d="M262 520h-57l-72 117h51l50 -84l49 84h51zM440 128h13l-31 -118h-408v14q286 394 289 399q9 13 6.5 21t-13.5 9h-108q-27 0 -51 -10.5t-39.5 -26t-27.5 -31t-17 -26.5l-5 -10h-13l31 118h383v-11q-285 -397 -288 -402q-10 -14 -6 -22t17 -8h128q27 0 51.5 10.5t40 26
t27 31t16.5 26.5z" />
    <glyph glyph-name="endash" unicode="&#x2013;" horiz-adv-x="481" 
d="M451 200h-421v88h421v-88z" />
    <glyph glyph-name="emdash" unicode="&#x2014;" horiz-adv-x="569" 
d="M536 200h-504v105h504v-105z" />
    <glyph glyph-name="quoteleft" unicode="&#x2018;" horiz-adv-x="192" 
d="M99 621q26 0 43 -16t17 -43q0 -25 -17 -43.5t-43 -18.5q-29 0 -47.5 19t-18.5 54q0 61 51 108l9 -7q-6 -8 -10 -20t-0.5 -22.5t16.5 -10.5z" />
    <glyph glyph-name="quoteright" unicode="&#x2019;" horiz-adv-x="189" 
d="M90 681q29 0 47.5 -19t18.5 -54q0 -61 -51 -108l-9 6q6 9 10 21t0.5 22.5t-16.5 10.5q-26 0 -43 16t-17 42t17.5 44.5t42.5 18.5z" />
    <glyph glyph-name="quotesinglbase" unicode="&#x201a;" horiz-adv-x="191" 
d="M92 121q29 0 47.5 -19t18.5 -54q0 -61 -51 -108l-9 6q6 9 10 21t0.5 22.5t-16.5 10.5q-26 0 -43 16t-17 42t17.5 44.5t42.5 18.5z" />
    <glyph glyph-name="quotedblleft" unicode="&#x201c;" horiz-adv-x="338" 
d="M99 621q26 0 43 -16t17 -43q0 -25 -17 -43.5t-43 -18.5q-29 0 -47.5 19t-18.5 54q0 61 51 108l9 -7q-6 -8 -10 -20t-0.5 -22.5t16.5 -10.5zM246 621q26 0 43 -16t17 -43q0 -25 -17.5 -43.5t-42.5 -18.5q-30 0 -48 19t-18 54q0 61 50 108l10 -7q-7 -8 -10.5 -20t0 -22.5
t16.5 -10.5z" />
    <glyph glyph-name="quotedblright" unicode="&#x201d;" horiz-adv-x="335" 
d="M236 681q30 0 48.5 -19t18.5 -54q0 -61 -51 -108l-10 6q7 9 10.5 21t0 22.5t-16.5 10.5q-26 0 -43 16t-17 42t17.5 44.5t42.5 18.5zM90 681q29 0 47.5 -19t18.5 -54q0 -61 -51 -108l-9 6q6 9 10 21t0.5 22.5t-16.5 10.5q-26 0 -43 16t-17 42t17.5 44.5t42.5 18.5z" />
    <glyph glyph-name="quotedblbase" unicode="&#x201e;" horiz-adv-x="337" 
d="M238 121q30 0 48.5 -19t18.5 -54q0 -61 -51 -108l-10 6q7 9 10.5 21t0 22.5t-16.5 10.5q-26 0 -43 16t-17 42t17.5 44.5t42.5 18.5zM92 121q29 0 47.5 -19t18.5 -54q0 -61 -51 -108l-9 6q6 9 10 21t0.5 22.5t-16.5 10.5q-26 0 -43 16t-17 42t17.5 44.5t42.5 18.5z" />
    <glyph glyph-name="dagger" unicode="&#x2020;" horiz-adv-x="455" 
d="M272 537h153v-91h-153v-546h-91v546h-152v91h152v174h91v-174z" />
    <glyph glyph-name="bullet" unicode="&#x2022;" horiz-adv-x="266" 
d="M131 402q43 0 71.5 -29t28.5 -72q0 -44 -28.5 -72.5t-71.5 -28.5q-42 0 -69 28t-27 73q0 43 27 72t69 29z" />
    <glyph glyph-name="guilsinglleft" unicode="&#x2039;" horiz-adv-x="321" 
d="M289 436l-141 -167l141 -169h-113l-142 166q-2 1 -2 2q0 2 2 4l144 164h111z" />
    <glyph glyph-name="guilsinglright" unicode="&#x203a;" horiz-adv-x="321" 
d="M287 271q2 -2 2 -3t-2 -3l-144 -165h-111l141 168l-141 168h113z" />
    <glyph glyph-name="Euro" unicode="&#x20ac;" horiz-adv-x="626" 
d="M555 87q10 0 14 -10q5 -12 -3 -20q-29 -28 -74 -45t-92 -17q-109 0 -191 74.5t-101 190.5h-73v50h68q-1 8 -1 12q0 19 3 42h-70v50h78q27 116 100 177.5t182 61.5q74 0 128.5 -37t66.5 -95l2 -7l-98 -29l-1 9q-1 5 -2 15t-7.5 33.5t-15.5 41.5t-26.5 33t-39.5 15
q-47 0 -85.5 -65.5t-38.5 -152.5h193v-50h-196q-1 -26 0 -54h196v-50h-190q13 -92 72 -141t130 -49q38 0 65 15l2 1z" />
    </font>
</defs>
</svg>
